<?xml version="1.0" standalone="no"?>
<!DOCTYPE svg PUBLIC "-//W3C//DTD SVG 1.1//EN" "http://www.w3.org/Graphics/SVG/1.1/DTD/svg11.dtd" >
<svg xmlns="http://www.w3.org/2000/svg">
<metadata>
This is a custom SVG webfont generated by Font Squirrel.
Copyright   : Copyright c Andreas Stoetzner 2007 All rights reserved
Designer    : Andreas Stoetzner
Foundry     : Andreas Stoetzner
</metadata>
<defs>
<font id="AndronFreefontLATRegular" horiz-adv-x="1024" >
<font-face units-per-em="2048" ascent="1638" descent="-410" />
<missing-glyph horiz-adv-x="491" />
<glyph unicode=" "  horiz-adv-x="491" />
<glyph unicode="&#x09;" horiz-adv-x="491" />
<glyph unicode="&#xa0;" horiz-adv-x="491" />
<glyph unicode="!" horiz-adv-x="573" d="M375 463h-51l-95 829q0 27 33 57.5t96 30.5q31 0 53.5 -10t38 -24.5t23.5 -30t8 -23.5zM348 -20q-49 0 -85 34.5t-36 83.5q0 51 36 86t85 35t85 -34.5t36 -86.5q0 -49 -36 -83.5t-85 -34.5z" />
<glyph unicode="&#x22;" horiz-adv-x="747" d="M444 1407q8 6 23 14q12 6 30.5 11.5t43.5 5.5q27 0 44 -5.5t27 -11.5q12 -8 19 -14l-76 -487h-59zM141 1407q8 6 23 14q12 6 30.5 11.5t43.5 5.5q27 0 44 -5.5t27 -11.5q12 -8 19 -14l-76 -487h-59z" />
<glyph unicode="#" horiz-adv-x="1308" d="M909 -410l-112 -20q4 63 7 144t5 153q2 84 2 170h-86h-61q-33 0 -68 -1l-67 -2q-33 -1 -58 -1v-443l-113 -20q4 59 6.5 138t4.5 151q2 82 2 168q-49 -2 -101 -7q-43 -4 -92 -7t-90 -7l-18 17l34 180h267v528l-23 -2l-62 -5q-38 -3 -83 -6t-86 -7l-19 30l35 164h240 l-4 164q-2 66 -4.5 130.5t-6.5 96.5l113 13v-404h340l-4 164l-4 130q-2 65 -6 97l112 13v-404h283l-18 -176q-27 4 -71 5t-87 3q-51 2 -107 2v-536h242l-18 -178q-25 4 -63 5t-73 3q-41 2 -88 2v-445zM471 203h338q0 45 1 117.5t1 150.5v150v120h-66q-31 0 -67 -1l-72 -2 l-72 -2q-36 -1 -63 -1v-532z" />
<glyph unicode="$" horiz-adv-x="1126" d="M768 629q23 -18 46.5 -40t41.5 -52.5t30.5 -72.5t12.5 -104q0 -66 -26.5 -130t-75.5 -115.5t-120 -84t-159 -36.5l-31 -311h-96l37 313q-74 2 -131 21.5t-97 47t-60.5 60.5t-20.5 61q0 43 15.5 74t34.5 51.5t39.5 30.5t33.5 10q14 0 20 -13t10 -34.5t8.5 -49.5t14.5 -58 q14 -51 51 -87t90 -36l22 228q11 118 21 265q-41 33 -84 62.5t-78 64.5q-39 37 -74.5 101.5t-35.5 156.5q0 53 21.5 110.5t64.5 104.5t107.5 78t150.5 31l22 272h95l18 -16l-29 -258q59 -2 111.5 -20.5t90.5 -44t60.5 -53.5t22.5 -48q0 -33 -13.5 -61.5t-32.5 -50t-39.5 -34 t-35.5 -12.5q-14 0 -18 21.5t-8 52.5t-13.5 65.5t-31.5 59.5q-25 27 -51.5 36t-49.5 9l-51 -449q14 -8 35 -22l47 -31q25 -16 48 -34zM545 1196q-88 -2 -145.5 -55.5t-57.5 -145.5q0 -70 43 -121t121 -98zM526 72q104 0 171 62.5t67 158.5q0 88 -57.5 147.5t-131.5 98.5z " />
<glyph unicode="%" horiz-adv-x="1486" d="M717 872q0 -61 -22.5 -114t-61.5 -92t-92.5 -60.5t-112.5 -21.5q-55 0 -108.5 20.5t-93.5 57t-64.5 89t-24.5 113.5t22.5 113.5t61.5 89.5t93.5 58.5t117.5 21.5q129 0 207 -75t78 -200zM442 682q70 0 116 54.5t46 135.5q0 92 -50 146.5t-118 54.5q-70 0 -116 -51 t-46 -133q0 -88 48 -147.5t120 -59.5zM244 -18l-4 10l968 1157l109 -37v-12l-158 -169l-177 -199l-183 -214l-176 -212l-157 -195l-122 -160zM1395 246q0 -61 -21.5 -112.5t-60.5 -88.5t-90.5 -58.5t-110.5 -21.5q-55 0 -106.5 19.5t-91.5 55.5t-63.5 86t-23.5 112 q0 59 22.5 110t61.5 88t92.5 57.5t114.5 20.5q125 0 201 -72.5t76 -195.5zM1126 61q68 0 113 53.5t45 131.5q0 90 -48 143t-114 53q-68 0 -113.5 -51t-45.5 -129q0 -86 46.5 -143.5t116.5 -57.5z" />
<glyph unicode="&#x26;" horiz-adv-x="1548" d="M1548 70q-37 -35 -75.5 -51.5t-73.5 -26.5q-39 -10 -76 -12q-39 0 -78 5t-77 23.5t-72.5 53t-67.5 94.5h-10q-98 -92 -218 -135.5t-237 -43.5q-104 0 -194 34t-158 92.5t-106.5 139.5t-38.5 177q0 133 91 240.5t257 168.5l2 11q-104 92 -105 231q0 39 18.5 81t59.5 76 t107.5 56.5t165.5 22.5q68 0 121 -18.5t90.5 -48.5t57 -66.5t19.5 -73.5q0 -49 -25.5 -90t-62.5 -74t-80 -54.5t-80 -33.5l-2 -10q115 -61 210.5 -172t191.5 -271h12q20 18 38.5 60.5t32 91.5t20.5 98t7 82q0 27 -3 47.5t-13 42.5q-10 23 -45 49.5t-117 36.5l6 55 q53 -4 96.5 -6t75.5 -4q37 -2 70 -2q29 0 66 2q29 2 68.5 4t82.5 6l6 -53q-61 -8 -95 -34.5t-44 -45.5q-20 -39 -32.5 -94t-32 -121.5t-52 -143.5t-92.5 -159q33 -66 59.5 -110.5t54 -72.5t57.5 -39t67 -11q23 0 62.5 11t68.5 40zM666 1239q-49 0 -83 -14.5t-53.5 -37 t-27.5 -51t-8 -57.5q0 -47 23.5 -92t103.5 -96q47 14 83.5 40.5t62.5 58.5t39 64.5t13 63.5q0 25 -14 47.5t-37 39t-49 25.5t-53 9zM653 88q104 0 184.5 42t143.5 108l-127 202q-55 84 -109.5 145.5t-114 106.5t-141.5 86q-68 -25 -110.5 -61.5t-67 -80.5t-34 -90t-9.5 -85 q0 -76 25.5 -143.5t75 -119t121 -81t163.5 -29.5z" />
<glyph unicode="'" horiz-adv-x="462" d="M123 1407l33 14q16 6 36.5 11.5t45.5 5.5q27 0 47 -5.5t34 -11.5q16 -8 27 -14l-86 -487h-72z" />
<glyph unicode="(" horiz-adv-x="628" d="M604 -408q-102 61 -193.5 158.5t-161 219.5t-110.5 261.5t-41 284.5q0 143 43 283.5t113 263.5t157 221t175 158l24 -47q-70 -66 -132 -151t-110.5 -190.5t-76 -234.5t-27.5 -280q0 -150 29 -286t78 -251t115.5 -208t142.5 -156z" />
<glyph unicode=")" horiz-adv-x="628" d="M0 -362q76 63 142.5 152t115.5 201.5t78 249t29 294.5q0 152 -28 280.5t-75 236t-110.5 192.5t-133.5 151l27 47q88 -59 174 -149.5t155.5 -204t112.5 -245.5t43 -276q0 -145 -40.5 -292.5t-110.5 -278.5t-162 -236.5t-192 -167.5z" />
<glyph unicode="*" horiz-adv-x="866" d="M362 1169q6 4 13.5 7.5t13.5 7.5l68 282l41 -2l24 -284q12 -6 23 -17l276 90l19 -39l-234 -159v-13q0 -10 -2 -14l215 -199l-22 -34l-258 118q-10 -8 -27 -14l-61 -274l-41 4l-41 286q-16 8 -25 15l-260 -96l-18 36l219 170v27l-197 190l23 35z" />
<glyph unicode="+" horiz-adv-x="1331" d="M1180 567l10 -22l-27 -86q-61 4 -130.5 6t-129.5 4q-70 2 -139 2v-471h-189q6 90 9.5 174t7.5 150q2 78 4 145q-70 0 -143 -2q-63 -2 -143.5 -5t-159.5 -7l-13 22l53 90h406q0 76 -2 154q-2 66 -6 144.5t-13 150.5l177 24l28 -8l-16 -465h416z" />
<glyph unicode="," horiz-adv-x="491" d="M254 264q31 0 54.5 -16.5t40 -41t25.5 -54t9 -56.5q0 -61 -26.5 -118.5t-68.5 -105.5t-95.5 -86t-106.5 -58l-41 47q29 14 60.5 37.5t57 53.5t42 61.5t16.5 62.5q0 41 -24.5 81t-71.5 54q0 57 41 98t88 41z" />
<glyph unicode="-" horiz-adv-x="659" d="M569 477l-456 -39l-15 17l15 135l456 18v-131z" />
<glyph unicode="." horiz-adv-x="499" d="M250 -25q-53 0 -91 38t-38 91q0 55 38 93.5t91 38.5q55 0 93 -38t38 -94q0 -53 -38 -91t-93 -38z" />
<glyph unicode="/" horiz-adv-x="950" d="M0 -408l815 1899h117l18 -27l-171 -362l-187 -416l-182 -416l-157 -362l-111 -257l-42 -97z" />
<glyph unicode="0" horiz-adv-x="1183" d="M594 954q109 0 198 -33.5t153.5 -96t99 -151.5t34.5 -198t-39 -201t-105.5 -159.5t-155.5 -105.5t-191 -38q-96 0 -184.5 36t-158 100.5t-110.5 153.5t-41 198t38 200t104.5 156.5t157.5 102t200 36.5zM920 455q0 90 -27 162.5t-71 125t-103.5 80t-126.5 27.5 q-68 0 -127 -26.5t-103.5 -74t-69 -115t-24.5 -149.5q0 -90 27 -165.5t73 -130t105 -84t127 -29.5q74 0 133.5 29.5t100 82t63.5 121t23 146.5z" />
<glyph unicode="1" horiz-adv-x="778" d="M571 936q-23 -39 -32 -80t-13 -123q-4 -80 -6 -167t-2 -173q0 -41 1 -85t2 -81t4 -62.5t10 -33.5q20 -29 77.5 -47t169.5 -29l-6 -61q-84 4 -172 11t-166 7t-164 -7t-190 -9l-6 55q119 16 178 40t80 44q6 6 12 37t9 74t5.5 92t2.5 96q0 49 -1.5 99.5t-3.5 92.5t-5 69.5 t-7 33.5q-18 23 -86 23h-34q-23 0 -48 -1l-53 -2q-27 -1 -47 -4l-6 62q113 25 197.5 53.5t142.5 54.5q68 29 114 60z" />
<glyph unicode="2" horiz-adv-x="942" d="M418 348q53 66 91 140.5t38 152.5q0 49 -17.5 84t-44 58.5t-60.5 34.5t-67 11q-61 0 -125.5 -39.5t-111.5 -107.5l-45 57q47 78 108.5 120t118.5 61q68 23 135 24q45 0 97.5 -15.5t95.5 -47t71.5 -79.5t28.5 -112q0 -61 -20.5 -117.5t-69.5 -119t-131 -136t-203 -165.5 l2 -17q51 2 115 4l122 4q60 2 105 5.5t60 5.5q20 4 40.5 20t38 39t31 49.5t21.5 48.5l49 -14q-23 -72 -35 -126l-20 -93q-8 -45 -13 -78q-90 6 -229 6q-125 0 -258 -4t-227 -10l-13 78q80 57 139.5 107t100.5 89q47 45 82 82z" />
<glyph unicode="3" horiz-adv-x="876" d="M80 838q39 31 87 51t94 32.5t85 17.5t62 5q51 0 102 -13t90 -42t63.5 -74t24.5 -106q0 -39 -9 -73t-30.5 -67.5t-57.5 -70.5t-91 -80l6 -21q61 0 114.5 -20.5t93.5 -59t62.5 -92t22.5 -116.5q0 -90 -39 -168t-98.5 -140.5t-133 -110.5t-141.5 -75q-57 -23 -110.5 -32 t-96.5 -9q-27 0 -53.5 8t-48 21.5t-35.5 33t-14 44.5q0 41 29.5 72.5t60.5 31.5h10q16 -41 40 -62.5t47.5 -33t40.5 -13.5t24 -2q59 0 119.5 32t108.5 87t77.5 131t29.5 162q0 96 -54 146.5t-132 50.5q-18 0 -67.5 -11.5t-114.5 -58.5l-43 45q23 33 49.5 55.5t50.5 38.5 q29 18 57 31q90 94 125 160.5t35 140.5q0 41 -15 74t-40 55.5t-55.5 33.5t-61.5 11q-39 0 -76.5 -18.5t-68.5 -44t-54.5 -55t-31.5 -50.5l-23 2z" />
<glyph unicode="4" d="M745 934v-799q63 0 102.5 3t63 13.5t37 33t25.5 63.5l47 -8q0 -14 -6 -48t-15 -71l-18 -67q-8 -31 -14 -42h-222v-428h-178l8 174q3 78 5 136q2 68 2 118h-547l-21 80l-2 45q152 236 294.5 436.5t289.5 374.5zM127 139q18 -2 51 -3t76 -2t92 -1h103h137l4 164 q2 84 3 159.5t2 139t1 104.5v48l-18 2q-111 -129 -225 -282l-226 -308v-21z" />
<glyph unicode="5" horiz-adv-x="839" d="M227 918q117 -6 192 -8.5t118 -2.5q82 0 119.5 9.5t62.5 48.5l43 -7q-12 -59 -22.5 -97t-18.5 -60q-8 -25 -14 -39h-435l-67 -230l16 -20q63 4 102 5t74 1q70 0 129.5 -24.5t100.5 -67.5t64.5 -102.5t23.5 -126.5q0 -100 -34 -184.5t-89 -152t-127 -117.5t-147.5 -86 t-150.5 -57.5t-134 -27.5l-13 74q113 14 207.5 60t164 112.5t108.5 150.5t39 176q0 94 -42 147.5t-102 80.5q-47 20 -109.5 26.5t-127.5 6.5l-47 26l82 475z" />
<glyph unicode="6" d="M862 1284q-111 -43 -215 -111.5t-185 -166t-130 -228.5t-49 -301q0 -104 22.5 -183t62.5 -131t91 -79t110 -27q43 0 84 18.5t73 56.5t51.5 97.5t19.5 141.5t-28 136t-67.5 86t-88 44t-87.5 12q-29 0 -56.5 -2t-43.5 -8l-10 51q59 25 98 37t64 18q29 8 45 9 q70 0 131 -23.5t106 -66.5t71.5 -105.5t26.5 -140.5q0 -111 -32.5 -194t-89 -138t-134 -84t-165.5 -29q-78 0 -157 31t-142.5 92.5t-103.5 152.5t-40 210q0 129 36 239.5t96.5 202.5t138 166t161.5 129t167 92t155 55z" />
<glyph unicode="7" horiz-adv-x="860" d="M864 874q-129 -332 -232.5 -573.5t-180.5 -400.5q-90 -188 -162 -316h-144l-8 35q55 74 112.5 166t126 221t149.5 303l184 410l-11 26q-31 2 -80 2.5t-75 0.5q-82 0 -144.5 -3.5t-105.5 -7.5q-51 -4 -88 -8q-20 -4 -41 -20q-16 -14 -35.5 -45t-32.5 -84l-51 8l55 325h752 z" />
<glyph unicode="8" horiz-adv-x="966" d="M590 727q92 -66 148.5 -123t87 -110.5t42 -101.5t11.5 -91q0 -92 -38 -156.5t-95.5 -106.5t-126 -60.5t-130.5 -18.5q-86 0 -157.5 23.5t-124.5 67.5t-83 105.5t-30 135.5q0 96 66.5 201.5t214.5 191.5q-63 55 -104.5 103.5t-65 90.5t-32.5 77.5t-9 68.5q0 82 31.5 143.5 t81 101.5t109.5 59.5t116 19.5q74 0 134 -21.5t105 -58.5t70 -85t25 -102q0 -82 -55.5 -175t-190.5 -179zM309 1081q0 -66 51.5 -139.5t171.5 -171.5q94 72 125 148.5t31 152.5q0 45 -16.5 81t-43 61.5t-60 39t-68.5 13.5q-84 0 -137.5 -52.5t-53.5 -132.5zM492 45 q45 0 85.5 14.5t72.5 40t50.5 63.5t18.5 85q0 70 -53.5 155.5t-196.5 196.5l-41 33q-100 -76 -137 -161t-37 -175q0 -66 22.5 -113t57.5 -77.5t77 -46t81 -15.5z" />
<glyph unicode="9" d="M63 489q0 113 41 199t104.5 143.5t141.5 87t152 29.5q94 0 177 -37t145.5 -102.5t99.5 -154.5t37 -191q0 -143 -39 -263t-100.5 -216.5t-139.5 -170t-157 -128t-150.5 -88t-120.5 -50.5l-27 56q115 55 214.5 124.5t172 165t114.5 220.5t42 286q0 129 -24.5 218.5 t-65.5 143.5t-93 78.5t-108 24.5q-43 0 -86 -18.5t-76.5 -56t-54 -98t-20.5 -144.5q0 -88 23.5 -149.5t61.5 -100.5t86 -57.5t99 -18.5q35 0 64.5 8.5t64.5 26.5l12 -57q-90 -45 -147 -57.5t-105 -12.5q-70 0 -131 25.5t-107 71.5t-73 112.5t-27 150.5z" />
<glyph unicode=":" horiz-adv-x="624" d="M332 -14q-45 0 -76 31.5t-31 76.5t31 77t76 32q47 0 77.5 -32t30.5 -77t-30.5 -76.5t-77.5 -31.5zM332 627q-47 0 -81 33.5t-34 80.5t34 81t81 34t80.5 -34t33.5 -81t-33.5 -80.5t-80.5 -33.5z" />
<glyph unicode=";" horiz-adv-x="624" d="M309 475q-41 0 -70.5 30t-29.5 70q0 41 29.5 71t70.5 30t72 -30t31 -71t-31 -70.5t-72 -29.5zM352 264q47 0 87 -54t40 -153q0 -49 -29.5 -99t-73.5 -95t-97.5 -81t-100.5 -54l-41 47q29 14 62.5 38.5t62.5 53.5t47.5 61.5t18.5 63.5q0 41 -32 80t-79 53q0 29 12.5 54.5 t32 44t43.5 29.5t47 11z" />
<glyph unicode="&#x3c;" horiz-adv-x="1331" d="M1155 944l33 -70l-746 -366v-16l746 -433l-33 -69l-1073 467v35z" />
<glyph unicode="=" horiz-adv-x="1589" d="M856 260l-56 -1q-55 -1 -149 -3t-217 -7t-258 -13l-14 32l61 117h1194l-24 -139q-70 6 -163 8t-176 3t-112 1zM1393 637q-72 4 -163 6l-175 4q-98 2 -199 2q-94 -2 -205 -4q-94 -4 -217 -7t-258 -13l-14 28l61 113h1194z" />
<glyph unicode="&#x3e;" horiz-adv-x="1331" d="M180 -10l-33 69l752 377v13l-752 425l33 70l1071 -459v-34z" />
<glyph unicode="?" horiz-adv-x="696" d="M274 1378q76 0 156 -29.5t145.5 -85t108.5 -132t43 -170.5q0 -137 -61 -201q-29 -31 -71 -56.5t-86 -48.5l-83 -43q-39 -20 -57 -39q-6 -8 -12.5 -23t-6.5 -44q0 -16 2 -35.5t10 -42.5l-55 -14q-27 59 -41 101t-20 67q-8 29 -8 45t20.5 42.5t58.5 47.5q16 8 61 25l96 37 q50 20 96 42.5t65 44.5q10 10 12 26.5t2 35.5q0 53 -25.5 94t-62.5 78q-59 59 -120.5 76.5t-125.5 17.5q-41 0 -70.5 -9t-62.5 -28q-12 4 -21 21.5t-9 42.5t10 53.5t26.5 51t38.5 37.5t47 15zM338 -20q-51 0 -86 34.5t-35 83.5q0 51 35 86t86 35q49 0 84 -34.5t35 -86.5 q0 -49 -35 -83.5t-84 -34.5z" />
<glyph unicode="@" horiz-adv-x="1851" d="M1069 205q2 41 2 102v119q0 12 -12 12q-2 0 -10 -4q-76 -47 -144.5 -79.5t-99.5 -75.5q-10 -16 -14.5 -35t-4.5 -41q0 -53 33 -85t80 -32q29 0 55.5 12.5t49 30.5t40 39t25.5 37zM1499 1106q59 -47 104.5 -110.5t75 -135.5t44 -149.5t14.5 -153.5q0 -143 -48.5 -251.5 t-121 -181.5t-156.5 -110t-156 -37q-16 0 -40.5 2.5t-52 15.5t-52.5 40.5t-39 77.5h-10q-8 -8 -35 -30t-63.5 -45.5t-76.5 -40.5t-77 -17q-31 0 -65.5 13t-62.5 39.5t-46.5 64.5t-18.5 87q0 37 16.5 77t69.5 77q20 14 60.5 31.5l88.5 36.5l99 40l99 43q14 8 17 17.5t3 46.5 q0 43 -5 90t-24 74q-18 27 -53 50.5t-94 23.5q-57 0 -80 -25q-16 -16 -22.5 -38.5t-11.5 -42t-13 -33t-25 -13.5q-20 0 -42.5 8t-42 21.5t-32 32t-12.5 36.5t43 43t104.5 45.5t128 34.5t111.5 14q57 0 117 -29.5t90 -76.5q20 -31 24.5 -71t4.5 -83q0 -74 -2 -145.5 t-2 -169.5q0 -61 1 -100t5 -66q6 -43 26.5 -54t55.5 -11q59 0 112.5 30.5t93.5 92t63.5 151.5t23.5 207q0 150 -40 275.5t-138 213.5q-94 86 -209 130t-250 44q-145 0 -274.5 -55t-226.5 -152.5t-153.5 -227.5t-56.5 -279q0 -176 52.5 -321.5t146.5 -250t227 -162t295 -57.5 q74 0 136.5 7t119.5 23.5t113.5 42t115.5 62.5l31 -45q-53 -45 -124.5 -78.5t-145.5 -55t-143.5 -32t-118.5 -10.5q-184 0 -338 67.5t-265.5 182.5t-173 268.5t-61.5 325.5t66.5 320.5t180.5 258t266.5 172t324.5 62.5q315 0 530 -172z" />
<glyph unicode="A" horiz-adv-x="1425" d="M483 -6q-59 4 -109 7t-89 5q-45 2 -84 2q-37 0 -74 -2q-31 -2 -65.5 -5t-61.5 -7l-8 59q23 4 42 13l36 16q18 8 34 18q29 18 59 61.5t54 98.5l35 90q24 64 68 192l114 330l172 504l199 27l135 -389l106 -299l84 -221l60 -156q59 -150 86 -193q18 -23 41 -41 q20 -16 47 -31.5t61 -19.5l-8 -59q-59 4 -109.5 7t-88.5 5q-45 2 -84 2t-82 -2q-37 -2 -84 -5t-99 -7l-4 57q55 8 90 19.5t54.5 25t25.5 27.5t6 29q0 16 -6 41.5t-19 66.5t-35 100l-52 144q-47 4 -122 6t-153 2q-82 0 -150.5 -2t-103.5 -6q-31 -84 -51 -144.5t-31.5 -102.5 t-16.5 -67.5t-5 -39.5q0 -10 5 -24.5t25.5 -28t57.5 -26t102 -20.5zM455 623q29 -2 61.5 -3.5t63.5 -1.5h71h74q33 0 74 1.5t82 3.5v2l4 12l-209 543h-23l-78 -195l-65 -174q-35 -92 -61 -174z" />
<glyph unicode="B" horiz-adv-x="1284" d="M1114 1055q0 -55 -24.5 -103.5t-63.5 -88.5t-85 -69.5t-91 -48.5v-14q66 -16 129 -51t113.5 -85t81 -113.5t30.5 -137.5q0 -98 -52 -175t-142 -124q-25 -12 -63 -22.5t-79 -16.5t-82 -10t-73 -4q-104 0 -194.5 5t-160.5 5q-29 0 -101.5 -1t-168.5 -7l-6 55q53 8 87 20.5 t53.5 27t28.5 28.5t11 27q4 27 7 84t5 133.5t3.5 166t1.5 181.5t-1.5 179t-2.5 156.5t-4 115.5t-5 59q0 2 -6 11t-24.5 20.5t-51 21.5t-88.5 14l4 54q119 8 221.5 13t180.5 8t126 3h60q98 0 179 -24.5t139 -71.5q51 -43 79.5 -99t28.5 -122zM991 358q0 113 -50 189t-142 106 q-51 16 -105.5 22.5t-101.5 6.5q-45 0 -80 -3t-51 -5v-66q0 -84 1 -158.5t3 -134t5 -98.5t5 -51q8 -37 26.5 -54.5t43.5 -25.5q27 -8 52.5 -12t59.5 -4q33 0 78 4t76 14q92 31 136 107.5t44 162.5zM709 758q92 14 153.5 87t63.5 189v4q0 47 -16.5 92.5t-47.5 81t-77 59 t-105 27.5q-16 2 -31 2h-31q-47 0 -82.5 -4t-50.5 -8q-6 -12 -10 -61t-7 -123t-5 -165t-2 -185q10 -2 43 -3t74 -1q35 0 68.5 2t62.5 6z" />
<glyph unicode="C" horiz-adv-x="1511" d="M1325 1018q-25 143 -156 219t-327 76q-84 0 -161 -21.5t-143.5 -62.5t-117.5 -102.5t-84 -143.5q-23 -59 -33 -122.5t-10 -129.5q0 -160 56.5 -308.5t162.5 -240.5q74 -63 168 -97t211 -34q68 0 131 11.5t119.5 45t103.5 95t82 162.5l51 -15q-16 -90 -28 -145l-18 -86 q-7 -31 -11 -41l-4 -10q-98 -57 -212 -86t-235 -29q-152 0 -298 47t-263 150q-111 94 -177 231t-66 328q0 111 34.5 208t94 179t137.5 143t166 98t188 52.5t193 15.5q70 0 147 -8q66 -6 151 -20.5t175 -41.5q18 -162 24 -235q4 -45 4 -74z" />
<glyph unicode="D" horiz-adv-x="1642" d="M485 1194q-4 -68 -7 -183.5t-3 -244.5v-82q0 -190 4 -324.5t15 -175.5q10 -35 31.5 -55t47.5 -31q29 -10 84.5 -15t112.5 -5q162 0 273.5 46t181 124t100.5 181t31 218q0 131 -31 249t-129 212q-84 80 -203 128t-268 48q-33 0 -98.5 -3t-134.5 -17q-2 -14 -3.5 -25.5 t-1.5 -21.5q-2 -11 -2 -23zM805 -10q-88 0 -193.5 7t-199.5 7q-27 0 -69 -1t-85 -3t-80 -3t-55 -3l-6 55q41 4 70.5 20.5t50.5 32.5q23 20 36 43q4 8 7.5 44t5.5 92.5t3 128t1 149.5q0 106 -1 217t-4 203t-6.5 154.5t-5.5 74.5q0 2 -7 14.5t-27.5 27t-58.5 27.5t-99 17l2 54 q76 6 159 10l164 8q80 4 157 6t143 2q86 0 165.5 -7t139.5 -19q135 -27 238.5 -93.5t174 -156.5t107.5 -195.5t37 -212.5q0 -174 -61.5 -305t-167 -219t-243.5 -132t-292 -44z" />
<glyph unicode="E" horiz-adv-x="1318" d="M958 487q-6 45 -21 77t-35.5 51.5t-43 29.5t-47.5 14q-47 6 -118.5 7.5t-137.5 1.5h-104v-159q0 -79 2 -146.5t4 -121t6 -83.5q4 -35 29.5 -43.5t60.5 -12.5q47 -6 109.5 -9t123.5 -3q66 0 120.5 4t72.5 12q63 29 118.5 93.5t86.5 150.5l61 -10v2q-18 -98 -35 -160 l-26 -104q-14 -47 -25 -74q-51 -4 -107.5 -6t-127.5 -2q-41 0 -113 1t-151.5 3t-158.5 3t-136 1q-25 0 -62 -1t-76 -3t-73.5 -3t-55.5 -3q-2 12 -4 22t-2 19v14q47 12 77 25.5t48.5 29t25.5 34t11 44.5l5 81q3 50 4 112.5t2 135.5t1 148v151q0 75 -1 141.5t-3 120.5t-4 89 q-2 31 -9 52.5t-25.5 38t-52.5 28.5t-89 23l6 53q39 -4 120 -6t161 -2q59 0 135 1t150.5 3t139 3t101.5 1q117 0 250 -6l35 -320l-56 -6q-25 92 -68.5 158.5t-119.5 74.5q-41 4 -99.5 5.5t-117.5 1.5q-43 0 -85 -1t-77 -2t-59.5 -2.5t-32.5 -3.5q-4 -14 -6 -54t-4 -96 t-3 -127t-1 -144v-91h27q28 0 69 1t91 2.5t95 3.5t79 5t46 7q18 6 32.5 13t27 21.5t23.5 38t26 62.5l49 -6q-10 -55 -15.5 -107.5t-5.5 -103.5q0 -45 4.5 -91t12.5 -95z" />
<glyph unicode="F" horiz-adv-x="1214" d="M465 1249q-4 -10 -7 -48t-4 -93t-2 -125t-1 -143v-117h73h94q50 0 96 2t83 4t49 6q20 6 43 23q18 14 36.5 38.5t30.5 65.5l50 -6q-14 -94 -19 -143q-2 -29 -2 -47q0 -25 2 -56q2 -29 5 -66.5t9 -84.5l-53 -6q-6 53 -24.5 85.5t-38.5 51.5q-23 23 -51 31q-16 4 -44 7 t-63 4t-75 2t-77 1h-69q-33 0 -55 -2q0 -72 1 -139.5t3 -127t3 -106.5t5 -76q2 -27 10 -47t29.5 -35.5t61.5 -27t108 -19.5l-6 -61q-86 6 -160 9t-146 3q-131 0 -262 -12l-6 55q55 10 87 23.5t48.5 30t21.5 36t7 39.5q6 59 8 183t2 270q0 152 -2 294t-6 226q-2 33 -8 55.5 t-24.5 40t-52.5 30.5t-89 26l6 53q63 -4 107.5 -5t75 -2t52.5 -1h40q55 0 129.5 1t148.5 3t140.5 3t107.5 1h63q29 0 64 -1t72 -3l59 -330l-55 -12q-8 31 -25.5 70.5t-42.5 76.5t-56.5 65.5t-70.5 34.5q-16 2 -45 3.5t-68 1.5q-47 0 -99 -1t-98 -4l-80 -4q-34 -2 -44 -4z " />
<glyph unicode="G" horiz-adv-x="1527" d="M1335 39q-23 -4 -56 -12l-69 -15q-39 -8 -82 -20q-55 -14 -121.5 -26.5t-154.5 -12.5q-139 0 -278.5 45t-253 138t-184 235.5t-70.5 337.5q0 111 34.5 208t93 179t136.5 143t164 98t185 52.5t191 15.5q74 0 154 -8q68 -6 152 -20.5t167 -41.5q18 -162 25 -235 q4 -45 6 -74l-55 -10q-29 147 -148.5 222t-322.5 75q-109 0 -208 -36t-177 -107.5t-124 -182t-46 -260.5q0 -156 43 -280.5t123 -213t191.5 -135.5t248.5 -47q27 0 64.5 6t74.5 17.5t64.5 25t36.5 29.5q10 23 14 55.5t4 67.5q0 74 -9 130t-26 89q-14 29 -69.5 48.5 t-132.5 35.5l6 55q82 -6 144.5 -8t103.5 -4q49 -2 83 -2q33 0 70 2q31 2 70 4t80 8v-59q-76 -18 -102.5 -46t-31.5 -63q-4 -25 -4 -64v-83q0 -63 2 -127t9 -102z" />
<glyph unicode="H" horiz-adv-x="1720" d="M1630 -6q-63 4 -113.5 5t-84.5 3q-41 2 -72 2q-33 0 -72 -2q-35 -2 -83 -3t-109 -5l-6 55q55 14 87.5 27.5t49 31t22.5 42t8 63.5q4 72 6.5 190.5t2.5 251.5q-23 2 -70 3t-107.5 3.5t-129 3.5t-136.5 1q-66 0 -125 -1t-108 -3.5t-84 -4.5t-53 -4q0 -70 1 -137t3 -126.5 t3 -110t5 -82.5q2 -29 8 -51.5t23.5 -40t52.5 -30t94 -20.5l-6 -61q-63 4 -113.5 5t-85.5 3q-41 2 -73 2q-33 0 -72 -2q-35 -2 -84 -3t-111 -5l-6 55q53 12 85 26.5t49.5 33t23.5 42t8 56.5q4 57 6 149.5t2 202.5q0 90 -1 184.5t-2 177.5t-3 150.5t-4 104.5q-4 68 -44 90 t-128 41l6 53q66 -6 119 -8t90 -4q43 -2 76 -2q35 0 74 2q35 2 79.5 4t98.5 8l6 -53q-47 -12 -79 -23.5t-50.5 -28t-27.5 -39t-11 -55.5q-6 -53 -8 -157.5t-4 -233.5q39 -2 168 -4t358 -2q115 0 185.5 2t99.5 4q-2 135 -3 238.5t-6 162.5q-4 33 -11 53.5t-26.5 35t-52 24.5 t-84.5 23l6 53q113 -10 176.5 -11t100.5 -1q59 0 118.5 2t139.5 10l6 -53q-49 -14 -79.5 -25.5t-49 -26t-28 -35t-13.5 -51.5q-8 -72 -9 -196.5t-1 -265.5v-144q0 -71 1 -136t3 -120t4 -94t7 -64.5t23.5 -43t53.5 -28.5t96 -22z" />
<glyph unicode="I" horiz-adv-x="724" d="M633 -4q-78 4 -150 6q-73 2 -145 2q-66 0 -127 -2t-121 -6l-6 55q53 8 85 21.5t49.5 31t23.5 37t8 41.5l5 90q3 54 4 121.5t2 144t1 154.5q0 147 -2 273.5t-8 197.5q-2 33 -9 54.5t-25.5 37t-51.5 26.5t-84 24l6 53q78 -8 140.5 -10t123.5 -2t126 2t151 10l6 -55 q-53 -10 -86 -22.5t-50.5 -28t-24.5 -37t-9 -48.5q-4 -37 -6 -95t-3 -130t-2 -152.5t-1 -162.5q0 -141 3 -262t7 -185q2 -31 9 -50t25.5 -32.5t52.5 -22.5t89 -18z" />
<glyph unicode="J" horiz-adv-x="786" d="M705 1305q-55 -16 -86 -29.5t-46.5 -33t-20.5 -49.5t-7 -79q-2 -41 -2 -90v-104q0 -186 6 -381t6 -359q0 -109 -35 -203t-99.5 -172.5t-154.5 -141t-200 -107.5l-33 57q82 39 139 89t93 109.5t54.5 127t24.5 145.5q10 109 11 224.5t1 234.5v152q0 79 -2 155t-4 142.5 t-6 115.5q-4 53 -12 84t-28.5 51.5t-57.5 32.5t-101 29l7 53q80 -8 151.5 -11.5t138.5 -3.5q68 0 129.5 3.5t126.5 11.5z" />
<glyph unicode="K" horiz-adv-x="1497" d="M1481 -6q-66 4 -118 5t-87 3q-43 2 -74 2q-33 0 -76 -2q-37 -2 -89 -3t-117 -5l-7 55q61 10 83 25.5t22 25.5q0 14 -12 31q-16 27 -57 76l-90 107l-105 119l-101 111l-81 84q-33 34 -42 38q-8 4 -28 4q-14 0 -28.5 -2t-24.5 -6q0 -244 7 -369t23 -164q10 -16 47 -43 t115 -31l-6 -61q-63 4 -113.5 5t-85.5 3q-41 2 -76 2q-33 0 -73 -2q-35 -2 -83 -3t-108 -5l-6 55q63 8 99 35t51 45q6 8 11 28.5t8 80t5 173t2 308.5q0 92 -2 179t-5 156.5t-7 114.5t-8 54q-10 16 -45 41.5t-117 40.5l6 53q47 -6 122 -9t146 -3q66 0 141.5 2t127.5 8l6 -53 q-72 -16 -105.5 -41t-46.5 -41q-10 -10 -15 -46t-9 -90.5t-5 -123t-1 -146.5v-76h16q14 4 34.5 12.5t41.5 20.5q51 33 116.5 92.5t126 125t108.5 125t66 89.5q8 16 9 29q0 18 -13 31q-12 8 -30 16q-16 6 -40 12t-59 11l6 53q100 -8 169 -10.5t98 -2.5q16 0 83.5 2.5 t192.5 12.5l6 -53q-29 -4 -58.5 -11.5t-51.5 -15.5q-27 -8 -53 -21q-23 -10 -64 -36.5t-82 -61.5q-74 -66 -138.5 -143.5t-137.5 -138.5q-12 -12 -29 -27l-35 -29l-43 -35v-18q10 -10 30.5 -28.5t43.5 -41.5l82 -90l98 -106l104 -112l99 -105l84 -87q37 -38 57 -55 q31 -25 64 -45q29 -16 63.5 -30.5t73.5 -14.5z" />
<glyph unicode="L" horiz-adv-x="1316" d="M1212 4q-66 -4 -148.5 -6t-189.5 -2q-43 0 -105 1t-131 3t-138.5 3t-124.5 1q-74 0 -141.5 -3t-137.5 -7l-6 55q51 12 83 26.5t49.5 34t24.5 44t9 57.5q2 37 4 92t3 119.5t2 136.5t1 146q0 61 -1 123l-2 122q-1 60 -4 112t-5 91q-4 39 -10 62.5t-24.5 39t-51.5 26.5 t-86 24l6 53q59 -8 135 -11.5t154 -3.5t153.5 3.5t139.5 11.5l6 -53q-68 -16 -109 -28.5t-63.5 -28t-30.5 -38t-10 -55.5q-6 -70 -9 -192.5t-3 -260.5q0 -78 1 -154.5t2 -144t3 -122t6 -84.5q6 -61 53 -78q29 -10 91.5 -14.5t135.5 -4.5q125 0 200 6.5t122 36.5 q45 31 92 89.5t117 173.5l59 -19z" />
<glyph unicode="M" horiz-adv-x="2060" d="M1792 164q4 -27 20.5 -44.5t42 -30.5t57.5 -21.5t66 -16.5l-6 -55q-66 6 -139.5 8t-146.5 2q-74 0 -142.5 -2t-128.5 -8l-6 57q82 10 116 36t44 40q10 16 12 52t2 102q0 82 -2 195.5t-6 231.5l-8 228q-4 111 -8 190l-13 5l-549 -1156l-55 -2l-516 1162l-14 -2l-11 -195 l-12 -244t-10 -246.5t-4 -199.5q0 -43 2 -75t14 -50t52 -42t120 -30l-6 -57q-41 4 -104.5 7t-130.5 3q-74 0 -141.5 -3t-108.5 -7l-6 55q41 4 69.5 20.5t48.5 32.5q23 20 39 43q6 10 13.5 64.5t14.5 135.5l15 181q8 101 17 203q10 135 16 253t6 181q0 25 -3 43.5t-21.5 36 t-57.5 31.5t-108 29l6 53q47 -4 112.5 -7t135.5 -3q53 0 102 1t90 5q29 -84 88 -230l137 -331l224 -517h20l67 145l86 190l94 211l92 208l80 184q36 84 56 136q35 -2 77 -3t89 -1q121 0 248 12l6 -55q-74 -12 -115 -34t-51 -38t-11 -35.5t-1 -60.5q0 -57 2 -143.5t6 -184.5 l8 -199q4 -102 9.5 -191t10.5 -156.5t9 -96.5z" />
<glyph unicode="N" horiz-adv-x="1736" d="M76 1356q51 -4 106.5 -7t110.5 -3q84 0 156 6l903 -1049l16 4v395q0 182 -1 287t-5 158q-4 41 -13.5 66.5t-31 41t-59 23.5t-95.5 16l6 62q59 -4 123 -7t129 -3q66 0 127.5 3t116.5 7l6 -56q-49 -12 -80.5 -24t-50 -28.5t-28 -42t-11.5 -62.5q-4 -43 -7 -124t-6 -216 t-5 -335t-2 -480l-99 -17l-981 1137l-14 -6q-2 -98 -2 -179v-153q0 -141 1 -242.5t3 -171t4 -110.5t6 -66q4 -33 15.5 -52t34 -32.5t57.5 -20.5t86 -16l-6 -61q-63 4 -125 6t-123 2q-66 0 -129.5 -2t-120.5 -6l-6 55q47 12 76.5 22.5t48 24t28 34t13.5 50.5q6 41 10 105.5 t6 141.5t3 163t1 170q0 78 -1 149.5t-3 130t-5 99.5t-7 57q-12 49 -64.5 69.5t-117.5 30.5z" />
<glyph unicode="O" horiz-adv-x="1619" d="M66 688q0 160 56 293t155.5 227.5t238.5 146.5t305 52q162 0 295 -51t228.5 -144.5t148.5 -224.5t53 -289q0 -162 -57 -299t-157.5 -237.5t-234.5 -156.5t-290 -56q-145 0 -279.5 55t-237 153.5t-163.5 233.5t-61 297zM492 1217q-96 -76 -150.5 -200t-54.5 -288 q0 -156 44 -283t119.5 -216t176 -137t213.5 -48q109 0 201 44t158.5 125t103 193.5t36.5 249.5q0 195 -71.5 341.5t-190.5 226.5q-66 43 -139.5 66.5t-153.5 23.5q-169 0 -292 -98z" />
<glyph unicode="P" horiz-adv-x="1202" d="M537 635q12 -4 25 -4h28q59 0 116.5 10t108.5 43q68 43 99.5 122t31.5 175q0 57 -18.5 117.5t-61.5 103.5q-41 41 -96 68.5t-129 27.5q-47 0 -98 -5t-74 -9q-4 -23 -8 -92.5t-7 -167.5t-5.5 -215t-2.5 -231v-158q0 -76 2.5 -135.5t7.5 -101.5t13 -56q10 -18 49 -41 t139 -29l-8 -61q-51 4 -119.5 8t-142.5 4q-80 0 -158 -5l-141 -9l-6 55q78 10 108.5 30.5t45.5 39.5q8 10 13 69.5t8 144.5t4 185t1 193q0 150 -2 274.5t-8 190.5q-4 57 -37 79.5t-133 38.5l4 54q152 10 248 15l157 8q62 3 99 3h67q143 0 238.5 -37t152 -92t79 -119.5 t22.5 -119.5q0 -115 -46 -198t-118 -138.5t-157 -82t-162 -26.5q-33 0 -74 6t-64 17z" />
<glyph unicode="Q" horiz-adv-x="1669" d="M2144 -254q-53 -31 -106 -46t-94 -24q-49 -8 -95 -10q-92 0 -176 16.5t-160 55.5l-102 51l-148 73l-147 70l-96 45q-104 -29 -213 -28q-145 0 -279.5 55t-237 153.5t-163.5 233.5t-61 297q0 160 55 293t154.5 227.5t237.5 146.5t304 52t300 -50t229.5 -143.5 t147.5 -224.5t52 -291q0 -205 -89 -367.5t-238 -260.5l2 -15q25 -4 39 -8t36 -12q33 -12 138 -57l313 -140q98 -45 174 -52t104 -7q25 0 52.5 2t52.5 10zM836 45q111 0 202.5 44t158.5 124t104.5 192.5t37.5 251.5q0 152 -44 274t-119.5 207t-177 131t-214.5 46 q-109 0 -200.5 -42t-158.5 -120t-103.5 -187.5t-36.5 -244.5q0 -162 48 -294t144 -228q72 -72 163.5 -113t195.5 -41z" />
<glyph unicode="R" horiz-adv-x="1523" d="M920 999q0 70 -27 135.5t-86 106.5q-33 23 -77 33t-91 10t-97 -4t-73 -8q-4 -12 -8 -71.5t-7 -145.5t-4 -190.5t-1 -209.5h57q35 0 72.5 1t75.5 3.5t65 4.5q82 43 140.5 129.5t60.5 205.5zM1554 -2q-25 -8 -55.5 -12t-58.5 -6q-33 -2 -66 -3q-43 0 -90 6.5t-99 28 t-107.5 61.5t-112.5 105l-72 84l-91 107l-83 97l-45 54q-35 41 -72 50.5t-72 9.5q-23 0 -45 -1t-36 -6q0 -80 1 -154.5t3 -135t6 -102.5t12 -56q10 -16 48 -41t124 -29l-8 -61q-63 4 -131 7t-135 3q-72 0 -141.5 -3t-135.5 -7l-6 55q72 10 107.5 32.5t46.5 39.5 q6 10 11 70.5t7 149.5t3 196.5t1 212.5q0 129 -3 242.5t-7 176.5q-2 33 -9 52.5t-24.5 32t-50.5 20.5l-86 20l2 54q147 8 248.5 12t169 6t105.5 2h61q72 0 149.5 -11t130.5 -40q176 -96 176 -285q0 -61 -29.5 -119.5t-75.5 -110.5t-101.5 -94t-106.5 -71v-12 q41 -29 67.5 -52.5t53.5 -54.5q8 -10 40 -47l69 -82l72 -86q34 -41 48 -55q59 -68 108.5 -107t94.5 -59.5t90 -26.5t100 -6v-51z" />
<glyph unicode="S" horiz-adv-x="1026" d="M889 1061l-60 -6q-12 68 -38.5 117t-65.5 79.5t-87 45t-101 14.5q-104 0 -174 -55.5t-70 -153.5q0 -115 90 -184q72 -55 168 -106.5t182 -113.5q68 -47 109 -93t64.5 -92t30.5 -90t7 -89q0 -59 -27.5 -125t-83 -122t-140.5 -93t-199 -37q-49 0 -107 8q-49 6 -112.5 20.5 t-135.5 43.5q-10 29 -20 73q-10 39 -20.5 97.5t-20.5 144.5l65 14q16 -57 46 -112.5t75 -99.5t108.5 -71.5t149.5 -27.5q53 0 99.5 16.5t80 46t53 68.5t19.5 84q0 63 -29.5 126t-117.5 128q-35 27 -76 54l-83 52l-81 49q-39 23 -70 44q-96 68 -134 152.5t-38 166.5 q0 59 22.5 124t72 117t128 86t193.5 34q92 0 167 -14.5t134 -30.5z" />
<glyph unicode="T" horiz-adv-x="1413" d="M803 1253q-4 -41 -5 -100t-3 -131t-2 -152v-161v-165q0 -81 2 -151.5t3 -127t5 -89.5q2 -25 10 -44t29.5 -34.5t58.5 -26t96 -16.5l-6 -61q-82 6 -153.5 9t-141.5 3q-74 0 -146.5 -3t-152.5 -9l-6 55q63 8 101 21.5t58.5 30t28 38t9.5 45.5q4 41 7 111t4 156t2 183t1 193 q0 133 -2 250t-4 183q-129 0 -223 -6.5t-140 -34.5q-41 -29 -71.5 -89.5t-59.5 -140.5l-57 12q23 84 37 152t22 115q8 55 13 100l24 4l162 -22h932l80 6l16 -10v-361l-59 -4q-12 78 -22.5 129t-34 83t-67.5 45t-124 17q-59 4 -122.5 4.5t-90.5 0.5z" />
<glyph unicode="U" horiz-adv-x="1613" d="M223 434q-2 25 -2 50v55q0 80 3 177t3 189q0 59 -1 114.5t-4 98.5t-6 72t-9 37q-10 16 -44 38.5t-114 37.5l6 53q57 -6 129 -9.5t148 -3.5q72 0 142.5 3.5t129.5 9.5l6 -53q-82 -14 -118.5 -40t-47.5 -42q-8 -14 -13 -65.5t-7 -126.5t-3 -165t-1 -182q0 -55 1 -110.5 t5 -116.5q4 -72 25.5 -141.5t67.5 -124t121 -87t187 -32.5q182 0 291 77q72 51 109 125t49 152q10 72 12 153.5t2 147.5q0 59 -2 140t-7 158t-15.5 136.5t-26.5 75.5t-54 35.5t-118 23.5l6 62q59 -4 125 -7t133 -3q63 0 125 4t115 8l2 -55q-57 -6 -93 -28t-53 -46 q-12 -18 -18 -69.5t-9 -120t-4 -150.5l-2 -162l-2 -154q-1 -73 -6 -124q-4 -47 -11 -97.5t-29 -97.5q-41 -86 -118 -163t-204 -116q-45 -14 -100.5 -21t-110.5 -7q-92 0 -160.5 12t-122.5 31q-90 33 -148 85t-92 113.5t-48.5 125t-18.5 120.5z" />
<glyph unicode="V" horiz-adv-x="1480" d="M768 -43h-82l-148 367l-117 287l-91 219l-68 157q-68 152 -96 209q-18 29 -41 51q-23 20 -53.5 35.5t-71.5 17.5l6 58q66 -8 140.5 -11.5t152.5 -3.5q150 0 301 13l4 -58q-59 -10 -94 -21t-52.5 -25.5t-22.5 -31t-5 -34.5q0 -23 6 -57.5t23.5 -91t46.5 -137.5t74 -195 l10 -28l27 -73l39 -100l43 -108l40 -100l31 -73l16 2q12 27 34 72t44 100l46 108l43 99q20 45 31 73l11 28q49 111 80 191.5t48.5 135.5t23.5 91t6 59q0 20 -5 37.5t-22.5 33t-51.5 26.5t-91 19l6 58q131 -12 250 -13q66 0 128.5 3.5t125.5 11.5l4 -60q-41 -4 -71.5 -20 t-53.5 -37q-25 -23 -43 -51q-33 -57 -102 -209l-73 -157l-98 -216l-128 -286l-160 -367v2z" />
<glyph unicode="W" horiz-adv-x="2154" d="M2167 1356q0 -12 2 -23q0 -10 1 -20t1 -17q-31 -4 -52.5 -9t-40 -16t-36 -28.5t-35.5 -44.5q-10 -14 -34 -70l-57 -138l-75 -186l-83 -209l-82 -210l-73 -189l-55 -146q-22 -60 -30 -79h-91l-136 387l-107 295l-94 256h-17l-403 -938h-109l-146 478l-104 337 q-43 138 -72 219l-46 128q-17 47 -26 66.5t-15 27.5q-14 18 -46 40.5t-106 28.5l10 60q57 -6 106.5 -8t86.5 -5q43 -2 80 -2t82 2l92 4q53 3 118 9l3 -58q-53 -10 -83 -21t-46.5 -27.5t-20.5 -38t-4 -48.5q0 -23 4 -56.5t15.5 -83.5t30 -121t46.5 -169q27 -86 51 -174 l47 -164l48 -164h18l167 382l99 231l58 143q4 12 7 29.5t3 32.5q0 25 -8.5 54.5t-20.5 57t-24.5 49t-20.5 31.5q-16 16 -48 32.5t-85 22.5l4 58q59 -4 108.5 -6t86.5 -5q43 -2 80 -2t81 2q39 2 93.5 4.5t119.5 6.5l7 -58q-61 -8 -96 -19t-53.5 -25.5t-24 -32t-5.5 -35.5 q0 -23 6.5 -56.5t21.5 -84t39 -123.5l58 -172l62 -189l57 -166l55 -153h21l70 192l61 170l59 168q117 328 117 434q0 12 -5 25.5t-22.5 27t-52.5 24.5t-94 15l6 58q92 -6 146.5 -8.5t99.5 -2.5q49 0 116.5 3.5t133.5 9.5z" />
<glyph unicode="X" horiz-adv-x="1415" d="M1407 -6q-59 4 -109 7q-51 3 -90 5q-45 2 -82 2t-88 -2l-106 -5q-64 -3 -141 -7l-5 57q49 4 78 13.5t44.5 20.5t19.5 20.5t4 15.5q0 25 -19.5 71t-52.5 105t-78 130l-96 146h-18l-114 -158q-54 -73 -93 -132.5t-61.5 -100.5t-22.5 -59q0 -16 27.5 -41t111.5 -31l-4 -57 q-66 6 -128 10t-128 4q-57 0 -113.5 -3t-122.5 -11l-8 57q41 6 75 22.5t60 32.5q31 20 58 44q33 33 86 95l111 135l115 145l95 126v19l-79 122l-92 143l-97 141q-49 69 -92 118q-41 41 -88 71.5t-125 37.5l8 59q53 -6 102.5 -8t86.5 -4q43 -2 79 -2q37 0 88 2q43 2 105.5 4 t142.5 8l4 -57q-47 -4 -75.5 -13.5t-44 -20.5t-20.5 -22.5t-5 -17.5q0 -25 16.5 -66t47 -95t71.5 -120l90 -137h23l108 146q49 69 84 123.5t54.5 93t19.5 57.5q0 4 -3 13t-16.5 20.5t-41 21.5t-74.5 17l6 57q51 -6 98 -8t82 -4q41 -2 78 -2t74 2q33 2 71.5 4t73.5 8l6 -59 q-39 -6 -72.5 -22.5t-58.5 -33.5q-31 -20 -55 -43q-29 -29 -77 -86l-101 -124l-107 -139l-96 -126v-12l72 -117l97 -152q52 -79 109.5 -157t108.5 -135q8 -10 26.5 -26.5t46 -33t63.5 -30t81 -15.5z" />
<glyph unicode="Y" horiz-adv-x="1460" d="M1251 1346q39 0 76 2q33 2 71 4t72 8l7 -57q-41 -6 -73 -24.5t-56 -37.5q-29 -23 -52 -49q-35 -43 -94 -127l-125 -179l-128 -191l-105 -160q0 -176 2 -284t12 -126q14 -23 60.5 -41t117.5 -25l-6 -61q-68 4 -121 5t-90 3q-43 2 -76 2t-73 -2q-35 -2 -85 -3t-112 -5 l-6 55q78 4 117 27.5t53 44.5q6 8 9 40t5 81t2 111v130l-56 88l-80 123l-92 141l-94 143l-85 125l-64 91q-23 27 -49 49q-25 18 -58.5 34.5t-74.5 21.5l8 57q63 -6 116.5 -8t94.5 -4q47 -2 84 -2t84 2q41 2 94.5 4t118.5 8l4 -57q-74 -10 -120 -31t-46 -45q0 -57 88 -205 q39 -68 102 -165l156 -236h17q131 199 201.5 317.5t101.5 179.5l26 59q11 25 11 44q0 27 -40 47t-126 35l6 57q53 -6 102.5 -8t85.5 -4q43 -2 82 -2z" />
<glyph unicode="Z" horiz-adv-x="1380" d="M246 1360l108 -8h910l8 -39l-899 -1198q0 -4 1 -11.5t5 -11.5q117 0 224.5 1t194.5 4t148.5 7.5t89.5 12.5q31 8 62.5 35.5t60.5 67.5t52.5 89t39.5 103l64 -15q-29 -213 -49.5 -305t-20.5 -90h-1139l-14 49l891 1194l-4 21q-92 0 -184.5 -2t-171 -5.5t-139 -8.5 t-87.5 -13q-59 -16 -110 -80.5t-99 -163.5l-57 17l96 344z" />
<glyph unicode="[" horiz-adv-x="591" d="M313 -283q12 -16 41 -26q25 -10 72 -18.5t125 -8.5v-57h-404v1825h404v-64q-82 -4 -128 -12t-71 -19q-29 -12 -39 -26q-10 -98 -19 -301t-9 -461q0 -129 4 -255t8 -236.5t9 -200t7 -140.5z" />
<glyph unicode="\" horiz-adv-x="782" d="M782 -446l-42 97l-110 257l-157 362l-182 416l-187 416l-172 362l19 27h117l815 -1899z" />
<glyph unicode="]" horiz-adv-x="591" d="M279 -283q2 51 7 140.5t9 200t8 236.5t4 255q0 258 -9 460.5t-19 301.5q-10 14 -39 26q-25 10 -72 18.5t-127 12.5v64h403v-1825h-403v57q78 0 125 8.5t72 18.5q29 10 41 26z" />
<glyph unicode="^" horiz-adv-x="755" d="M362 1137l-223 -332l-26 14l254 537h41l254 -537l-25 -20z" />
<glyph unicode="_" horiz-adv-x="1331" d="M1227 119l-13 -119q-86 4 -202.5 5t-249.5 1q-166 0 -340 -3t-324 -9l-10 29l39 98z" />
<glyph unicode="`" d="M487 981l-262 291q25 31 58.5 47t64.5 24q37 8 72 11l145 -353z" />
<glyph unicode="a" horiz-adv-x="843" d="M518 438q-4 4 -10 4q-25 -23 -60 -40l-70 -35q-36 -19 -67.5 -37.5t-50.5 -42.5q-14 -18 -18 -36t-4 -36q0 -55 26.5 -92t83.5 -37q29 0 55.5 11.5t48 29.5t39 39.5t27.5 42.5q2 23 3 55.5t1 65.5q0 23 -1 40t-1 33v33zM649 768q18 -29 22.5 -63.5t4.5 -75.5 q0 -72 -2 -147.5t-2 -172.5q0 -63 3 -113.5t9 -66.5q14 -41 53 -41q37 0 76 45l27 -47q-47 -57 -102.5 -79.5t-90.5 -22.5q-41 0 -75.5 36.5t-51.5 96.5h-10q-16 -18 -46 -43t-64.5 -45.5t-70.5 -34.5t-67 -14t-63.5 13t-59 39.5t-44 64.5t-17.5 87q0 35 12 76t62 78 q25 18 66 35l89 34l97 38q51 20 94 49q12 10 16 18t4 18q0 31 -2 63t-6 64q-6 53 -49 93.5t-115 40.5q-59 0 -86 -27q-16 -14 -23.5 -33.5t-13.5 -38t-14 -31t-23 -12.5q-41 0 -71.5 29t-30.5 57q0 18 43 43t102.5 46.5t121 35.5t98.5 14q57 0 114 -29.5t86 -76.5z" />
<glyph unicode="b" horiz-adv-x="1019" d="M731 170q29 41 42 105.5t13 136.5q0 76 -17 139t-51 109.5t-83 72t-113 25.5q-57 0 -113.5 -20.5t-99.5 -59.5q0 -27 -1 -55.5t-2 -64.5t-1 -82v-107q0 -66 1 -111t9 -78q16 -66 71.5 -94.5t121.5 -28.5t126 30t97 83zM324 1442q-6 -115 -8.5 -219.5t-3.5 -192.5 t-2 -156.5t-1 -111.5l13 -4q53 41 100 63.5t83 32.5t58.5 12t28.5 2q92 0 162.5 -36.5t117.5 -102.5q72 -100 72 -244q0 -90 -23.5 -164.5t-63.5 -133t-91 -101.5t-104 -68q-84 -39 -189 -38q-59 0 -120.5 14t-116.5 43l-80 -29l-15 15q4 68 8.5 158.5t6.5 193t3 210 t1 208.5q0 92 -1 173t-2 143t-4 101t-10 47q-10 14 -35.5 28.5t-84.5 31.5v41q82 20 134 36.5t83 28.5q37 14 55 27z" />
<glyph unicode="c" horiz-adv-x="811" d="M565 868q41 -2 77 -8t65 -18q41 -18 50 -27.5t9 -36.5q0 -35 -26.5 -65.5t-55.5 -30.5q-18 0 -32.5 9t-28.5 22l-29 30q-16 17 -39 29q-27 14 -66 14q-47 0 -98 -24.5t-92 -79.5q-35 -47 -50.5 -104.5t-15.5 -116.5q0 -90 31 -171t82 -124q43 -37 88 -52.5t86 -15.5 q72 0 122 35t95 86l33 -49q-74 -84 -149.5 -138.5t-184.5 -54.5q-78 0 -154.5 39t-134.5 121q-29 43 -49 106.5t-20 137.5q0 55 12 112.5t41 114t76 108.5t119 95q51 31 114.5 44t124.5 13z" />
<glyph unicode="d" horiz-adv-x="1028" d="M721 360q0 10 1 35t1 56v66q0 36 -1 70t-1 62v47q-33 51 -94.5 76t-122.5 25q-117 0 -195 -90.5t-78 -251.5q0 -84 21.5 -150.5t56.5 -113t82 -70t101 -23.5q53 0 89.5 17.5t65.5 46.5q47 47 58.5 92t15.5 106zM877 188q6 -18 20 -34q12 -14 36.5 -27.5t65.5 -22.5v-38 q-61 -10 -108 -25.5t-82 -32.5q-39 -18 -68 -37l-24 11v161h-12q-20 -29 -53.5 -58.5t-73 -53t-82.5 -39t-84 -15.5q-49 0 -106.5 21.5t-109 70t-85 124t-33.5 186.5q0 129 44 222t111.5 152.5t147.5 88t151 28.5q47 0 93.5 -9t85.5 -23h10v149q0 51 -1 98.5t-2 85t-5 63.5 t-11 32q-12 12 -43.5 29.5t-91.5 31.5v39q78 16 133.5 31.5t90.5 27.5q39 14 65 27l25 -10q0 -12 -1 -61.5t-2 -125t-2.5 -170t-2.5 -194.5l-2 -202q-1 -101 -1 -189q0 -123 1.5 -209.5t5.5 -102.5z" />
<glyph unicode="e" horiz-adv-x="872" d="M795 514q-51 -10 -112.5 -12t-115.5 -2q-74 0 -146.5 1t-174.5 5q-8 -2 -11.5 -8t-3.5 -29v-33q0 -16 2 -33q8 -70 36 -125t68 -93t88 -58.5t101 -20.5q43 2 86 15q37 10 80 33.5t84 68.5l25 -59q-39 -51 -88 -87t-98.5 -58.5t-94.5 -33t-76 -10.5q-68 0 -135 31t-121 84 q-29 29 -49 66t-33.5 76.5t-20.5 79.5t-7 77q0 59 8 115.5t31 107.5q49 117 147 189.5t223 72.5q61 0 111.5 -28.5t86.5 -67.5t58.5 -82t32.5 -69l35 -74zM238 567q23 0 82 1t122 5q74 2 162 7q23 6 23 30q0 10 -5.5 28.5t-11.5 33.5q-23 49 -63.5 88t-102.5 39 q-66 0 -116 -45q-67 -60 -90 -187z" />
<glyph unicode="f" horiz-adv-x="690" d="M670 1452q53 0 96 -14.5t43 -32.5q0 -23 -8 -45q-6 -18 -19.5 -40t-36.5 -40q-10 6 -31.5 17.5t-48 21.5t-53 18.5t-47.5 8.5q-47 0 -89 -36t-62 -134q-10 -41 -16.5 -130.5t-6.5 -201.5h268l-12 -115h-254v-180v-140q0 -67 1 -123.5t3 -96t4 -58.5q4 -20 25 -37 q16 -14 51 -26.5t94 -16.5l-6 -55q-129 12 -237 12q-61 0 -117.5 -4t-108.5 -10l-6 55q41 12 66.5 21.5t40 18.5t19.5 19.5t7 24.5q2 16 4.5 58t3.5 96.5t2 116t1 120.5q0 76 -1 133.5t-6 71.5h-174l-10 55l189 74q0 66 8 129.5t26 124.5q25 82 68 145.5t96 106.5t114 65.5 t120 22.5z" />
<glyph unicode="g" horiz-adv-x="960" d="M948 846l2 -23l-14 -94l-180 29q-6 -4 -11 -10q-2 -4 -2 -7q10 -16 22.5 -53t12.5 -84q0 -59 -26.5 -111.5t-71.5 -93.5t-105.5 -64.5t-130.5 -23.5q-10 0 -20 1t-21 3q-59 -37 -94 -73.5t-35 -65.5q0 -31 36 -43t93.5 -16t128 -5t140.5 -8q113 -10 175 -56t62 -157 q0 -63 -35.5 -135.5t-102 -135t-160 -103.5t-208.5 -41q-78 0 -145.5 21.5t-118.5 60.5t-80.5 93t-29.5 120q0 31 16 63.5t45 64t64.5 59.5t76.5 44v12q-53 25 -95 63t-48 79q8 12 32.5 32.5t56.5 43.5l66 44q33 21 62 37q6 4 10 7.5t4 9.5q0 4 -10 8q-88 35 -143 107.5 t-55 158.5q0 59 26.5 110.5t71.5 89.5t105.5 59.5t129.5 21.5q125 0 205 -47zM786 -164q0 51 -28.5 90t-83.5 45q-23 2 -77 3t-114.5 2t-112 3.5t-65.5 8.5q-61 -16 -97 -68.5t-36 -103.5q0 -115 81 -183.5t210 -68.5q92 0 154.5 30.5t100.5 73.5t53 90t15 78zM621 586 q0 104 -45.5 167.5t-129.5 63.5q-74 0 -120.5 -54t-46.5 -147q0 -51 14 -94t38.5 -74.5t56.5 -49t69 -17.5q57 0 92 33q72 55 72 172z" />
<glyph unicode="h" horiz-adv-x="1050" d="M1024 -6q-111 10 -166 11t-55 3q0 -2 -51.5 -3t-143.5 -11l-6 55q53 6 76.5 22.5t34.5 26.5q12 12 18 46t10 79t5.5 96.5t1.5 98.5q0 86 -7 151q-8 82 -49 135.5t-121 53.5q-41 0 -83 -15.5t-76.5 -35t-57 -41t-26.5 -33.5v-68q0 -74 1 -153.5t2 -146t5 -113t10 -54.5 q10 -14 37 -29.5t78 -19.5l-6 -55l-172 12q-33 2 -56 2q-20 0 -47 -2l-58 -5l-77 -7l-6 51q49 10 78.5 25.5t40.5 25.5q4 4 7 32t5 70t3 91l2 98q1 49 1 91v69v278q0 43 -1 108l-2 128q-1 63 -5 112.5t-10 61.5q-8 12 -25 25q-14 10 -37.5 22t-60.5 23v41q80 23 133 41 t84 32q37 16 57 29l27 -4q-4 -123 -6 -226.5t-2 -181.5q-2 -90 0 -162v-145l10 -4q72 53 123 82t87 43t57.5 16t33.5 2q98 0 166.5 -58t87.5 -157q4 -25 6 -51.5t2 -54.5q0 -84 -3 -168t-3 -158q0 -41 3 -78t13 -51t38 -26.5t81 -14.5z" />
<glyph unicode="i" horiz-adv-x="546" d="M379 874l-7 -286q-3 -121 -3 -205q0 -117 3 -185.5t15 -84.5q18 -25 55 -38.5t86 -23.5l-6 -57q-49 6 -110.5 10t-114.5 4q-55 0 -119.5 -4t-116.5 -10l-6 55q53 10 90 24.5t54 37.5q16 23 18 79t2 148q0 49 -1 99t-3 92t-4 72t-4 38q-4 14 -21 31q-14 12 -40.5 27.5 t-71.5 27.5v43q156 53 214 85t58 30zM174 1212q0 49 33 83t80 34q51 0 85 -33.5t34 -83.5q0 -47 -34 -79.5t-85 -32.5q-47 0 -80 32.5t-33 79.5z" />
<glyph unicode="j" horiz-adv-x="485" d="M43 784q53 16 105 34l93 32q40 14 65 24l24 9l26 -6q-2 -35 -3 -117t-1 -187q0 -176 3 -303t3 -170q0 -76 -13 -152.5t-50 -154.5t-103.5 -154.5t-173.5 -150.5l-34 51q61 45 99 91t59.5 94.5t30.5 100.5t15 107t10.5 152.5t4.5 204.5q0 57 -2 123.5t-6.5 125 t-10.5 100.5t-14 52q-23 23 -127 49v45zM162 1219q0 43 30.5 73.5t73.5 30.5t74 -30.5t31 -73.5q0 -45 -31 -76t-74 -31t-73.5 31t-30.5 76z" />
<glyph unicode="k" horiz-adv-x="1060" d="M549 842q47 -4 103.5 -6t107.5 -2q121 0 217 12l6 -58q-49 -6 -89 -21t-60 -26l-94 -58q-78 -48 -214 -165v-14q16 -14 35 -33.5t27 -30.5l79 -101l87 -107l79 -91q35 -39 52 -47q23 -12 59.5 -27.5t79.5 -17.5l-6 -59q-154 12 -221 12q-20 0 -32.5 -1t-23.5 -1h-16 l-167 228l-98 124t-44 50l-10 10q0 8 -31 8q-10 0 -21.5 -2t-25.5 -10q2 -123 5 -207t7 -95q8 -12 22 -24q12 -10 35 -21.5t58 -15.5l-6 -51q-84 12 -203 12q-49 0 -99.5 -3t-97.5 -9l-6 55q39 6 62.5 16.5t37.5 20.5q16 10 25 25q2 6 5 48t4 107.5t2 148.5t1 173 q0 109 -1 219.5t-3 201.5t-4 151.5t-4 70.5q-4 14 -21 29q-14 12 -40.5 27.5t-71.5 27.5v39q74 20 125 36.5t84 30.5q37 14 63 29l31 -8q-4 -180 -5 -349t-3 -302q-2 -156 -2 -291q0 -2 2 -4t4 -4.5t6 -4.5q25 4 40 11.5t15 5.5q10 6 38 29l61 50q32 27 65 59t53 56 q20 23 21 43q0 35 -90 47z" />
<glyph unicode="l" horiz-adv-x="509" d="M348 1444q-4 -35 -5 -104.5t-2 -163t-1 -202.5v-218q0 -176 1 -298t3 -200t6 -116t10 -44q16 -18 41 -28.5t84 -20.5l-10 -57q-45 6 -106.5 11t-108.5 5t-112.5 -4t-108.5 -10l-6 55q43 8 78.5 20.5t54.5 36.5q6 8 10 59.5t6 135.5t3 197.5t1 249.5q0 215 -5 342t-15 143 q-12 18 -36 37.5t-83 36.5v41q43 10 91 27.5t89 34.5t68 30l27 12z" />
<glyph unicode="m" horiz-adv-x="1626" d="M1487 102q6 -14 22 -24q12 -10 36 -18.5t61 -8.5l-7 -57q-104 10 -158.5 11t-54.5 3q0 -2 -52 -3t-146 -11l-6 55q37 6 59.5 16.5t36.5 20.5q16 10 25 25q8 14 13 44.5t9 71.5t6 88t2 95q0 47 -2 88t-6 75q-8 78 -51 131.5t-125 53.5q-37 0 -76 -13.5t-70.5 -32t-53 -40 t-23.5 -37.5q-2 -98 -3 -209t-1 -217q0 -41 1 -69.5t5 -41.5q6 -14 22 -24q12 -10 36 -18.5t61 -8.5l-7 -53q-104 10 -158.5 11t-54.5 3q0 -2 -50 -3t-136 -11l-6 51q33 6 53.5 16.5t32.5 20.5q14 10 22 24q6 14 12.5 48t9.5 77t5 93.5t2 99.5q0 47 -2 88t-6 76 q-10 72 -49 122t-117 50q-35 0 -68.5 -10.5t-64.5 -25.5t-55.5 -33.5t-40.5 -35.5q-8 -8 -11.5 -23.5t-3.5 -25.5v-264q0 -92 2 -157.5t6 -80.5q8 -14 25 -24q14 -10 39 -19.5t66 -13.5l-7 -53q-104 10 -151 12q-31 2 -53 2q-20 0 -52 -2q-57 -4 -149 -12l-6 51 q35 10 57.5 20.5t34.5 20.5q14 10 22 23q6 12 9.5 78.5t3.5 148.5q0 49 -1 100t-3 93t-4.5 72t-4.5 38q-4 16 -18 31q-12 12 -34.5 26.5t-61.5 24.5v41q76 27 125 48t78.5 35.5t42.5 21.5l12 7l28 -8q-2 -20 -3 -43.5t-1 -44.5q-2 -23 -2 -47l13 -6q61 49 110 77.5t86 43 t62.5 18.5t38.5 4q84 0 144 -38.5t91 -108.5l14 -4q57 49 107.5 78.5t90.5 46t67.5 21.5t40.5 5q104 0 169.5 -58t86.5 -140q6 -29 8 -58.5t2 -64.5q0 -84 -3 -168t-3 -158q0 -41 2 -74t6 -45z" />
<glyph unicode="n" horiz-adv-x="1079" d="M631 49q78 16 99.5 38t27.5 56q10 45 14 120t4 153q0 88 -6 155q-10 90 -54 136.5t-116 46.5q-53 0 -109.5 -22.5t-109.5 -63.5q-16 -12 -20.5 -26.5t-4.5 -35.5q-2 -53 -2 -129v-137v-120q0 -54 4 -87q2 -39 28 -56.5t110 -29.5l-7 -53q-63 8 -116.5 11t-104.5 3t-96 -3 t-92 -11l-6 51q74 20 94 39.5t25 48.5q4 31 6 85t2 118q0 49 -1 99t-3 92t-4.5 72t-4.5 40q-4 16 -18 31q-12 12 -34.5 26.5t-61.5 24.5v41q76 29 125 50.5t77.5 36.5t39.5 23l12 7l24 -5v-145l10 -6q72 53 124.5 83t88 43t58 15t35.5 2q102 0 171.5 -61.5t86.5 -165.5 q4 -23 4 -46v-46q0 -86 -3 -170t-3 -158q0 -51 3 -82t15 -47t40 -24.5t77 -14.5l-6 -57q-121 12 -211 12q-53 0 -102.5 -3t-102.5 -9z" />
<glyph unicode="o" d="M946 446q0 -100 -33.5 -186t-93 -149.5t-138.5 -100.5t-171 -37q-86 0 -164 34t-138.5 94.5t-95 143.5t-34.5 183q0 98 33.5 181t94 143.5t142.5 93.5t180 33q90 0 167 -31t132.5 -87t87 -136.5t31.5 -178.5zM774 418q0 180 -73.5 283.5t-198.5 103.5 q-111 0 -179.5 -95.5t-68.5 -250.5q0 -104 31.5 -197.5t85.5 -146.5q72 -68 161 -68q53 0 98.5 27.5t77 77t49 118t17.5 148.5z" />
<glyph unicode="p" horiz-adv-x="1069" d="M352 911v-161l17 -5q88 66 150.5 95.5t115.5 29.5q59 0 122.5 -24.5t116 -73.5t86 -120.5t33.5 -166.5q0 -125 -41 -219t-106.5 -156.5t-145 -93t-155.5 -30.5q-53 0 -105.5 8t-91.5 22v-119q0 -61 2 -113t4 -94t6 -67q6 -29 31 -45t105 -31l-7 -51l-172 12q-33 2 -55 3 q-20 0 -49 -3q-25 -2 -59.5 -4t-81.5 -6l-6 49q66 14 86 28.5t30 31.5q6 8 8.5 55t4.5 110.5t2 134.5v130v244q0 43 -1 107l-2 124q-1 61 -5.5 110.5t-10.5 61.5q-8 12 -22 23q-14 10 -37 20t-58 21v40q72 29 121 53.5t80 41.5q37 20 60 35zM770 162q33 47 51.5 118.5 t18.5 149.5v24q0 11 -2 23q-6 57 -31 107.5t-61.5 85.5t-85 55t-99.5 20q-119 0 -209 -92q-2 -35 -3 -75.5t-1 -80.5v-77v-68v-157q6 -33 28.5 -58.5t53.5 -44t65.5 -28t67.5 -9.5q59 0 114.5 27t92.5 80z" />
<glyph unicode="q" horiz-adv-x="1030" d="M508 795q-53 0 -102.5 -25t-87 -70t-60 -109.5t-22.5 -144.5q0 -74 20 -137t56 -108t84 -71t104 -26q53 0 108.5 25t91.5 72q20 27 24.5 72.5t4.5 144.5q0 41 -1 92t-5 104q-4 47 -31.5 89t-62.5 61q-60 31 -121 31zM864 926l29 -8q-2 -49 -2 -104v-103q0 -53 -2 -107 q-2 -74 -3 -156l-2 -167q-1 -84 -1 -167v-159q0 -139 2 -233.5t8 -106.5t20 -23q12 -10 35 -19t60 -15l-7 -60q-102 8 -153 13q-31 2 -53 2q-23 0 -58 -2q-29 -2 -75 -7l-111 -10l-6 55q55 8 89 21.5t52 23.5q23 12 31 27q2 6 5 49t4 110.5t2 155t1 183.5l-14 4 q-27 -35 -63 -60.5t-73.5 -43t-77.5 -26.5t-73 -9q-55 0 -116.5 23.5t-114 72.5t-86 122.5t-33.5 174.5q0 96 29.5 175t79 139.5t109.5 101.5t122 59q61 18 125 18q53 0 105 -9t106 -23z" />
<glyph unicode="r" horiz-adv-x="737" d="M369 659q14 27 31.5 56.5t37 56.5t39 49.5t35.5 34.5q12 10 19.5 12t21.5 2q27 0 58.5 -6t59 -15t47 -18.5t19.5 -15.5q0 -18 -9 -40.5t-21.5 -44t-27.5 -36t-28 -14.5q-29 0 -66.5 22.5t-76.5 22.5q-18 0 -37.5 -14.5t-37 -38t-32 -51t-24.5 -54.5q-6 -16 -9 -35l-6 -36 q-4 -12 -4 -52v-90q0 -39 1 -80t3.5 -75.5t5.5 -58t7 -27.5q8 -12 47 -36t123 -28l-6 -55l-115 7l-78 5q-37 2 -57 2q-23 0 -53 -2q-57 -4 -156 -12l-6 55q39 6 63.5 15.5t38.5 19.5q16 10 23 25q4 6 7 32.5t4 64.5t2 85t1 96q0 90 -3 166t-7 92q-6 16 -21 31 q-12 12 -36.5 25.5t-65.5 21.5v45q72 25 120 45.5t76 34.5q33 16 52 31l26 -7v-210z" />
<glyph unicode="s" horiz-adv-x="765" d="M516 469q80 -47 118 -108.5t38 -124.5q0 -41 -17.5 -88.5t-54.5 -86t-93 -64.5t-136 -26q-53 0 -90 10.5t-68 20.5q-25 10 -51 10q-8 0 -14.5 -1t-16.5 -3q-8 33 -16 72q-8 35 -15.5 82t-13.5 106l59 11q12 -47 33 -88t50.5 -73t67.5 -50.5t81 -18.5q63 0 108 35t45 100 q0 35 -24.5 71t-69.5 64l-168 101q-88 53 -116.5 113.5t-28.5 113.5q0 41 15.5 83t49 75t85 53.5t122.5 20.5q23 0 47 -2q23 -2 51.5 -6.5t63.5 -12.5l57 -4l31 -231l-59 -11q-8 33 -23.5 68t-40 63.5t-58.5 47t-77 18.5q-59 0 -93 -32t-36 -79q0 -35 21.5 -69.5t60.5 -57.5 z" />
<glyph unicode="t" horiz-adv-x="643" d="M61 729l-6 57q45 16 80 35t65.5 49.5t59.5 77.5t64 123l43 -4q-2 -10 -5 -37l-5 -59q-3 -33 -5 -68t-2 -59h273l-15 -115h-264q-6 -92 -9 -178t-3 -162q0 -63 1 -112.5t5 -73.5q6 -45 25.5 -75t62.5 -30q16 0 62.5 12.5t103.5 65.5l26 -72q-78 -66 -148.5 -94t-129.5 -28 q-78 0 -124 52t-46 156q0 90 6 228.5t17 310.5h-132z" />
<glyph unicode="u" horiz-adv-x="1056" d="M340 850q-2 -20 -6 -70.5t-7 -115.5l-7 -140q-3 -73 -3 -141q0 -49 2.5 -94t6.5 -72q10 -53 49 -88t108 -35q43 0 81 14.5t69 37t52.5 51t33.5 59.5q8 16 9 32.5t1 33.5v136q0 64 -1 114.5t-3 83t-4 44.5q-4 12 -21 27q-14 10 -41.5 23.5t-76.5 23.5v45q78 6 131 13.5 t88 13.5q39 8 63 16l29 -12q-4 -18 -6 -65.5t-4 -109t-3 -130t-1 -131.5q0 -104 3 -162.5t19 -75.5q14 -14 39 -27.5t72 -23.5v-39q-59 -16 -107.5 -33.5t-81.5 -34.5q-39 -20 -67 -38l-29 12v141l-16 6q-174 -162 -312 -162q-80 0 -147.5 48.5t-83.5 134.5q-6 29 -8 62.5 t-2 68.5q0 27 1 69.5t3 90t3 95.5t1 87q0 37 -2 59.5t-13.5 35.5t-35 21.5t-66.5 18.5v45q72 10 121 19l82 16q37 8 61 14z" />
<glyph unicode="v" horiz-adv-x="923" d="M580 846q41 -4 80.5 -6t80.5 -2q45 0 92.5 3t104.5 9l4 -47q-31 -12 -49.5 -22.5t-32.5 -20.5t-23.5 -23.5t-21.5 -34.5q-2 -2 -5 -7t-14 -28l-30 -67l-58 -125l-94 -203l-139 -301h-47l-295 707q-10 25 -19.5 41t-24.5 30.5t-38.5 26.5t-62.5 25l6 51q63 -8 132 -11 t134 -3q92 0 164 6l4 -53q-39 -6 -62.5 -12.5t-37 -13.5t-17.5 -16.5t-4 -21.5q0 -14 8.5 -45t18.5 -55l44 -125l46 -126l41 -108q18 -47 29 -71h14l38 87l44 108l48 121q24 62 44 122l16 47q7 23 7 39q0 29 -33 43t-99 24z" />
<glyph unicode="w" horiz-adv-x="1497" d="M811 856l16 -4q18 -68 49 -162t67 -190.5t70 -179t56 -125.5h14q92 209 140.5 340t48.5 178q0 31 -29 48t-98 27l4 56q86 -6 168 -6q104 0 194 12l5 -53q-53 -16 -81 -37t-57 -74q-16 -31 -45 -95l-70 -155l-91 -208l-111 -251h-80l-219 545h-27l-260 -545h-74l-54 155 l-71 200l-74 199q-36 96 -61 151q-10 25 -22.5 42t-28.5 30.5t-39.5 23.5t-56.5 19l6 53q66 -6 126 -8t118 -2q115 0 205 6v-55q-72 -10 -94.5 -28t-22.5 -40q0 -18 13 -73.5t35.5 -130.5t50.5 -160t58 -162h15q80 172 144.5 327.5t96.5 304.5z" />
<glyph unicode="x" horiz-adv-x="983" d="M469 788q-29 -4 -45 -11t-24.5 -16t-10.5 -17.5t-2 -14.5q0 -10 12.5 -33.5t31.5 -54.5l40 -64l39 -61h8l55 61q29 33 53.5 65t41 56.5t16.5 34.5q0 16 -17.5 31.5t-76.5 26.5l6 53q57 -6 129 -6q47 0 97 2t98 10l6 -57q-31 -12 -50.5 -20.5t-33 -16.5t-23.5 -17l-24 -20 q-25 -23 -56 -56l-66 -69q-34 -37 -64 -74l-52 -63q111 -162 175.5 -248t101.5 -111q16 -12 34 -20q16 -8 37 -14.5t43 -10.5l-6 -61q-111 12 -235 12q-100 0 -193 -6l-4 53q63 10 77.5 27.5t14.5 34.5q0 8 -13.5 36.5t-33.5 64.5t-44 74t-44 66h-10l-58 -68l-60 -71 q-28 -35 -46.5 -62.5t-18.5 -39.5q0 -14 13.5 -30.5t74.5 -31.5l-2 -53q-90 6 -149 6q-47 0 -96 -3t-95 -7l-8 57q51 18 87 35.5t75 53.5t95 98l147 172q-18 29 -55 82l-76 106q-39 53 -73 95t-48 52q-16 10 -35 19q-16 8 -37.5 15t-44.5 12l6 59q37 -6 75 -8t67 -4 q35 -2 67 -2q33 -2 68 0q29 0 65.5 2t71.5 6z" />
<glyph unicode="y" horiz-adv-x="976" d="M430 -23l-106 275l-82 201q-35 84 -60.5 138t-44.5 87q-16 31 -29.5 49t-30 29.5t-38.5 19.5l-55 19l12 59q39 -6 78 -9t69 -5q37 -2 70 -2t70 2q31 2 70.5 3t80.5 5l2 -53q-39 -6 -60.5 -15.5t-32.5 -19.5t-13 -18.5t-2 -14.5q0 -8 4 -35.5t22.5 -89t54 -165 t101.5 -263.5h14q25 55 50 119l48 125l42 116l30 91q4 14 8.5 33.5t4.5 39.5q0 18 -5.5 32.5t-19.5 25t-41 18.5t-70 19l4 55q37 -4 74 -5t68 -3q37 -2 69 -2q29 0 62 2q29 2 65.5 4t77.5 8l6 -57q-37 -8 -61.5 -16.5t-41.5 -22t-31.5 -34t-33.5 -52.5q-29 -55 -67 -140 l-82 -179l-86 -194l-80 -183l-63 -146l-37 -84q-41 -84 -83 -135t-79 -78t-66.5 -35t-42.5 -8q-39 0 -67.5 21.5t-28.5 66.5q0 10 4 23q4 10 10.5 22t20.5 25q86 0 139 28.5t76 51.5q12 12 25.5 28.5t29 45t34.5 71.5t44 106z" />
<glyph unicode="z" horiz-adv-x="903" d="M850 262q-29 -78 -43 -129t-23 -80q-8 -35 -10 -53q-57 4 -126 4h-146q-61 0 -122 -1t-115 -2t-101 -2t-80 -3l-14 49l520 717l-2 12q-20 2 -57 2h-74q-37 0 -72 -1t-61 -5q-61 -10 -110.5 -56t-90.5 -134l-49 18l98 276l137 -32l475 10l15 -59l-514 -703l4 -14 q20 -2 60 -2h85q37 0 72 1t59 5q80 8 131.5 52t100.5 147z" />
<glyph unicode="{" horiz-adv-x="557" d="M242 559q57 -27 93 -59.5t55.5 -66.5t25.5 -66.5t6 -57.5q0 -47 -15.5 -103t-34 -113.5t-33.5 -111t-15 -94.5q0 -29 9 -68.5t30.5 -76.5t56.5 -62.5t88 -25.5l-14 -60q-121 20 -191 63.5t-103.5 87.5t-41.5 82t-8 48q0 51 21.5 107.5t47 114t47 112.5t21.5 104 q0 20 -7.5 51t-25.5 63t-50 59.5t-81 43.5v31q59 16 92 52t49 77q18 45 21 101q0 51 -21.5 99t-47.5 96t-47.5 95t-21.5 99q0 10 9.5 46t44.5 79t103.5 84t189.5 59l8 -55q-55 -12 -89 -36t-54.5 -51.5t-27.5 -56t-7 -47.5q0 -39 14 -84t31.5 -96t32 -104.5t14.5 -106.5 q-2 -45 -21 -86q-16 -37 -52 -77t-101 -70l2 -25z" />
<glyph unicode="|" horiz-adv-x="419" d="M262 -483l-82 -31l-26 4q10 240 16 501t6 537q0 256 -4 495t-14 421h104v-1927z" />
<glyph unicode="}" horiz-adv-x="557" d="M315 535q-57 27 -93 55t-55.5 57t-25.5 56.5t-6 52.5q0 47 15.5 100t34 106.5t33.5 103.5t15 91q0 29 -9 69t-30.5 76.5t-57.5 62.5t-87 26l14 59q121 -16 191 -58t103.5 -88.5t42 -85t8.5 -49.5q0 -53 -21.5 -105t-47.5 -105.5t-47.5 -105.5t-21.5 -101q0 -20 7.5 -46 t26 -52.5t50 -51t80.5 -39.5v-31q-49 -25 -80.5 -52t-50 -58t-25 -63.5t-6.5 -65.5q0 -41 21.5 -95.5t47.5 -112.5t47.5 -115.5t21.5 -104.5q0 -12 -11.5 -49t-48.5 -80t-105.5 -82t-181.5 -57l-8 55q55 12 89 35.5t54.5 51.5t27.5 56.5t7 46.5q0 39 -14 92.5t-31.5 112.5 t-32 120.5t-14.5 115.5q2 43 21 86q16 35 51 75.5t102 71.5l-2 25z" />
<glyph unicode="~" horiz-adv-x="1228" d="M809 348q-47 0 -95 16l-97 35q-50 19 -99 35.5t-98 16.5q-72 0 -130.5 -35t-105.5 -90l-47 45q45 55 91 102t88 81t77 53.5t58 19.5q49 0 103 -15.5t109.5 -34t108.5 -34t100 -15.5q68 0 112 29t89 86l43 -45q-70 -129 -153.5 -189.5t-153.5 -60.5z" />
<glyph unicode="&#xa1;" horiz-adv-x="573" d="M328 -424q0 -29 -33 -58.5t-94 -29.5q-31 0 -54.5 10t-39 24.5t-23.5 30t-8 23.5l106 830h51zM213 889q49 0 85 -35t36 -86q0 -49 -36 -84t-85 -35t-85 35t-36 84q0 51 36 86t85 35z" />
<glyph unicode="&#xa2;" horiz-adv-x="942" d="M713 719q-23 0 -31 20.5t-25 42.5q-16 25 -38.5 46.5t-63.5 29.5l-68 -569q8 -2 17 -2h16q59 0 122 34.5t108 88.5l24 -52q-25 -29 -54.5 -57.5t-65.5 -53t-80 -42t-99 -19.5l-74 -606h-75l20 176l23 201l24 233q-55 10 -106 38t-91 70t-65 97.5t-25 122.5q0 80 26 148.5 t73 123t112.5 89t147.5 47.5q6 82 14 159q6 66 10.5 136.5t8.5 117.5l84 15l30 -13l-49 -411q41 0 82 -8.5t75 -20.5t54.5 -25.5t20.5 -25.5q0 -53 -28.5 -92t-53.5 -39zM406 301l13 132l14 146l13 146l13 131q-78 -12 -133 -80q-27 -35 -44.5 -84t-23.5 -127 q0 -45 10.5 -87t29.5 -77.5t46 -61.5t62 -38z" />
<glyph unicode="&#xa3;" horiz-adv-x="1126" d="M1055 215q-43 -74 -83 -122t-73 -75.5t-58.5 -39t-41.5 -11.5q-53 0 -119 30t-131.5 65.5t-127 65.5t-104.5 30q-23 0 -36 -27t-23 -59q-12 -37 -26.5 -68t-36.5 -31q-25 0 -50.5 12.5t-46 33t-33 48t-12.5 56.5q0 23 47 44t109 38q20 25 40.5 62.5t33.5 90.5 q20 88 28 171t12.5 159t10.5 144.5t24 128.5q25 78 70 140t102.5 106t123 67.5t132.5 23.5q57 0 102.5 -14t77 -36.5t48 -51.5t16.5 -57q0 -37 -30.5 -62.5t-69.5 -25.5q-25 0 -49 12q-4 27 -13.5 53.5t-27 48t-45 35.5t-66.5 14q-90 0 -137 -58t-64 -144 q-10 -47 -15 -112.5t-11 -134.5t-12.5 -134.5t-16.5 -112.5q-8 -39 -19.5 -71.5t-29.5 -65.5t-47 -70t-70 -82l8 -10q47 10 87 14.5t57 4.5q43 0 96 -16.5t103 -35.5l95 -36q44 -17 70 -17q43 0 89 24.5t94 92.5zM422 616l-391 -18l-8 27l69 86l74 -7q35 -4 72.5 -6t82 -3 t101.5 -1v-78zM446 694l424 15l7 -27l-70 -82q-78 10 -162 13t-199 3v78z" />
<glyph unicode="&#xa5;" horiz-adv-x="1126" d="M676 385q0 -98 4 -172t29 -102q14 -16 50 -33t97 -21l-6 -63q-66 4 -115 5t-84 3q-39 2 -67 2q-29 0 -66 -2q-33 -2 -79 -3t-103 -5l-6 57q59 10 96 22.5t53 41.5q16 33 20.5 103.5t4.5 158.5v162q0 14 -11.5 39.5t-31.5 50.5l-29 59l-60 98l-61 102l-60 97l-54 84 q-31 45 -65 77t-105 54l8 62q41 -6 80 -8l69 -5q35 -2 66 -2t69 2q33 2 79 4t100 9l-2 -60q-59 -12 -82 -30.5t-23 -41.5q0 -20 12.5 -54t38 -86t67.5 -127t103 -175h15l45 73l63 103l63 111q31 55 50 96q16 37 16 55q0 29 -25.5 44.5t-101.5 31.5l8 60q45 -6 85 -9l71 -4 q37 -2 66 -2q31 0 59 2q25 2 53.5 4t50.5 9l3 -62q-57 -23 -94.5 -53.5t-63.5 -65.5q-27 -35 -59 -82l-68 -99l-70 -106l-65 -106l-37 -96v-207zM928 608q-152 6 -316 6q-121 0 -244.5 -3t-222.5 -11l-6 25l47 80q59 -2 151.5 -2.5t188.5 -0.5h135q68 0 129.5 1.5t116 2.5 t92.5 3l2 -31zM907 360q-152 6 -309 7q-117 0 -235.5 -3.5t-217.5 -11.5l-6 25l47 80q51 -2 119 -2h146h145q76 0 146.5 1t132 2t104.5 3l2 -31z" />
<glyph unicode="&#xa7;" horiz-adv-x="1187" d="M1040 104q0 -49 -15 -105t-44 -110.5t-70 -102.5t-90 -81q-16 -47 -50 -86t-78 -66.5t-94 -43t-97 -15.5q-45 0 -86 6t-74 17.5t-51.5 25t-18.5 25.5q0 25 14.5 45t35 36.5t43 26t38.5 9.5q14 0 21 -7q6 -16 14 -34.5t22.5 -36t37 -28.5t53.5 -11q37 0 64.5 14.5t46 37 t27.5 49t9 52.5q0 104 -69 195q-31 43 -94 109l-132 141l-129 144q-61 71 -88 122q-51 96 -69.5 174t-18.5 164q0 49 15.5 105.5t44 110.5t69.5 101.5t90 81.5q16 47 50 86t78 67t94.5 43t99.5 15q45 0 86 -6t72.5 -17t51 -24.5t19.5 -25.5q0 -25 -15 -45.5t-36.5 -37 t-45 -25.5t-40.5 -9q-12 0 -18 6q-6 14 -14.5 31.5t-21.5 32t-33.5 24.5t-51.5 10q-70 0 -108 -42t-38 -97q0 -100 68 -188q31 -41 94 -109l130 -143l128 -149q60 -72 86 -124q51 -96 69.5 -174t18.5 -164zM946 53q0 82 -25.5 145.5t-72.5 131.5q-35 53 -103 129l-138 151 l-131 138q-60 63 -81 90q-63 80 -82 186q-2 16 -12 16q-6 0 -23.5 -12t-36 -38.5t-33.5 -68.5t-15 -100q0 -82 26.5 -145.5t71.5 -130.5q35 -53 102 -130l139 -153l132 -139q61 -62 79 -86q31 -41 51.5 -84t30.5 -96q2 -18 17 -19q8 0 25.5 13.5t35 41t30.5 67.5t13 93z" />
<glyph unicode="&#xa8;" d="M315 1260q43 0 73 -30t30 -73q0 -41 -30 -70.5t-73 -29.5q-45 0 -74.5 29.5t-29.5 70.5q0 43 29.5 73t74.5 30zM690 1260q43 0 73 -30t30 -73q0 -41 -30 -70.5t-73 -29.5q-45 0 -74.5 29.5t-29.5 70.5q0 43 29.5 73t74.5 30z" />
<glyph unicode="&#xa9;" horiz-adv-x="1699" d="M842 1399q158 0 291 -52.5t230 -147.5t151.5 -229t54.5 -300q0 -152 -57.5 -284t-156 -230.5t-231.5 -155.5t-282 -57q-152 0 -284 57t-230.5 155.5t-155.5 231.5t-57 285q0 166 57 300t155.5 229t230.5 146.5t284 51.5zM231 684q0 -139 50.5 -260t134.5 -210t196.5 -140 t237.5 -51q92 0 179 26.5t157 73.5q129 86 197.5 224t68.5 304q0 145 -40 268t-116.5 212.5t-187.5 139.5t-250 50q-141 0 -257 -49t-197.5 -135t-127 -203t-45.5 -250zM1130 1067q20 -59 30 -99l18 -67q6 -31 8 -49l-51 -10q-16 37 -35 70.5t-47.5 58t-72.5 40t-112 15.5 q-55 0 -100 -23.5t-78 -65.5t-51 -102.5t-18 -134.5q0 -168 77.5 -271t212.5 -103q86 0 137.5 52t86.5 140l55 -14l-51 -191q-35 -27 -78 -40t-82 -19q-45 -8 -90 -8q-78 0 -158 26.5t-145.5 82t-106.5 140.5t-41 201q0 104 42 181t107.5 129.5t147.5 78t162 25.5 q39 0 80 -6q35 -4 75.5 -12.5t77.5 -24.5z" />
<glyph unicode="&#xaa;" horiz-adv-x="716" d="M684 850q-27 -29 -54.5 -44t-49.5 -22q-27 -8 -52 -8q-23 0 -50 24.5t-38 63.5h-10q-10 -10 -32.5 -25.5t-50.5 -29.5t-56.5 -24.5t-48.5 -10.5q-47 0 -90 35t-43 104q0 37 16 70t51 55q14 8 42 19.5t60 22.5l69 25q36 13 67 28q18 8 18 18q0 37 -6 80q-4 33 -31.5 55.5 t-77.5 22.5q-33 0 -47 -17.5t-22 -39t-13.5 -39t-17.5 -17.5q-41 0 -65.5 24.5t-24.5 53.5q0 12 28.5 30.5t69.5 36t86 28.5t78 11q41 0 82 -20.5t64 -50.5q16 -23 20 -50.5t4 -56.5q0 -33 -3 -94t-3 -109q0 -37 2 -68.5t6 -41.5q12 -25 43 -29q4 0 18.5 4t41.5 21z M428 1071q0 6 -8 6q-6 0 -28.5 -9t-48.5 -23.5t-49.5 -31t-33.5 -28.5q-16 -14 -16 -47q0 -39 21.5 -56.5t49.5 -17.5q33 0 62 18.5t45 37.5q6 8 6 24v127z" />
<glyph unicode="&#xab;" horiz-adv-x="884" d="M426 174l-31 -41l-354 356v35l354 353l31 -43l-201 -297zM823 174l-30 -41l-355 356v35l355 353l30 -43l-200 -297z" />
<glyph unicode="&#xad;" horiz-adv-x="659" d="M569 477l-456 -39l-15 17l15 135l456 18v-131z" />
<glyph unicode="&#xae;" horiz-adv-x="903" d="M483 1460q88 0 162 -28.5t127 -81t83 -126t30 -165.5q0 -84 -32 -157t-86 -127t-128 -86t-156 -32q-84 0 -156.5 32t-127 86t-86 127t-31.5 157q0 92 31.5 165.5t86 126t127 81t156.5 28.5zM520 711q59 6 110.5 32.5t92.5 69.5l-2 6q-31 2 -65.5 13.5t-65.5 48.5l-22 28 q-13 17 -27.5 33t-25.5 30.5t-13 18.5q-16 20 -41 21q-14 0 -21 -2q0 -55 1 -81t5 -34q2 -6 11 -14q6 -6 18 -11.5t31 -7.5l-4 -39q-23 2 -46.5 3t-47.5 1q-29 0 -59 -1t-54 -3l-6 39q14 0 25.5 5t17.5 12q8 8 12 14t5 45t1 90v66q0 32 -1 59t-2 45.5t-3 22.5q0 6 -8 12 q-6 4 -18.5 9t-32.5 9l4 39q57 4 98 4t68 2q31 0 51 2q27 0 62.5 -4t58.5 -14q63 -35 63 -98q0 -43 -31.5 -77t-68.5 -56l-2 -9q23 -23 51 -63l51 -70q16 -20 33.5 -32.5t28.5 -16.5q4 0 6 4q27 41 41 88t14 101q0 76 -23.5 141t-65.5 114.5t-102.5 77t-134.5 27.5 t-134 -26.5t-105 -72.5t-69.5 -108.5t-24.5 -136.5t25.5 -139.5t70.5 -113.5t105.5 -76.5t129.5 -28.5h18q7 0 17 2zM586 1163q0 31 -16.5 56.5t-59.5 29.5q-14 0 -35.5 -1t-28.5 -5q-4 -8 -5 -63.5t-1 -120.5q6 0 12.5 -1t16.5 -1q35 0 57 6q25 12 42.5 38.5t17.5 61.5z " />
<glyph unicode="&#xaf;" horiz-adv-x="1613" d="M1174 1231l-11 -101l-657 -22l-12 29l59 94h621z" />
<glyph unicode="&#xb0;" horiz-adv-x="579" d="M268 1403q123 0 199 -70.5t76 -189.5q0 -59 -21.5 -110.5t-59.5 -88.5t-89 -57.5t-109 -20.5q-53 0 -103 19.5t-89 54.5t-62.5 84t-23.5 109q0 59 21.5 108t59 85t89 56.5t112.5 20.5zM262 1333q-72 0 -119 -51t-47 -137q0 -94 52.5 -150.5t121.5 -56.5q72 0 117 54.5 t45 137.5q0 94 -50 148.5t-120 54.5z" />
<glyph unicode="&#xb1;" horiz-adv-x="1331" d="M1180 690l10 -22l-27 -84q-61 4 -130.5 6t-129.5 4q-70 2 -139 2v-348h-189q6 90 9.5 154.5t7.5 107.5q2 51 4 84q-70 0 -143 -2q-63 -2 -143.5 -5t-159.5 -7l-13 22l53 88h406q0 57 -2 123q-2 55 -6 124t-13 140l177 25l28 -8l-16 -404h416zM1227 121l-13 -121 q-86 4 -202.5 5t-249.5 1q-166 0 -340 -3t-324 -9l-10 29l39 100z" />
<glyph unicode="&#xb2;" horiz-adv-x="942" d="M418 348q53 66 91 140.5t38 152.5q0 49 -17.5 84t-44 58.5t-60.5 34.5t-67 11q-61 0 -125.5 -39.5t-111.5 -107.5l-45 57q47 78 108.5 120t118.5 61q68 23 135 24q45 0 97.5 -15.5t95.5 -47t71.5 -79.5t28.5 -112q0 -61 -20.5 -117.5t-69.5 -119t-131 -136t-203 -165.5 l2 -17q51 2 115 4l122 4q60 2 105 5.5t60 5.5q20 4 40.5 20t38 39t31 49.5t21.5 48.5l49 -14q-23 -72 -35 -126l-20 -93q-8 -45 -13 -78q-90 6 -229 6q-125 0 -258 -4t-227 -10l-13 78q80 57 139.5 107t100.5 89q47 45 82 82z" />
<glyph unicode="&#xb3;" horiz-adv-x="876" d="M80 838q39 31 87 51t94 32.5t85 17.5t62 5q51 0 102 -13t90 -42t63.5 -74t24.5 -106q0 -39 -9 -73t-30.5 -67.5t-57.5 -70.5t-91 -80l6 -21q61 0 114.5 -20.5t93.5 -59t62.5 -92t22.5 -116.5q0 -90 -39 -168t-98.5 -140.5t-133 -110.5t-141.5 -75q-57 -23 -110.5 -32 t-96.5 -9q-27 0 -53.5 8t-48 21.5t-35.5 33t-14 44.5q0 41 29.5 72.5t60.5 31.5h10q16 -41 40 -62.5t47.5 -33t40.5 -13.5t24 -2q59 0 119.5 32t108.5 87t77.5 131t29.5 162q0 96 -54 146.5t-132 50.5q-18 0 -67.5 -11.5t-114.5 -58.5l-43 45q23 33 49.5 55.5t50.5 38.5 q29 18 57 31q90 94 125 160.5t35 140.5q0 41 -15 74t-40 55.5t-55.5 33.5t-61.5 11q-39 0 -76.5 -18.5t-68.5 -44t-54.5 -55t-31.5 -50.5l-23 2z" />
<glyph unicode="&#xb4;" d="M590 1356q31 0 61 -8q25 -6 51.5 -21.5t42.5 -42.5l-260 -297l-51 14z" />
<glyph unicode="&#xb6;" horiz-adv-x="1351" d="M897 344v371q0 155 -2 258.5t-6 165t-12.5 92.5t-20.5 40t-29 9q-14 0 -34.5 -1t-26.5 -11q-10 -14 -13 -141.5t-3 -399.5v-333q0 -154 1 -295.5t3 -278.5l4 -281l-33 -26q-45 -2 -94 -5q-41 -2 -90 -5t-95 -7l-2 60q94 14 146.5 41.5t60.5 107.5q6 63 10.5 123.5 t5.5 128.5t2 148.5t1 189.5v215h-109q-74 0 -165 22.5t-171 76t-134 139.5t-54 215q0 88 36 164.5t104.5 134t167.5 89t228 31.5q68 0 150 -2t169 -6t174 -9t163 -11l2 -56q-66 -4 -103.5 -15t-56.5 -26q-23 -16 -29 -36q-2 -8 -3 -54.5t-3 -119t-3 -168t-2 -202.5l-2 -219 q-1 -112 -1 -220q0 -123 1 -231.5t4 -191.5t7 -134.5t11 -59.5q14 -20 41.5 -37.5t87.5 -25.5l-6 -54q-25 2 -62 4.5t-76 3.5t-77 1h-66l-10 22q4 8 7 46t4 128t2 242.5t1 392.5zM465 598q16 -4 34.5 -6t41.5 -2q41 0 81 5t46 11v148v195q0 81 -2 139.5t-5.5 96.5t-9.5 60 q-10 35 -25.5 41t-43.5 6q-82 0 -146.5 -28.5t-108.5 -76.5t-66.5 -109.5t-22.5 -127.5q0 -133 58 -227t169 -125z" />
<glyph unicode="&#xb7;" horiz-adv-x="499" d="M250 387q-53 0 -91 38t-38 91q0 55 38 93.5t91 38.5q55 0 93 -38t38 -94q0 -53 -38 -91t-93 -38z" />
<glyph unicode="&#xb8;" d="M537 12l-48 -100l7 -10q59 -4 93 -22.5t50 -42t20.5 -44t4.5 -26.5q0 -43 -20.5 -80t-52.5 -65t-73 -43t-84 -15q-29 0 -57 6q-25 4 -52.5 14t-50.5 31l19 43q33 -18 73 -25.5t64 -7.5q37 0 77 22.5t40 69.5q0 33 -25.5 54.5t-79.5 21.5q-25 0 -55 -6l-10 14l86 160 l-14 39z" />
<glyph unicode="&#xb9;" horiz-adv-x="778" d="M571 936q-23 -39 -32 -80t-13 -123q-4 -80 -6 -167t-2 -173q0 -41 1 -85t2 -81t4 -62.5t10 -33.5q20 -29 77.5 -47t169.5 -29l-6 -61q-84 4 -172 11t-166 7t-164 -7t-190 -9l-6 55q119 16 178 40t80 44q6 6 12 37t9 74t5.5 92t2.5 96q0 49 -1.5 99.5t-3.5 92.5t-5 69.5 t-7 33.5q-18 23 -86 23h-34q-23 0 -48 -1l-53 -2q-27 -1 -47 -4l-6 62q113 25 197.5 53.5t142.5 54.5q68 29 114 60z" />
<glyph unicode="&#xba;" horiz-adv-x="716" d="M383 1374q137 0 216 -80t79 -211q0 -66 -22.5 -122t-62.5 -97t-95.5 -64.5t-118.5 -23.5q-61 0 -115.5 22.5t-96.5 63.5t-66.5 96.5t-24.5 120.5q0 131 84 213t223 82zM532 1057q0 117 -40.5 186.5t-112.5 69.5q-66 0 -109 -58.5t-43 -152.5q0 -57 12.5 -105.5t34 -84 t50 -55t63.5 -19.5q70 0 107.5 65.5t37.5 153.5z" />
<glyph unicode="&#xbb;" horiz-adv-x="884" d="M459 834l30 43l355 -359v-35l-355 -350l-30 41l200 299zM61 834l31 43l354 -359v-35l-354 -350l-31 41l201 299z" />
<glyph unicode="&#xbc;" horiz-adv-x="3542" d="M3263 934v-799q63 0 102.5 3t63 13.5t37 33t25.5 63.5l47 -8q0 -14 -6 -48t-16 -71l-17 -67q-8 -31 -14 -42h-222v-428h-178l7 174q4 78 6 136q2 68 2 118h-547l-21 80l-2 45q152 236 294.5 436.5t289.5 374.5zM2645 139q18 -2 51 -3t76 -2t92 -1h103h137l4 164 q2 84 3 159q1 76 2 140q1 63 1 104v48l-18 2q-111 -129 -226 -282l-225 -308v-21zM2150 1466l103 -20v-21l-533 -683l-559 -765l-111 29zM571 936q-23 -39 -32 -80t-13 -123q-4 -80 -6 -167t-2 -173q0 -41 1 -85t2 -81t4 -62.5t10 -33.5q20 -29 77.5 -47t169.5 -29l-6 -61 q-84 4 -172 11t-166 7t-164 -7t-190 -9l-6 55q119 16 178 40t80 44q6 6 12 37t9 74t5.5 92t2.5 96q0 49 -1.5 99.5t-3.5 92.5t-5 69.5t-7 33.5q-18 23 -86 23h-34q-23 0 -48 -1l-53 -2q-27 -1 -47 -4l-6 62q113 25 197.5 53.5t142.5 54.5q68 29 114 60z" />
<glyph unicode="&#xbd;" horiz-adv-x="3460" d="M2936 348q53 66 91 140.5t38 152.5q0 49 -17.5 84t-44 58.5t-60.5 34.5t-67 11q-61 0 -125.5 -39.5t-111.5 -107.5l-45 57q47 78 108.5 120t118.5 61q68 23 135 24q45 0 97.5 -15.5t95.5 -47t71.5 -79.5t28.5 -112q0 -61 -20.5 -117.5t-69.5 -119t-131 -136t-203 -165.5 l2 -17q51 2 115 4l122 4q60 2 105 5.5t60 5.5q20 4 40.5 20t38 39t31 49.5t21.5 48.5l49 -14q-23 -72 -35 -126l-20 -93q-8 -45 -13 -78q-90 6 -229 6q-125 0 -258 -4t-227 -10l-13 78q80 57 139.5 107t100.5 89q47 45 82 82zM2150 1466l103 -20v-21l-533 -683l-559 -765 l-111 29zM571 936q-23 -39 -32 -80t-13 -123q-4 -80 -6 -167t-2 -173q0 -41 1 -85t2 -81t4 -62.5t10 -33.5q20 -29 77.5 -47t169.5 -29l-6 -61q-84 4 -172 11t-166 7t-164 -7t-190 -9l-6 55q119 16 178 40t80 44q6 6 12 37t9 74t5.5 92t2.5 96q0 49 -1.5 99.5t-3.5 92.5 t-5 69.5t-7 33.5q-18 23 -86 23h-34q-23 0 -48 -1l-53 -2q-27 -1 -47 -4l-6 62q113 25 197.5 53.5t142.5 54.5q68 29 114 60z" />
<glyph unicode="&#xbe;" horiz-adv-x="3640" d="M3361 934v-799q63 0 102.5 3t63 13.5t37 33t25.5 63.5l47 -8q0 -14 -6 -48t-16 -71l-17 -67q-8 -31 -14 -42h-222v-428h-178l7 174q4 78 6 136q2 68 2 118h-547l-21 80l-2 45q152 236 294.5 436.5t289.5 374.5zM2743 139q18 -2 51 -3t76 -2t92 -1h103h137l4 164 q2 84 3 159q1 76 2 140q1 63 1 104v48l-18 2q-111 -129 -226 -282l-225 -308v-21zM2248 1466l103 -20v-21l-533 -683l-559 -765l-111 29zM80 838q39 31 87 51t94 32.5t85 17.5t62 5q51 0 102 -13t90 -42t63.5 -74t24.5 -106q0 -39 -9 -73t-30.5 -67.5t-57.5 -70.5t-91 -80 l6 -21q61 0 114.5 -20.5t93.5 -59t62.5 -92t22.5 -116.5q0 -90 -39 -168t-98.5 -140.5t-133 -110.5t-141.5 -75q-57 -23 -110.5 -32t-96.5 -9q-27 0 -53.5 8t-48 21.5t-35.5 33t-14 44.5q0 41 29.5 72.5t60.5 31.5h10q16 -41 40 -62.5t47.5 -33t40.5 -13.5t24 -2 q59 0 119.5 32t108.5 87t77.5 131t29.5 162q0 96 -54 146.5t-132 50.5q-18 0 -67.5 -11.5t-114.5 -58.5l-43 45q23 33 49.5 55.5t50.5 38.5q29 18 57 31q90 94 125 160.5t35 140.5q0 41 -15 74t-40 55.5t-55.5 33.5t-61.5 11q-39 0 -76.5 -18.5t-68.5 -44t-54.5 -55 t-31.5 -50.5l-23 2z" />
<glyph unicode="&#xbf;" horiz-adv-x="696" d="M459 -512q-76 0 -156 29.5t-146.5 85t-109.5 132.5t-43 171q0 98 33 154.5t83 92t111.5 62.5t120.5 68q6 8 15 18q6 10 11 25.5t5 38.5q0 31 -12 73l53 11q51 -117 63 -164q8 -29 9 -43q0 -18 -20.5 -45t-59.5 -47q-16 -10 -62 -27l-96 -37q-51 -20 -96 -43t-64 -43 q-14 -16 -14 -57q0 -51 26.5 -99.5t72.5 -86.5t106.5 -61.5t126.5 -23.5q41 0 71.5 9.5t61.5 27.5q16 -4 23.5 -21.5t7.5 -41.5q0 -25 -8.5 -52.5t-24 -51t-37.5 -39t-51 -15.5zM395 887q49 0 85 -35t36 -84q0 -51 -36 -86t-85 -35t-85 35t-36 86q0 49 36 84t85 35z" />
<glyph unicode="&#xc0;" horiz-adv-x="1425" d="M659 1460l-243 238q25 29 60.5 44t70.5 23q39 8 82 11l119 -295zM483 -6q-59 4 -109 7t-89 5q-45 2 -84 2q-37 0 -74 -2q-31 -2 -65.5 -5t-61.5 -7l-8 59q23 4 42 12l36 17q18 8 34 18q29 18 59 61.5t54 98.5q10 25 33 88l68 187l112 321l166 490l223 16l132 -376 l105 -290l79 -214l59 -150q57 -143 82 -187q18 -23 41 -41q20 -16 47 -31.5t61 -19.5l-8 -59q-59 4 -109.5 7t-88.5 5q-45 2 -84 2t-82 -2q-37 -2 -84 -5t-99 -7l-4 57q55 8 90 19.5t54.5 25t25.5 27.5t6 29q0 16 -6 41.5t-19 66.5t-35 100l-52 144q-47 4 -122 6t-153 2 q-82 0 -150.5 -2t-103.5 -6q-31 -84 -51 -144.5t-31.5 -102.5t-16.5 -67.5t-5 -39.5q0 -10 5 -24.5t25.5 -28t57.5 -26t102 -20.5zM455 623q29 -2 61.5 -3.5t63.5 -1.5h71h74q33 0 74 1.5t82 3.5v2l4 12l-209 543h-23l-78 -195l-65 -174q-35 -92 -61 -174z" />
<glyph unicode="&#xc1;" horiz-adv-x="1425" d="M842 1757q41 0 78 -8q31 -6 59.5 -18.5t40.5 -34.5l-346 -252l-64 18zM483 -6q-59 4 -109 7t-89 5q-45 2 -84 2q-37 0 -74 -2q-31 -2 -65.5 -5t-61.5 -7l-8 59q23 4 42 12l36 17q18 8 34 18q29 18 59 61.5t54 98.5q10 25 33 88l68 187l112 321l166 490l223 16l133 -376 l104 -290l80 -214l58 -150q57 -143 82 -187q18 -23 41 -41q20 -16 47 -31.5t61 -19.5l-8 -59q-59 4 -109.5 7t-88.5 5q-45 2 -84 2t-82 -2q-37 -2 -84 -5t-99 -7l-4 57q55 8 90 19.5t54.5 25t25.5 27.5t6 29q0 16 -6 41.5t-19 66.5t-35 100l-52 144q-47 4 -122 6t-153 2 q-82 0 -150.5 -2t-103.5 -6q-31 -84 -51 -144.5t-31.5 -102.5t-16.5 -67.5t-5 -39.5q0 -10 5 -24.5t25.5 -28t57.5 -26t102 -20.5zM455 623q29 -2 61.5 -3.5t63.5 -1.5h71h74q33 0 74 1.5t82 3.5v2l4 12l-209 543h-23l-78 -195l-65 -174q-35 -92 -61 -174z" />
<glyph unicode="&#xc2;" horiz-adv-x="1425" d="M668 1606l-219 -156l-31 14l264 299h33l264 -299l-35 -18zM483 -6q-59 4 -109 7t-89 5q-45 2 -84 2q-37 0 -74 -2q-31 -2 -65.5 -5t-61.5 -7l-8 59q23 4 42 12l36 17q18 8 34 18q29 18 59 61.5t54 98.5q10 25 33 88l68 187l112 321l166 490l223 16l133 -376l104 -290 l80 -214l58 -150q57 -143 82 -187q18 -23 41 -41q20 -16 47 -31.5t61 -19.5l-8 -59q-59 4 -109.5 7t-88.5 5q-45 2 -84 2t-82 -2q-37 -2 -84 -5t-99 -7l-4 57q55 8 90 19.5t54.5 25t25.5 27.5t6 29q0 16 -6 41.5t-19 66.5t-35 100l-52 144q-47 4 -122 6t-153 2 q-82 0 -150.5 -2t-103.5 -6q-31 -84 -51 -144.5t-31.5 -102.5t-16.5 -67.5t-5 -39.5q0 -10 5 -24.5t25.5 -28t57.5 -26t102 -20.5zM455 623q29 -2 61.5 -3.5t63.5 -1.5h71h74q33 0 74 1.5t82 3.5v2l4 12l-209 543h-23l-78 -195l-65 -174q-35 -92 -61 -174z" />
<glyph unicode="&#xc3;" horiz-adv-x="1425" d="M483 -6q-59 4 -109 7t-89 5q-45 2 -84 2q-37 0 -74 -2q-31 -2 -65.5 -5t-61.5 -7l-8 59q23 4 42 13l36 16q18 8 34 18q29 18 59 61.5t54 98.5l35 90q24 64 68 192l114 330l172 504l199 27l135 -389l106 -299l84 -221l60 -156q59 -150 86 -193q18 -23 41 -41 q20 -16 47 -31.5t61 -19.5l-8 -59q-59 4 -109.5 7t-88.5 5q-45 2 -84 2t-82 -2q-37 -2 -84 -5t-99 -7l-4 57q55 8 90 19.5t54.5 25t25.5 27.5t6 29q0 16 -6 41.5t-19 66.5t-35 100l-52 144q-47 4 -122 6t-153 2q-82 0 -150.5 -2t-103.5 -6q-31 -84 -51 -144.5t-31.5 -102.5 t-16.5 -67.5t-5 -39.5q0 -10 5 -24.5t25.5 -28t57.5 -26t102 -20.5zM455 623q29 -2 61.5 -3.5t63.5 -1.5h71h74q33 0 74 1.5t82 3.5v2l4 12l-209 543h-23l-78 -195l-65 -174q-35 -92 -61 -174zM375 1501q68 94 130 150.5t103 56.5q29 0 69 -10l82 -22l79 -21q36 -10 59 -10 q53 0 93 21.5t73 68.5l37 -39q-61 -102 -124 -148.5t-104 -46.5q-35 0 -70 10l-69 22l-71 21q-35 11 -72 11q-106 0 -172 -103z" />
<glyph unicode="&#xc4;" horiz-adv-x="1425" d="M483 -6q-59 4 -109 7t-89 5q-45 2 -84 2q-37 0 -74 -2q-31 -2 -65.5 -5t-61.5 -7l-8 59q23 4 42 13l36 16q18 8 34 18q29 18 59 61.5t54 98.5l35 90q24 64 68 192l114 330l172 504l199 27l135 -389l106 -299l84 -221l60 -156q59 -150 86 -193q18 -23 41 -41 q20 -16 47 -31.5t61 -19.5l-8 -59q-59 4 -109.5 7t-88.5 5q-45 2 -84 2t-82 -2q-37 -2 -84 -5t-99 -7l-4 57q55 8 90 19.5t54.5 25t25.5 27.5t6 29q0 16 -6 41.5t-19 66.5t-35 100l-52 144q-47 4 -122 6t-153 2q-82 0 -150.5 -2t-103.5 -6q-31 -84 -51 -144.5t-31.5 -102.5 t-16.5 -67.5t-5 -39.5q0 -10 5 -24.5t25.5 -28t57.5 -26t102 -20.5zM455 623q29 -2 61.5 -3.5t63.5 -1.5h71h74q33 0 74 1.5t82 3.5v2l4 12l-209 543h-23l-78 -195l-65 -174q-35 -92 -61 -174zM449 1690q41 0 70.5 -30t29.5 -71t-30 -70.5t-70 -29.5q-41 0 -71 29.5 t-30 70.5t30 71t71 30zM995 1690q41 0 71 -30t30 -71t-30 -70.5t-71 -29.5t-70.5 29.5t-29.5 70.5t29.5 71t70.5 30z" />
<glyph unicode="&#xc5;" horiz-adv-x="1425" d="M483 -6q-59 4 -109 7t-89 5q-45 2 -84 2q-37 0 -74 -2q-31 -2 -65.5 -5t-61.5 -7l-8 59q23 4 42 12l36 17q18 8 34 18q29 18 59 61.5t54 98.5q10 25 33 88l68 187l112 321l166 490l223 16l133 -376l104 -290l80 -214l58 -150q57 -143 82 -187q18 -23 41 -41 q20 -16 47 -31.5t61 -19.5l-8 -59q-59 4 -109.5 7t-88.5 5q-45 2 -84 2t-82 -2q-37 -2 -84 -5t-99 -7l-4 57q55 8 90 19.5t54.5 25t25.5 27.5t6 29q0 16 -6 41.5t-19 66.5t-35 100l-52 144q-47 4 -122 6t-153 2q-82 0 -150.5 -2t-103.5 -6q-31 -84 -51 -144.5t-31.5 -102.5 t-16.5 -67.5t-5 -39.5q0 -10 5 -24.5t25.5 -28t57.5 -26t102 -20.5zM455 623q29 -2 61.5 -3.5t63.5 -1.5h71h74q33 0 74 1.5t82 3.5v2l4 12l-209 543h-23l-78 -195l-65 -174q-35 -92 -61 -174zM694 1690q84 0 142.5 -53.5t58.5 -131.5q0 -37 -15.5 -70.5t-43 -58t-64.5 -39 t-78 -14.5q-43 0 -79.5 14.5t-64.5 39t-43 58t-15 70.5q0 78 58 131.5t144 53.5zM705 1386q43 4 72.5 37t29.5 80q0 55 -35 88t-78 33q-53 0 -82.5 -34t-29.5 -81q0 -59 36 -91t87 -32z" />
<glyph unicode="&#xc6;" horiz-adv-x="1947" d="M1874 340q-10 -78 -21.5 -138.5t-21.5 -105.5q-12 -53 -25 -92q-45 -4 -99 -6t-130 -2q-141 0 -242.5 4t-201.5 4q-53 0 -112.5 -3t-129.5 -7l-4 57q98 20 125.5 48t27.5 67q0 16 -5 48t-18 85t-34 131l-53 188q-76 -4 -146.5 -7t-131 -6t-104.5 -6t-67 -5l-95 -218 q-34 -81 -50.5 -127t-19.5 -68.5t-3 -43.5q0 -8 6.5 -20.5t22.5 -24.5t48 -23.5t83 -17.5l-10 -57q-59 4 -109.5 7t-87.5 5q-43 2 -80 2q-35 0 -69 -2q-29 -2 -61.5 -5t-61.5 -7l-4 57q45 8 84 30.5t76 76.5q18 23 56 92t85 164l99 204l100 211l85 184l58 126 q16 39 23.5 63.5t7.5 54.5q0 10 -14.5 23.5t-76.5 26.5l5 53q57 -4 108 -5t90 -3q45 -2 84 -2q111 0 222.5 1t204.5 1t156.5 1t78.5 1h56q26 0 54 -4l72 -293l-55 -8q-10 33 -28.5 67.5t-48.5 65t-73 52t-100 28.5q-41 4 -97.5 6t-117.5 2q-43 0 -85 -1t-77 -3t-60.5 -3 t-33.5 -3l73 -252l86 -301l180 7q74 3 121.5 8t74 10t40.5 11q18 10 42 34t30 71h49q-4 -35 -4 -65v-60q0 -68 7 -130.5t26 -123.5l-51 -6q-18 57 -37 91t-54.5 50.5t-95 20.5t-162.5 4q-12 0 -35.5 -1t-48.5 -1q-29 -2 -59 -2q59 -207 102 -339t70 -159q29 -29 89.5 -36 t135.5 -7q57 0 99.5 7t77 34t66.5 80t69 145zM526 696q47 0 150.5 1t230.5 5l-43 152l-45 155l-53 179h-16q-29 -55 -68 -139l-74 -162z" />
<glyph unicode="&#xc7;" horiz-adv-x="1511" d="M1325 1018q-25 143 -156 219t-327 76q-84 0 -161 -21.5t-143.5 -62.5t-117.5 -102.5t-84 -143.5q-23 -59 -33 -122.5t-10 -129.5q0 -160 56.5 -308.5t162.5 -240.5q74 -63 168 -97t211 -34q68 0 131 11.5t119.5 45t103.5 95t82 162.5l51 -15q-16 -90 -28 -145l-18 -86 q-7 -31 -11 -41l-4 -10q-98 -57 -212 -86t-235 -29q-152 0 -298 47t-263 150q-111 94 -177 231t-66 328q0 111 34.5 208t94 179t137.5 143t166 98t188 52.5t193 15.5q70 0 147 -8q66 -6 151 -20.5t175 -41.5q18 -162 24 -235q4 -45 4 -74zM922 -16l-43 -95l6 -10 q59 -2 92 -19.5t49 -40t20.5 -44t4.5 -27.5q0 -43 -20.5 -78t-52.5 -60.5t-73 -39.5t-84 -14q-29 0 -57 6q-25 4 -52.5 14t-49.5 31l18 43q33 -18 73 -25.5t64 -7.5q18 0 39 5t38 15.5t28.5 27t11.5 38.5q0 70 -107 70q-25 0 -55 -6l-10 14l78 147l-21 56h103z" />
<glyph unicode="&#xc8;" horiz-adv-x="1318" d="M958 487q-6 45 -21 77t-35.5 51.5t-43 29.5t-47.5 14q-47 6 -118.5 7.5t-137.5 1.5h-104v-159q0 -79 2 -146.5t4 -121t6 -83.5q4 -35 29.5 -43.5t60.5 -12.5q47 -6 109.5 -9t123.5 -3q66 0 120.5 4t72.5 12q63 29 118.5 93.5t86.5 150.5l61 -10v2q-18 -98 -35 -160 l-26 -104q-14 -47 -25 -74q-51 -4 -107.5 -6t-127.5 -2q-41 0 -113 1t-151.5 3t-158.5 3t-136 1q-25 0 -62 -1t-76 -3t-73.5 -3t-55.5 -3q-2 12 -4 22t-2 19v14q47 12 77 25.5t48.5 29t25.5 34t11 44.5l5 81q3 50 4 112.5t2 135.5t1 148v151q0 75 -1 141.5t-3 120.5t-4 89 q-2 31 -9 52.5t-25.5 38t-52.5 28.5t-89 23l6 53q39 -4 120 -6t161 -2q59 0 135 1t150.5 3t139 3t101.5 1q117 0 250 -6l35 -320l-56 -6q-25 92 -68.5 158.5t-119.5 74.5q-41 4 -99.5 5.5t-117.5 1.5q-43 0 -85 -1t-77 -2t-59.5 -2.5t-32.5 -3.5q-4 -14 -6 -54t-4 -96 t-3 -127t-1 -144v-91h27q28 0 69 1t91 2.5t95 3.5t79 5t46 7q18 6 32.5 13t27 21.5t23.5 38t26 62.5l49 -6q-10 -55 -15.5 -107.5t-5.5 -103.5q0 -45 4.5 -91t12.5 -95zM700 1434l-243 237q25 29 60.5 44.5t70.5 23.5q39 8 82 10l118 -295z" />
<glyph unicode="&#xc9;" horiz-adv-x="1318" d="M958 487q-6 45 -21 77t-35.5 51.5t-43 29.5t-47.5 14q-47 6 -118.5 7.5t-137.5 1.5h-104v-159q0 -79 2 -146.5t4 -121t6 -83.5q4 -35 29.5 -43.5t60.5 -12.5q47 -6 109.5 -9t123.5 -3q66 0 120.5 4t72.5 12q63 29 118.5 93.5t86.5 150.5l61 -10v2q-18 -98 -35 -160 l-26 -104q-14 -47 -25 -74q-51 -4 -107.5 -6t-127.5 -2q-41 0 -113 1t-151.5 3t-158.5 3t-136 1q-25 0 -62 -1t-76 -3t-73.5 -3t-55.5 -3q-2 12 -4 22t-2 19v14q47 12 77 25.5t48.5 29t25.5 34t11 44.5l5 81q3 50 4 112.5t2 135.5t1 148v151q0 75 -1 141.5t-3 120.5t-4 89 q-2 31 -9 52.5t-25.5 38t-52.5 28.5t-89 23l6 53q39 -4 120 -6t161 -2q59 0 135 1t150.5 3t139 3t101.5 1q117 0 250 -6l35 -320l-56 -6q-25 92 -68.5 158.5t-119.5 74.5q-41 4 -99.5 5.5t-117.5 1.5q-43 0 -85 -1t-77 -2t-59.5 -2.5t-32.5 -3.5q-4 -14 -6 -54t-4 -96 t-3 -127t-1 -144v-91h27q28 0 69 1t91 2.5t95 3.5t79 5t46 7q18 6 32.5 13t27 21.5t23.5 38t26 62.5l49 -6q-10 -55 -15.5 -107.5t-5.5 -103.5q0 -45 4.5 -91t12.5 -95zM825 1757q41 0 78 -8q31 -6 59.5 -18.5t41.5 -34.5l-347 -252l-63 18z" />
<glyph unicode="&#xca;" horiz-adv-x="1318" d="M958 487q-6 45 -21 77t-35.5 51.5t-43 29.5t-47.5 14q-47 6 -118.5 7.5t-137.5 1.5h-104v-159q0 -79 2 -146.5t4 -121t6 -83.5q4 -35 29.5 -43.5t60.5 -12.5q47 -6 109.5 -9t123.5 -3q66 0 120.5 4t72.5 12q63 29 118.5 93.5t86.5 150.5l61 -10v2q-18 -98 -35 -160 l-26 -104q-14 -47 -25 -74q-51 -4 -107.5 -6t-127.5 -2q-41 0 -113 1t-151.5 3t-158.5 3t-136 1q-25 0 -62 -1t-76 -3t-73.5 -3t-55.5 -3q-2 12 -4 22t-2 19v14q47 12 77 25.5t48.5 29t25.5 34t11 44.5l5 81q3 50 4 112.5t2 135.5t1 148v151q0 75 -1 141.5t-3 120.5t-4 89 q-2 31 -9 52.5t-25.5 38t-52.5 28.5t-89 23l6 53q39 -4 120 -6t161 -2q59 0 135 1t150.5 3t139 3t101.5 1q117 0 250 -6l35 -320l-56 -6q-25 92 -68.5 158.5t-119.5 74.5q-41 4 -99.5 5.5t-117.5 1.5q-43 0 -85 -1t-77 -2t-59.5 -2.5t-32.5 -3.5q-4 -14 -6 -54t-4 -96 t-3 -127t-1 -144v-91h27q28 0 69 1t91 2.5t95 3.5t79 5t46 7q18 6 32.5 13t27 21.5t23.5 38t26 62.5l49 -6q-10 -55 -15.5 -107.5t-5.5 -103.5q0 -45 4.5 -91t12.5 -95zM668 1606l-219 -156l-31 14l264 299h33l264 -299l-35 -18z" />
<glyph unicode="&#xcb;" horiz-adv-x="1318" d="M958 487q-6 45 -21 77t-35.5 51.5t-43 29.5t-47.5 14q-47 6 -118.5 7.5t-137.5 1.5h-104v-159q0 -79 2 -146.5t4 -121t6 -83.5q4 -35 29.5 -43.5t60.5 -12.5q47 -6 109.5 -9t123.5 -3q66 0 120.5 4t72.5 12q63 29 118.5 93.5t86.5 150.5l61 -10v2q-18 -98 -35 -160 l-26 -104q-14 -47 -25 -74q-51 -4 -107.5 -6t-127.5 -2q-41 0 -113 1t-151.5 3t-158.5 3t-136 1q-25 0 -62 -1t-76 -3t-73.5 -3t-55.5 -3q-2 12 -4 22t-2 19v14q47 12 77 25.5t48.5 29t25.5 34t11 44.5l5 81q3 50 4 112.5t2 135.5t1 148v151q0 75 -1 141.5t-3 120.5t-4 89 q-2 31 -9 52.5t-25.5 38t-52.5 28.5t-89 23l6 53q39 -4 120 -6t161 -2q59 0 135 1t150.5 3t139 3t101.5 1q117 0 250 -6l35 -320l-56 -6q-25 92 -68.5 158.5t-119.5 74.5q-41 4 -99.5 5.5t-117.5 1.5q-43 0 -85 -1t-77 -2t-59.5 -2.5t-32.5 -3.5q-4 -14 -6 -54t-4 -96 t-3 -127t-1 -144v-91h27q28 0 69 1t91 2.5t95 3.5t79 5t46 7q18 6 32.5 13t27 21.5t23.5 38t26 62.5l49 -6q-10 -55 -15.5 -107.5t-5.5 -103.5q0 -45 4.5 -91t12.5 -95zM907 1690q41 0 71 -30t30 -71t-30 -70.5t-71 -29.5t-70.5 29.5t-29.5 70.5t29.5 71t70.5 30zM508 1690 q41 0 70.5 -30t29.5 -71t-29.5 -70.5t-70.5 -29.5t-70.5 29.5t-29.5 70.5t29.5 71t70.5 30z" />
<glyph unicode="&#xcc;" horiz-adv-x="724" d="M633 -4q-78 4 -150 6q-73 2 -145 2q-66 0 -127 -2t-121 -6l-6 55q53 8 85 21.5t49.5 31t23.5 37t8 41.5l5 90q3 54 4 121.5t2 144t1 154.5q0 147 -2 273.5t-8 197.5q-2 33 -9 54.5t-25.5 37t-51.5 26.5t-84 24l6 53q78 -8 140.5 -10t123.5 -2t126 2t151 10l6 -55 q-53 -10 -86 -22.5t-50.5 -28t-24.5 -37t-9 -48.5q-4 -37 -6 -95t-3 -130t-2 -152.5t-1 -162.5q0 -141 3 -262t7 -185q2 -31 9 -50t25.5 -32.5t52.5 -22.5t89 -18zM360 1442l-243 237q25 29 60.5 44.5t70.5 23.5q39 8 82 10l119 -295z" />
<glyph unicode="&#xcd;" horiz-adv-x="724" d="M633 -4q-78 4 -150 6q-73 2 -145 2q-66 0 -127 -2t-121 -6l-6 55q53 8 85 21.5t49.5 31t23.5 37t8 41.5l5 90q3 54 4 121.5t2 144t1 154.5q0 147 -2 273.5t-8 197.5q-2 33 -9 54.5t-25.5 37t-51.5 26.5t-84 24l6 53q78 -8 140.5 -10t123.5 -2t126 2t151 10l6 -55 q-53 -10 -86 -22.5t-50.5 -28t-24.5 -37t-9 -48.5q-4 -37 -6 -95t-3 -130t-2 -152.5t-1 -162.5q0 -141 3 -262t7 -185q2 -31 9 -50t25.5 -32.5t52.5 -22.5t89 -18zM522 1757q41 0 78 -8q31 -6 59.5 -18.5t40.5 -34.5l-346 -252l-63 18z" />
<glyph unicode="&#xce;" horiz-adv-x="724" d="M633 -4q-78 4 -150 6q-73 2 -145 2q-66 0 -127 -2t-121 -6l-6 55q53 8 85 21.5t49.5 31t23.5 37t8 41.5l5 90q3 54 4 121.5t2 144t1 154.5q0 147 -2 273.5t-8 197.5q-2 33 -9 54.5t-25.5 37t-51.5 26.5t-84 24l6 53q78 -8 140.5 -10t123.5 -2t126 2t151 10l6 -55 q-53 -10 -86 -22.5t-50.5 -28t-24.5 -37t-9 -48.5q-4 -37 -6 -95t-3 -130t-2 -152.5t-1 -162.5q0 -141 3 -262t7 -185q2 -31 9 -50t25.5 -32.5t52.5 -22.5t89 -18zM315 1606l-219 -156l-30 14l264 299h32l265 -299l-35 -18z" />
<glyph unicode="&#xcf;" horiz-adv-x="724" d="M633 -4q-78 4 -150 6q-73 2 -145 2q-66 0 -127 -2t-121 -6l-6 55q53 8 85 21.5t49.5 31t23.5 37t8 41.5l5 90q3 54 4 121.5t2 144t1 154.5q0 147 -2 273.5t-8 197.5q-2 33 -9 54.5t-25.5 37t-51.5 26.5t-84 24l6 53q78 -8 140.5 -10t123.5 -2t126 2t151 10l6 -55 q-53 -10 -86 -22.5t-50.5 -28t-24.5 -37t-9 -48.5q-4 -37 -6 -95t-3 -130t-2 -152.5t-1 -162.5q0 -141 3 -262t7 -185q2 -31 9 -50t25.5 -32.5t52.5 -22.5t89 -18zM590 1690q41 0 70.5 -30t29.5 -71t-29.5 -70.5t-70.5 -29.5t-71 29.5t-30 70.5t30 71t71 30zM119 1690 q41 0 70.5 -30t29.5 -71t-29.5 -70.5t-70.5 -29.5t-71 29.5t-30 70.5t30 71t71 30z" />
<glyph unicode="&#xd1;" horiz-adv-x="1736" d="M76 1356q51 -4 106.5 -7t110.5 -3q84 0 156 6l903 -1049l16 4v395q0 182 -1 287t-5 158q-4 41 -13.5 66.5t-31 41t-59 23.5t-95.5 16l6 62q59 -4 123 -7t129 -3q66 0 127.5 3t116.5 7l6 -56q-49 -12 -80.5 -24t-50 -28.5t-28 -42t-11.5 -62.5q-4 -43 -7 -124t-6 -216 t-5 -335t-2 -480l-99 -17l-981 1137l-14 -6q-2 -98 -2 -179v-153q0 -141 1 -242.5t3 -171t4 -110.5t6 -66q4 -33 15.5 -52t34 -32.5t57.5 -20.5t86 -16l-6 -61q-63 4 -125 6t-123 2q-66 0 -129.5 -2t-120.5 -6l-6 55q47 12 76.5 22.5t48 24t28 34t13.5 50.5q6 41 10 105.5 t6 141.5t3 163t1 170q0 78 -1 149.5t-3 130t-5 99.5t-7 57q-12 49 -64.5 69.5t-117.5 30.5zM541 1501q68 94 130 150.5t103 56.5q29 0 69 -10l82 -21l79 -22q36 -10 59 -10q53 0 93 21.5t73 68.5l37 -39q-61 -102 -124 -148.5t-104 -46.5q-35 0 -70 11l-69 21l-71 21 q-35 11 -72 11q-106 0 -172 -103z" />
<glyph unicode="&#xd2;" horiz-adv-x="1619" d="M66 688q0 160 56 293t155.5 227.5t238.5 146.5t305 52q162 0 295 -51t228.5 -144.5t148.5 -224.5t53 -289q0 -162 -57 -299t-157.5 -237.5t-234.5 -156.5t-290 -56q-145 0 -279.5 55t-237 153.5t-163.5 233.5t-61 297zM492 1217q-96 -76 -150.5 -200t-54.5 -288 q0 -156 44 -283t119.5 -216t176 -137t213.5 -48q109 0 201 44t158.5 125t103 193.5t36.5 249.5q0 195 -71.5 341.5t-190.5 226.5q-66 43 -139.5 66.5t-153.5 23.5q-169 0 -292 -98zM782 1462l-243 238q25 29 60.5 44t70.5 23q39 8 82 11l118 -295z" />
<glyph unicode="&#xd3;" horiz-adv-x="1619" d="M66 688q0 160 56 293t155.5 227.5t238.5 146.5t305 52q162 0 295 -51t228.5 -144.5t148.5 -224.5t53 -289q0 -162 -57 -299t-157.5 -237.5t-234.5 -156.5t-290 -56q-145 0 -279.5 55t-237 153.5t-163.5 233.5t-61 297zM492 1217q-96 -76 -150.5 -200t-54.5 -288 q0 -156 44 -283t119.5 -216t176 -137t213.5 -48q109 0 201 44t158.5 125t103 193.5t36.5 249.5q0 195 -71.5 341.5t-190.5 226.5q-66 43 -139.5 66.5t-153.5 23.5q-169 0 -292 -98zM956 1778q41 0 78 -9q31 -6 59.5 -18t41.5 -35l-347 -252l-63 19z" />
<glyph unicode="&#xd4;" horiz-adv-x="1619" d="M66 688q0 160 56 293t155.5 227.5t238.5 146.5t305 52q162 0 295 -51t228.5 -144.5t148.5 -224.5t53 -289q0 -162 -57 -299t-157.5 -237.5t-234.5 -156.5t-290 -56q-145 0 -279.5 55t-237 153.5t-163.5 233.5t-61 297zM492 1217q-96 -76 -150.5 -200t-54.5 -288 q0 -156 44 -283t119.5 -216t176 -137t213.5 -48q109 0 201 44t158.5 125t103 193.5t36.5 249.5q0 195 -71.5 341.5t-190.5 226.5q-66 43 -139.5 66.5t-153.5 23.5q-169 0 -292 -98zM795 1626l-220 -156l-30 15l264 299h33l264 -299l-35 -19z" />
<glyph unicode="&#xd5;" horiz-adv-x="1619" d="M66 688q0 160 56 293t155.5 227.5t238.5 146.5t305 52q162 0 295 -51t228.5 -144.5t148.5 -224.5t53 -289q0 -162 -57 -299t-157.5 -237.5t-234.5 -156.5t-290 -56q-145 0 -279.5 55t-237 153.5t-163.5 233.5t-61 297zM492 1217q-96 -76 -150.5 -200t-54.5 -288 q0 -156 44 -283t119.5 -216t176 -137t213.5 -48q109 0 201 44t158.5 125t103 193.5t36.5 249.5q0 195 -71.5 341.5t-190.5 226.5q-66 43 -139.5 66.5t-153.5 23.5q-169 0 -292 -98zM479 1522q68 94 130.5 150.5t103.5 56.5q29 0 69 -11l81 -21l79 -22q37 -10 59 -10 q53 0 93.5 21.5t72.5 68.5l37 -39q-61 -102 -123.5 -148t-103.5 -46q-35 0 -70 10t-69.5 21.5t-70.5 21.5t-73 10q-106 0 -172 -102z" />
<glyph unicode="&#xd6;" horiz-adv-x="1619" d="M66 688q0 160 56 293t155.5 227.5t238.5 146.5t305 52q162 0 295 -51t228.5 -144.5t148.5 -224.5t53 -289q0 -162 -57 -299t-157.5 -237.5t-234.5 -156.5t-290 -56q-145 0 -279.5 55t-237 153.5t-163.5 233.5t-61 297zM492 1217q-96 -76 -150.5 -200t-54.5 -288 q0 -156 44 -283t119.5 -216t176 -137t213.5 -48q109 0 201 44t158.5 125t103 193.5t36.5 249.5q0 195 -71.5 341.5t-190.5 226.5q-66 43 -139.5 66.5t-153.5 23.5q-169 0 -292 -98zM1096 1690q41 0 70.5 -30t29.5 -71t-29.5 -70.5t-70.5 -29.5t-71 29.5t-30 70.5t30 71 t71 30zM549 1690q41 0 70.5 -30t29.5 -71t-29.5 -70.5t-70.5 -29.5t-70.5 29.5t-29.5 70.5t29.5 71t70.5 30z" />
<glyph unicode="&#xd8;" horiz-adv-x="1613" d="M1190 1309q164 -90 257 -249t93 -362q0 -160 -58.5 -296t-159.5 -234t-237.5 -154.5t-289.5 -56.5q-178 0 -332 82q-35 -59 -73 -136t-68 -153h-125l-13 25q45 59 82 113l66 100q33 51 57 98q-141 98 -232 254t-91 348q0 156 56 286t155.5 225t237.5 148.5t302 53.5 q82 0 157 -14.5t140 -38.5q31 55 61.5 119.5t57.5 129.5h123l14 -26q-37 -47 -70 -94l-57 -84zM1038 1247q-57 33 -121.5 50.5t-134.5 17.5q-180 0 -310 -109.5t-173 -302.5q-18 -84 -18 -176q0 -156 49 -296t135 -228zM537 141q66 -47 137 -71.5t155 -24.5q78 0 140.5 19.5 t113.5 52.5q117 74 183.5 214t66.5 326q0 178 -58 315.5t-159 223.5z" />
<glyph unicode="&#xd9;" horiz-adv-x="1613" d="M223 434q-2 25 -2 50v55q0 80 3 177t3 189q0 59 -1 114.5t-4 98.5t-6 72t-9 37q-10 16 -44 38.5t-114 37.5l6 53q57 -6 129 -9.5t148 -3.5q72 0 142.5 3.5t129.5 9.5l6 -53q-82 -14 -118.5 -40t-47.5 -42q-8 -14 -13 -65.5t-7 -126.5t-3 -165t-1 -182q0 -55 1 -110.5 t5 -116.5q4 -72 25.5 -141.5t67.5 -124t121 -87t187 -32.5q182 0 291 77q72 51 109 125t49 152q10 72 12 153.5t2 147.5q0 59 -2 140t-7 158t-15.5 136.5t-26.5 75.5t-54 35.5t-118 23.5l6 62q59 -4 125 -7t133 -3q63 0 125 4t115 8l2 -55q-57 -6 -93 -28t-53 -46 q-12 -18 -18 -69.5t-9 -120t-4 -150.5l-2 -162l-2 -154q-1 -73 -6 -124q-4 -47 -11 -97.5t-29 -97.5q-41 -86 -118 -163t-204 -116q-45 -14 -100.5 -21t-110.5 -7q-92 0 -160.5 12t-122.5 31q-90 33 -148 85t-92 113.5t-48.5 125t-18.5 120.5zM823 1442l-243 237 q25 29 60.5 44.5t70.5 23.5q39 8 82 10l118 -295z" />
<glyph unicode="&#xda;" horiz-adv-x="1613" d="M223 434q-2 25 -2 50v55q0 80 3 177t3 189q0 59 -1 114.5t-4 98.5t-6 72t-9 37q-10 16 -44 38.5t-114 37.5l6 53q57 -6 129 -9.5t148 -3.5q72 0 142.5 3.5t129.5 9.5l6 -53q-82 -14 -118.5 -40t-47.5 -42q-8 -14 -13 -65.5t-7 -126.5t-3 -165t-1 -182q0 -55 1 -110.5 t5 -116.5q4 -72 25.5 -141.5t67.5 -124t121 -87t187 -32.5q182 0 291 77q72 51 109 125t49 152q10 72 12 153.5t2 147.5q0 59 -2 140t-7 158t-15.5 136.5t-26.5 75.5t-54 35.5t-118 23.5l6 62q59 -4 125 -7t133 -3q63 0 125 4t115 8l2 -55q-57 -6 -93 -28t-53 -46 q-12 -18 -18 -69.5t-9 -120t-4 -150.5l-2 -162l-2 -154q-1 -73 -6 -124q-4 -47 -11 -97.5t-29 -97.5q-41 -86 -118 -163t-204 -116q-45 -14 -100.5 -21t-110.5 -7q-92 0 -160.5 12t-122.5 31q-90 33 -148 85t-92 113.5t-48.5 125t-18.5 120.5zM997 1757q41 0 78 -8 q31 -6 59.5 -18.5t41.5 -34.5l-347 -252l-63 18z" />
<glyph unicode="&#xdb;" horiz-adv-x="1613" d="M223 434q-2 25 -2 50v55q0 80 3 177t3 189q0 59 -1 114.5t-4 98.5t-6 72t-9 37q-10 16 -44 38.5t-114 37.5l6 53q57 -6 129 -9.5t148 -3.5q72 0 142.5 3.5t129.5 9.5l6 -53q-82 -14 -118.5 -40t-47.5 -42q-8 -14 -13 -65.5t-7 -126.5t-3 -165t-1 -182q0 -55 1 -110.5 t5 -116.5q4 -72 25.5 -141.5t67.5 -124t121 -87t187 -32.5q182 0 291 77q72 51 109 125t49 152q10 72 12 153.5t2 147.5q0 59 -2 140t-7 158t-15.5 136.5t-26.5 75.5t-54 35.5t-118 23.5l6 62q59 -4 125 -7t133 -3q63 0 125 4t115 8l2 -55q-57 -6 -93 -28t-53 -46 q-12 -18 -18 -69.5t-9 -120t-4 -150.5l-2 -162l-2 -154q-1 -73 -6 -124q-4 -47 -11 -97.5t-29 -97.5q-41 -86 -118 -163t-204 -116q-45 -14 -100.5 -21t-110.5 -7q-92 0 -160.5 12t-122.5 31q-90 33 -148 85t-92 113.5t-48.5 125t-18.5 120.5zM791 1606l-220 -156l-30 14 l264 299h33l264 -299l-35 -18z" />
<glyph unicode="&#xdc;" horiz-adv-x="1613" d="M223 434q-2 25 -2 50v55q0 80 3 177t3 189q0 59 -1 114.5t-4 98.5t-6 72t-9 37q-10 16 -44 38.5t-114 37.5l6 53q57 -6 129 -9.5t148 -3.5q72 0 142.5 3.5t129.5 9.5l6 -53q-82 -14 -118.5 -40t-47.5 -42q-8 -14 -13 -65.5t-7 -126.5t-3 -165t-1 -182q0 -55 1 -110.5 t5 -116.5q4 -72 25.5 -141.5t67.5 -124t121 -87t187 -32.5q182 0 291 77q72 51 109 125t49 152q10 72 12 153.5t2 147.5q0 59 -2 140t-7 158t-15.5 136.5t-26.5 75.5t-54 35.5t-118 23.5l6 62q59 -4 125 -7t133 -3q63 0 125 4t115 8l2 -55q-57 -6 -93 -28t-53 -46 q-12 -18 -18 -69.5t-9 -120t-4 -150.5l-2 -162l-2 -154q-1 -73 -6 -124q-4 -47 -11 -97.5t-29 -97.5q-41 -86 -118 -163t-204 -116q-45 -14 -100.5 -21t-110.5 -7q-92 0 -160.5 12t-122.5 31q-90 33 -148 85t-92 113.5t-48.5 125t-18.5 120.5zM1059 1690q41 0 70.5 -30 t29.5 -71t-29.5 -70.5t-70.5 -29.5t-71 29.5t-30 70.5t30 71t71 30zM610 1690q41 0 71 -30t30 -71t-30 -70.5t-71 -29.5t-70.5 29.5t-29.5 70.5t29.5 71t70.5 30z" />
<glyph unicode="&#xdd;" horiz-adv-x="1460" d="M870 1898q31 0 61 -8q25 -6 51.5 -21.5t42.5 -42.5l-260 -297l-51 14zM1251 1346q39 0 76 2q33 2 71 4t72 8l7 -57q-41 -6 -73 -24.5t-56 -37.5q-29 -23 -52 -49q-35 -43 -94 -127l-124 -179l-128 -190l-106 -161q0 -176 2 -284t12 -126q14 -23 60.5 -41t117.5 -25 l-6 -61q-68 4 -121 5t-90 3q-43 2 -76 2t-73 -2q-35 -2 -85 -3t-112 -5l-6 55q78 4 117 27.5t53 44.5q6 8 9 40t5 81t2 112v129l-56 89l-80 122l-92 142l-94 142l-85 125l-64 91q-23 27 -49 49q-25 18 -58.5 34.5t-74.5 21.5l8 57q63 -6 116.5 -8t94.5 -4q47 -2 84 -2t84 2 q41 2 94.5 4t118.5 8l4 -57q-74 -10 -120 -31t-46 -45q0 -57 88 -205q39 -68 102 -165l156 -236h17q131 199 201.5 317.5t101.5 179.5l26 60q11 24 11 43q0 27 -40 47t-126 35l6 57q53 -6 102.5 -8t85.5 -4q43 -2 82 -2z" />
<glyph unicode="&#xdf;" horiz-adv-x="1105" d="M365 575q0 -76 1 -145q1 -70 3 -126t4 -97t4 -60q0 -20 22.5 -52t79.5 -46l-6 -51q-47 4 -84 6t-61 4q-29 2 -52 2t-51 -2l-60 -5l-83 -7l-4 53q78 16 102.5 35.5t28.5 60.5q4 33 5 87.5t1 115.5q0 80 -2 157t-6 122q-2 23 -7 40t-19.5 32.5t-41 27.5t-69.5 25v41 q55 12 96 26q23 8 41 15q4 111 18.5 202.5t61.5 180.5q35 66 80 109.5t93 71t95 39t86 11.5q68 0 123 -20.5t95 -56.5t62.5 -85t22.5 -104q0 -61 -33.5 -110.5t-75.5 -93.5t-76 -84t-34 -83q0 -35 17.5 -66.5t54.5 -72.5l127 -135q66 -72 94.5 -138.5t28.5 -144.5 q0 -115 -68 -188q-49 -53 -107.5 -76t-113.5 -23q-39 0 -74 8.5t-61.5 21.5t-42 29.5t-15.5 30.5q0 20 7.5 42t19.5 38.5t27.5 27.5t29.5 11q8 0 20.5 -21.5t31 -47t43 -47t59.5 -21.5q51 0 81.5 40t30.5 99q0 80 -61 174q-12 18 -32 45l-43 55l-45 60l-42 55 q-39 53 -63.5 101.5t-24.5 95.5q0 55 45 106q20 25 46 51.5t47.5 59.5t36 74t14.5 96q0 94 -56.5 156.5t-148.5 62.5q-70 0 -114 -39t-66 -104q-29 -76 -36 -188.5t-7 -233.5v-230z" />
<glyph unicode="&#xe0;" horiz-adv-x="843" d="M518 438q-4 4 -10 4q-25 -23 -60 -40l-70 -36q-36 -18 -67.5 -36.5t-50.5 -42.5q-14 -18 -18 -36t-4 -36q0 -55 26.5 -92t83.5 -37q29 0 55.5 11.5t48 29.5t39 39.5t27.5 42.5q2 23 3 55.5t1 65.5q0 23 -1 40t-1 33v33zM649 768q18 -29 22.5 -63.5t4.5 -75.5 q0 -72 -2 -147.5t-2 -172.5q0 -63 3 -113.5t9 -66.5q14 -41 53 -41q37 0 76 45l27 -47q-47 -57 -102.5 -79.5t-90.5 -22.5q-41 0 -75.5 36.5t-51.5 96.5h-10q-16 -18 -46 -43t-64.5 -45.5t-70.5 -34.5t-67 -14t-63.5 13t-59 39.5t-44 64.5t-17.5 87q0 35 12 76t62 78 q25 18 66 34l89 34l97 38q51 21 94 50q12 10 16 18t4 18q0 31 -2 63t-6 64q-6 53 -49 93.5t-115 40.5q-59 0 -86 -27q-16 -14 -23.5 -33.5t-13.5 -38t-14 -31t-23 -12.5q-41 0 -71.5 29t-30.5 57q0 18 43 43t102.5 46.5t121 35.5t98.5 14q57 0 114 -29.5t86 -76.5zM421 981 l-262 291q25 31 58.5 47t64.5 24q37 8 72 11l145 -353z" />
<glyph unicode="&#xe1;" horiz-adv-x="843" d="M518 438q-4 4 -10 4q-25 -23 -60 -40l-70 -36q-36 -18 -67.5 -36.5t-50.5 -42.5q-14 -18 -18 -36t-4 -36q0 -55 26.5 -92t83.5 -37q29 0 55.5 11.5t48 29.5t39 39.5t27.5 42.5q2 23 3 55.5t1 65.5q0 23 -1 40t-1 33v33zM649 768q18 -29 22.5 -63.5t4.5 -75.5 q0 -72 -2 -147.5t-2 -172.5q0 -63 3 -113.5t9 -66.5q14 -41 53 -41q37 0 76 45l27 -47q-47 -57 -102.5 -79.5t-90.5 -22.5q-41 0 -75.5 36.5t-51.5 96.5h-10q-16 -18 -46 -43t-64.5 -45.5t-70.5 -34.5t-67 -14t-63.5 13t-59 39.5t-44 64.5t-17.5 87q0 35 12 76t62 78 q25 18 66 34l89 34l97 38q51 21 94 50q12 10 16 18t4 18q0 31 -2 63t-6 64q-6 53 -49 93.5t-115 40.5q-59 0 -86 -27q-16 -14 -23.5 -33.5t-13.5 -38t-14 -31t-23 -12.5q-41 0 -71.5 29t-30.5 57q0 18 43 43t102.5 46.5t121 35.5t98.5 14q57 0 114 -29.5t86 -76.5zM510 1356 q31 0 61 -8q25 -6 51.5 -21.5t42.5 -42.5l-260 -297l-51 14z" />
<glyph unicode="&#xe2;" horiz-adv-x="843" d="M518 438q-4 4 -10 4q-25 -23 -60 -40l-70 -36q-36 -18 -67.5 -36.5t-50.5 -42.5q-14 -18 -18 -36t-4 -36q0 -55 26.5 -92t83.5 -37q29 0 55.5 11.5t48 29.5t39 39.5t27.5 42.5q2 23 3 55.5t1 65.5q0 23 -1 40t-1 33v33zM649 768q18 -29 22.5 -63.5t4.5 -75.5 q0 -72 -2 -147.5t-2 -172.5q0 -63 3 -113.5t9 -66.5q14 -41 53 -41q37 0 76 45l27 -47q-47 -57 -102.5 -79.5t-90.5 -22.5q-41 0 -75.5 36.5t-51.5 96.5h-10q-16 -18 -46 -43t-64.5 -45.5t-70.5 -34.5t-67 -14t-63.5 13t-59 39.5t-44 64.5t-17.5 87q0 35 12 76t62 78 q25 18 66 34l89 34l97 38q51 21 94 50q12 10 16 18t4 18q0 31 -2 63t-6 64q-6 53 -49 93.5t-115 40.5q-59 0 -86 -27q-16 -14 -23.5 -33.5t-13.5 -38t-14 -31t-23 -12.5q-41 0 -71.5 29t-30.5 57q0 18 43 43t102.5 46.5t121 35.5t98.5 14q57 0 114 -29.5t86 -76.5zM380 1188 l-204 -201l-31 17l248 374h30l240 -377l-41 -24z" />
<glyph unicode="&#xe3;" horiz-adv-x="843" d="M518 438q-4 4 -10 4q-25 -23 -60 -40l-70 -36q-36 -18 -67.5 -36.5t-50.5 -42.5q-14 -18 -18 -36t-4 -36q0 -55 26.5 -92t83.5 -37q29 0 55.5 11.5t48 29.5t39 39.5t27.5 42.5q2 23 3 55.5t1 65.5q0 23 -1 40t-1 33v33zM649 768q18 -29 22.5 -63.5t4.5 -75.5 q0 -72 -2 -147.5t-2 -172.5q0 -63 3 -113.5t9 -66.5q14 -41 53 -41q37 0 76 45l27 -47q-47 -57 -102.5 -79.5t-90.5 -22.5q-41 0 -75.5 36.5t-51.5 96.5h-10q-16 -18 -46 -43t-64.5 -45.5t-70.5 -34.5t-67 -14t-63.5 13t-59 39.5t-44 64.5t-17.5 87q0 35 12 76t62 78 q25 18 66 34l89 34l97 38q51 21 94 50q12 10 16 18t4 18q0 31 -2 63t-6 64q-6 53 -49 93.5t-115 40.5q-59 0 -86 -27q-16 -14 -23.5 -33.5t-13.5 -38t-14 -31t-23 -12.5q-41 0 -71.5 29t-30.5 57q0 18 43 43t102.5 46.5t121 35.5t98.5 14q57 0 114 -29.5t86 -76.5zM59 1081 q68 94 130.5 150.5t103.5 56.5q29 0 68.5 -10t80.5 -22.5t79 -22.5t65 -10q102 0 162 92l36 -39q-61 -104 -123.5 -149.5t-103.5 -45.5q-35 0 -69 11l-68 21l-70 21q-35 11 -71 11q-106 0 -177 -103z" />
<glyph unicode="&#xe4;" horiz-adv-x="843" d="M518 438q-4 4 -10 4q-25 -23 -60 -40l-70 -36q-36 -18 -67.5 -36.5t-50.5 -42.5q-14 -18 -18 -36t-4 -36q0 -55 26.5 -92t83.5 -37q29 0 55.5 11.5t48 29.5t39 39.5t27.5 42.5q2 23 3 55.5t1 65.5q0 23 -1 40t-1 33v33zM649 768q18 -29 22.5 -63.5t4.5 -75.5 q0 -72 -2 -147.5t-2 -172.5q0 -63 3 -113.5t9 -66.5q14 -41 53 -41q37 0 76 45l27 -47q-47 -57 -102.5 -79.5t-90.5 -22.5q-41 0 -75.5 36.5t-51.5 96.5h-10q-16 -18 -46 -43t-64.5 -45.5t-70.5 -34.5t-67 -14t-63.5 13t-59 39.5t-44 64.5t-17.5 87q0 35 12 76t62 78 q25 18 66 34l89 34l97 38q51 21 94 50q12 10 16 18t4 18q0 31 -2 63t-6 64q-6 53 -49 93.5t-115 40.5q-59 0 -86 -27q-16 -14 -23.5 -33.5t-13.5 -38t-14 -31t-23 -12.5q-41 0 -71.5 29t-30.5 57q0 18 43 43t102.5 46.5t121 35.5t98.5 14q57 0 114 -29.5t86 -76.5zM215 1260 q43 0 73 -30t30 -73q0 -41 -30 -70.5t-73 -29.5q-45 0 -74.5 29.5t-29.5 70.5q0 43 29.5 73t74.5 30zM590 1260q43 0 73 -30t30 -73q0 -41 -30 -70.5t-73 -29.5q-45 0 -74.5 29.5t-29.5 70.5q0 43 29.5 73t74.5 30z" />
<glyph unicode="&#xe5;" horiz-adv-x="843" d="M518 438q-4 4 -10 4q-25 -23 -60 -40l-70 -36q-36 -18 -67.5 -36.5t-50.5 -42.5q-14 -18 -18 -36t-4 -36q0 -55 26.5 -92t83.5 -37q29 0 55.5 11.5t48 29.5t39 39.5t27.5 42.5q2 23 3 55.5t1 65.5q0 23 -1 40t-1 33v33zM649 768q18 -29 22.5 -63.5t4.5 -75.5 q0 -72 -2 -147.5t-2 -172.5q0 -63 3 -113.5t9 -66.5q14 -41 53 -41q37 0 76 45l27 -47q-47 -57 -102.5 -79.5t-90.5 -22.5q-41 0 -75.5 36.5t-51.5 96.5h-10q-16 -18 -46 -43t-64.5 -45.5t-70.5 -34.5t-67 -14t-63.5 13t-59 39.5t-44 64.5t-17.5 87q0 35 12 76t62 78 q25 18 66 34l89 34l97 38q51 21 94 50q12 10 16 18t4 18q0 31 -2 63t-6 64q-6 53 -49 93.5t-115 40.5q-59 0 -86 -27q-16 -14 -23.5 -33.5t-13.5 -38t-14 -31t-23 -12.5q-41 0 -71.5 29t-30.5 57q0 18 43 43t102.5 46.5t121 35.5t98.5 14q57 0 114 -29.5t86 -76.5zM397 1364 q84 0 142.5 -53.5t58.5 -130.5q0 -37 -15.5 -71t-43 -58.5t-64.5 -39t-78 -14.5q-43 0 -79.5 14.5t-64.5 39t-43 58.5t-15 71q0 78 58 131t144 53zM408 1061q43 4 72.5 36.5t29.5 80.5q0 55 -35 87.5t-78 32.5q-53 0 -82.5 -33.5t-29.5 -80.5q0 -59 36 -91t87 -32z" />
<glyph unicode="&#xe6;" horiz-adv-x="1304" d="M1243 530l-18 -38q-53 -10 -123 -12.5t-143.5 -3.5t-146.5 -3t-130 -10l2 -45q4 -43 10 -81t21 -73q35 -76 94 -118t133 -42q43 2 86 13q37 10 80 30.5t82 61.5l29 -51q-51 -68 -109.5 -105t-108.5 -53q-57 -20 -114 -23q-78 0 -159 42t-144 133h-17q-66 -82 -144.5 -127 t-156.5 -45q-31 0 -64.5 9t-61 30.5t-45 57.5t-17.5 87q0 125 106 207q63 47 143.5 78.5t166.5 46.5q2 0 8 2q4 2 11 2t17 4q0 29 -2 55.5t-4 48.5q-4 25 -6 51q-4 53 -50 91t-118 38q-25 0 -52.5 -7t-41.5 -25q-12 -16 -19 -35l-11 -34q-5 -15 -12 -26.5t-21 -11.5 q-39 0 -72 28t-33 66q0 18 42 42t99.5 43.5t119 32.5t100.5 13q57 0 112 -29.5t86 -76.5q4 -4 5 -9t5 -14q68 66 140.5 96.5t140.5 30.5q57 0 102 -28.5t80 -69.5t58.5 -89t38.5 -85zM682 520q49 6 105.5 11.5t108.5 9.5t94 8t63 12q8 2 12 17q2 6 2 12q-10 88 -53 146.5 t-109 58.5q-94 0 -154.5 -65.5t-66.5 -176.5zM524 250q6 37 8.5 71.5t2.5 63.5q0 18 -1.5 33.5t-1.5 27.5q-137 -35 -214.5 -91t-77.5 -156q0 -45 25.5 -79t78.5 -34q39 0 70.5 14.5t54.5 38t37 52t18 59.5z" />
<glyph unicode="&#xe7;" horiz-adv-x="811" d="M565 868q41 -2 77 -8t65 -18q41 -18 50 -27.5t9 -36.5q0 -35 -26.5 -65.5t-55.5 -30.5q-18 0 -32.5 9t-27.5 23l-30 30q-16 16 -39 28q-27 14 -66 14q-47 0 -98 -24.5t-92 -79.5q-35 -47 -50.5 -104.5t-15.5 -116.5q0 -90 31 -171t82 -124q43 -37 88 -52.5t86 -15.5 q72 0 122 35t95 86l33 -49q-74 -84 -149.5 -138.5t-184.5 -54.5q-78 0 -154.5 39t-134.5 121q-29 43 -49 106.5t-20 137.5q0 55 12 112.5t41 114t76 108.5t119 95q51 31 114.5 44t124.5 13zM537 12l-48 -100l7 -10q59 -4 93 -22.5t50 -42t20.5 -44t4.5 -26.5 q0 -43 -20.5 -80t-52.5 -65t-73 -43t-84 -15q-29 0 -57 6q-25 4 -52.5 14t-50.5 31l19 43q33 -18 73 -25.5t64 -7.5q37 0 77 22.5t40 69.5q0 33 -25.5 54.5t-79.5 21.5q-25 0 -55 -6l-10 14l86 160l-14 39z" />
<glyph unicode="&#xe8;" horiz-adv-x="872" d="M795 514q-51 -10 -112.5 -12t-115.5 -2q-74 0 -146.5 1t-174.5 5q-8 -2 -11.5 -8t-3.5 -29v-33q0 -16 2 -33q8 -70 36 -125t68 -93t88 -58.5t101 -20.5q43 2 86 15q37 10 80 33.5t84 68.5l25 -59q-39 -51 -88 -87t-98.5 -58.5t-94.5 -33t-76 -10.5q-68 0 -135 31t-121 84 q-29 29 -49 66t-33.5 76.5t-20.5 79.5t-7 77q0 59 8 115.5t31 107.5q49 117 147 189.5t223 72.5q61 0 111.5 -28.5t86.5 -67.5t58.5 -82t32.5 -69l35 -74zM238 567q23 0 82 1t122 5q74 2 162 7q23 6 23 30q0 10 -5.5 28.5t-11.5 33.5q-23 49 -63.5 88t-102.5 39 q-66 0 -116 -45q-67 -60 -90 -187zM454 981l-262 291q25 31 58.5 47t64.5 24q37 8 72 11l145 -353z" />
<glyph unicode="&#xe9;" horiz-adv-x="872" d="M795 514q-51 -10 -112.5 -12t-115.5 -2q-74 0 -146.5 1t-174.5 5q-8 -2 -11.5 -8t-3.5 -29v-33q0 -16 2 -33q8 -70 36 -125t68 -93t88 -58.5t101 -20.5q43 2 86 15q37 10 80 33.5t84 68.5l25 -59q-39 -51 -88 -87t-98.5 -58.5t-94.5 -33t-76 -10.5q-68 0 -135 31t-121 84 q-29 29 -49 66t-33.5 76.5t-20.5 79.5t-7 77q0 59 8 115.5t31 107.5q49 117 147 189.5t223 72.5q61 0 111.5 -28.5t86.5 -67.5t58.5 -82t32.5 -69l35 -74zM238 567q23 0 82 1t122 5q74 2 162 7q23 6 23 30q0 10 -5.5 28.5t-11.5 33.5q-23 49 -63.5 88t-102.5 39 q-66 0 -116 -45q-67 -60 -90 -187zM545 1356q31 0 61 -8q25 -6 51.5 -21.5t42.5 -42.5l-260 -297l-51 14z" />
<glyph unicode="&#xea;" horiz-adv-x="872" d="M795 514q-51 -10 -112.5 -12t-115.5 -2q-74 0 -146.5 1t-174.5 5q-8 -2 -11.5 -8t-3.5 -29v-33q0 -16 2 -33q8 -70 36 -125t68 -93t88 -58.5t101 -20.5q43 2 86 15q37 10 80 33.5t84 68.5l25 -59q-39 -51 -88 -87t-98.5 -58.5t-94.5 -33t-76 -10.5q-68 0 -135 31t-121 84 q-29 29 -49 66t-33.5 76.5t-20.5 79.5t-7 77q0 59 8 115.5t31 107.5q49 117 147 189.5t223 72.5q61 0 111.5 -28.5t86.5 -67.5t58.5 -82t32.5 -69l35 -74zM238 567q23 0 82 1t122 5q74 2 162 7q23 6 23 30q0 10 -5.5 28.5t-11.5 33.5q-23 49 -63.5 88t-102.5 39 q-66 0 -116 -45q-67 -60 -90 -187zM444 1188l-204 -201l-31 17l248 374h30l240 -377l-41 -24z" />
<glyph unicode="&#xeb;" horiz-adv-x="872" d="M795 514q-51 -10 -112.5 -12t-115.5 -2q-74 0 -146.5 1t-174.5 5q-8 -2 -11.5 -8t-3.5 -29v-33q0 -16 2 -33q8 -70 36 -125t68 -93t88 -58.5t101 -20.5q43 2 86 15q37 10 80 33.5t84 68.5l25 -59q-39 -51 -88 -87t-98.5 -58.5t-94.5 -33t-76 -10.5q-68 0 -135 31t-121 84 q-29 29 -49 66t-33.5 76.5t-20.5 79.5t-7 77q0 59 8 115.5t31 107.5q49 117 147 189.5t223 72.5q61 0 111.5 -28.5t86.5 -67.5t58.5 -82t32.5 -69l35 -74zM238 567q23 0 82 1t122 5q74 2 162 7q23 6 23 30q0 10 -5.5 28.5t-11.5 33.5q-23 49 -63.5 88t-102.5 39 q-66 0 -116 -45q-67 -60 -90 -187zM266 1260q43 0 73 -30t30 -73q0 -41 -30 -70.5t-73 -29.5q-45 0 -74.5 29.5t-29.5 70.5q0 43 29.5 73t74.5 30zM662 1260q43 0 72.5 -30t29.5 -73q0 -41 -29.5 -70.5t-72.5 -29.5q-45 0 -75 29.5t-30 70.5q0 43 30 73t75 30z" />
<glyph unicode="&#xec;" horiz-adv-x="546" d="M379 874l-7 -286q-3 -121 -3 -205q0 -117 3 -185.5t15 -84.5q18 -25 55 -38.5t86 -23.5l-6 -57q-49 6 -110.5 10t-114.5 4q-55 0 -119.5 -4t-116.5 -10l-6 55q53 10 90 24.5t54 37.5q16 23 18 79t2 148q0 49 -1 99t-3 92t-4 72t-4 38q-4 14 -21 31q-14 12 -40.5 27.5 t-71.5 27.5v43q156 53 214 85t58 30zM243 981l-262 291q25 31 58.5 47t64.5 24q37 8 72 11l145 -353z" />
<glyph unicode="&#xed;" horiz-adv-x="546" d="M379 874l-7 -286q-3 -121 -3 -205q0 -117 3 -185.5t15 -84.5q18 -25 55 -38.5t86 -23.5l-6 -57q-49 6 -110.5 10t-114.5 4q-55 0 -119.5 -4t-116.5 -10l-6 55q53 10 90 24.5t54 37.5q16 23 18 79t2 148q0 49 -1 99t-3 92t-4 72t-4 38q-4 14 -21 31q-14 12 -40.5 27.5 t-71.5 27.5v43q156 53 214 85t58 30zM326 1356q31 0 61 -8q25 -6 51.5 -21.5t42.5 -42.5l-260 -297l-51 14z" />
<glyph unicode="&#xee;" horiz-adv-x="546" d="M379 874l-7 -286q-3 -121 -3 -205q0 -117 3 -185.5t15 -84.5q18 -25 55 -38.5t86 -23.5l-6 -57q-49 6 -110.5 10t-114.5 4q-55 0 -119.5 -4t-116.5 -10l-6 55q53 10 90 24.5t54 37.5q16 23 18 79t2 148q0 49 -1 99t-3 92t-4 72t-4 38q-4 14 -21 31q-14 12 -40.5 27.5 t-71.5 27.5v43q156 53 214 85t58 30zM231 1194l-188 -209l-31 16l234 396h26l217 -396l-38 -18z" />
<glyph unicode="&#xef;" horiz-adv-x="546" d="M379 874l-7 -286q-3 -121 -3 -205q0 -117 3 -185.5t15 -84.5q18 -25 55 -38.5t86 -23.5l-6 -57q-49 6 -110.5 10t-114.5 4q-55 0 -119.5 -4t-116.5 -10l-6 55q53 10 90 24.5t54 37.5q16 23 18 79t2 148q0 49 -1 99t-3 92t-4 72t-4 38q-4 14 -21 31q-14 12 -40.5 27.5 t-71.5 27.5v43q156 53 214 85t58 30zM78 1260q43 0 72.5 -30t29.5 -73q0 -41 -29.5 -70.5t-72.5 -29.5q-45 0 -75 29.5t-30 70.5q0 43 30 73t75 30zM455 1260q43 0 72.5 -30t29.5 -73q0 -41 -29.5 -70.5t-72.5 -29.5q-45 0 -75 29.5t-30 70.5q0 43 30 73t75 30z" />
<glyph unicode="&#xf1;" horiz-adv-x="1079" d="M631 49q78 16 99.5 38t27.5 56q10 45 14 120t4 153q0 88 -6 155q-10 90 -54 136.5t-116 46.5q-53 0 -109.5 -22.5t-109.5 -63.5q-16 -12 -20.5 -26.5t-4.5 -35.5q-2 -53 -2 -129v-137v-120q0 -54 4 -87q2 -39 28 -56.5t110 -29.5l-7 -53q-63 8 -116.5 11t-104.5 3t-96 -3 t-92 -11l-6 51q74 20 94 39.5t25 48.5q4 31 6 85t2 118q0 49 -1 99t-3 92t-4.5 72t-4.5 40q-4 16 -18 31q-12 12 -34.5 26.5t-61.5 24.5v41q76 29 125 50.5t77.5 36.5t39.5 23l12 7l24 -5v-145l10 -6q72 53 124.5 83t88 43t58 15t35.5 2q102 0 171.5 -61.5t86.5 -165.5 q4 -23 4 -47v-45q0 -86 -3 -170t-3 -158q0 -51 3 -82t15 -47t40 -24.5t77 -14.5l-6 -57q-121 12 -211 12q-53 0 -102.5 -3t-102.5 -9zM204 1081q68 94 130.5 150.5t103.5 56.5q29 0 68.5 -10t80.5 -22.5t79 -22.5t65 -10q102 0 162 92l36 -39q-61 -104 -123.5 -149.5 t-103.5 -45.5q-35 0 -68 11l-69 21l-70 21q-35 11 -71 11q-106 0 -177 -103z" />
<glyph unicode="&#xf2;" d="M946 446q0 -100 -33.5 -186t-93 -149.5t-138.5 -100.5t-171 -37q-86 0 -164 34t-138.5 94.5t-95 143.5t-34.5 183q0 98 33.5 181t94 143.5t142.5 93.5t180 33q90 0 167 -31t132.5 -87t87 -136.5t31.5 -178.5zM774 418q0 180 -73.5 283.5t-198.5 103.5 q-111 0 -179.5 -95.5t-68.5 -250.5q0 -104 31.5 -197.5t85.5 -146.5q72 -68 161 -68q53 0 98.5 27.5t77 77t49 118t17.5 148.5zM546 981l-262 291q25 31 58.5 47t64.5 24q37 8 72 11l145 -353z" />
<glyph unicode="&#xf3;" d="M946 446q0 -100 -33.5 -186t-93 -149.5t-138.5 -100.5t-171 -37q-86 0 -164 34t-138.5 94.5t-95 143.5t-34.5 183q0 98 33.5 181t94 143.5t142.5 93.5t180 33q90 0 167 -31t132.5 -87t87 -136.5t31.5 -178.5zM774 418q0 180 -73.5 283.5t-198.5 103.5 q-111 0 -179.5 -95.5t-68.5 -250.5q0 -104 31.5 -197.5t85.5 -146.5q72 -68 161 -68q53 0 98.5 27.5t77 77t49 118t17.5 148.5zM590 1356q31 0 61 -8q25 -6 51.5 -21.5t42.5 -42.5l-260 -297l-51 14z" />
<glyph unicode="&#xf4;" d="M946 446q0 -100 -33.5 -186t-93 -149.5t-138.5 -100.5t-171 -37q-86 0 -164 34t-138.5 94.5t-95 143.5t-34.5 183q0 98 33.5 181t94 143.5t142.5 93.5t180 33q90 0 167 -31t132.5 -87t87 -136.5t31.5 -178.5zM774 418q0 180 -73.5 283.5t-198.5 103.5 q-111 0 -179.5 -95.5t-68.5 -250.5q0 -104 31.5 -197.5t85.5 -146.5q72 -68 161 -68q53 0 98.5 27.5t77 77t49 118t17.5 148.5zM501 1188l-204 -201l-31 17l248 374h30l240 -377l-41 -24z" />
<glyph unicode="&#xf5;" d="M167 1081q68 94 130.5 150.5t103.5 56.5q29 0 68.5 -10t80.5 -22.5t79 -22.5t65 -10q102 0 162 92l36 -39q-61 -104 -123.5 -149.5t-103.5 -45.5q-35 0 -69 11l-68 21l-70 21q-35 11 -71 11q-106 0 -177 -103zM946 446q0 -100 -33.5 -186t-93 -149.5t-138.5 -100.5 t-171 -37q-86 0 -164 34t-138.5 94.5t-95 143.5t-34.5 183q0 98 33.5 181t94 143.5t142.5 93.5t180 33q90 0 167 -31t132.5 -87t87 -136.5t31.5 -178.5zM774 418q0 180 -73.5 283.5t-198.5 103.5q-111 0 -179.5 -95.5t-68.5 -250.5q0 -104 31.5 -197.5t85.5 -146.5 q72 -68 161 -68q53 0 98.5 27.5t77 77t49 118t17.5 148.5z" />
<glyph unicode="&#xf6;" d="M946 446q0 -100 -33.5 -186t-93 -149.5t-138.5 -100.5t-171 -37q-86 0 -164 34t-138.5 94.5t-95 143.5t-34.5 183q0 98 33.5 181t94 143.5t142.5 93.5t180 33q90 0 167 -31t132.5 -87t87 -136.5t31.5 -178.5zM774 418q0 180 -73.5 283.5t-198.5 103.5 q-111 0 -179.5 -95.5t-68.5 -250.5q0 -104 31.5 -197.5t85.5 -146.5q72 -68 161 -68q53 0 98.5 27.5t77 77t49 118t17.5 148.5zM323 1260q43 0 73 -30t30 -73q0 -41 -30 -70.5t-73 -29.5q-45 0 -74.5 29.5t-29.5 70.5q0 43 29.5 73t74.5 30zM698 1260q43 0 73 -30t30 -73 q0 -41 -30 -70.5t-73 -29.5q-45 0 -74.5 29.5t-29.5 70.5q0 43 29.5 73t74.5 30z" />
<glyph unicode="&#xf7;" horiz-adv-x="1331" d="M686 -18q-47 0 -81 33.5t-34 80.5t34 81t81 34t81 -34t34 -81t-34 -80.5t-81 -33.5zM686 801q-47 0 -81 33.5t-34 80.5t34 81t81 34t81 -33.5t34 -81.5q0 -47 -34 -80.5t-81 -33.5zM1237 565l-12 -121q-86 4 -203 5.5t-250 1.5q-166 0 -340 -3.5t-323 -9.5l-11 29l39 100 z" />
<glyph unicode="&#xf8;" d="M854 1044l4 -26q-23 -35 -49 -84l-59 -115q111 -63 153.5 -158.5t42.5 -218.5q0 -98 -32.5 -183t-91 -146.5t-137.5 -97t-169 -35.5q-86 0 -162 30q-33 -72 -56.5 -129t-37.5 -98h-104l-11 24l51 88q35 62 80 150q-92 66 -143 163t-51 218q0 98 34 180t93 141.5t141 92 t178 32.5q35 0 69 -5t67 -15q31 70 50 120t25 72h115zM393 98q61 -47 152 -47q53 0 96 29t73.5 80t48 118.5t17.5 147.5q0 37 -3 78t-12 81t-25.5 73.5t-43.5 58.5l-76 -151l-78 -159l-78 -158zM252 449q0 -84 19.5 -159t60.5 -134l75 153l78 160l75 158l67 145 q-53 33 -131 33q-53 0 -98.5 -26.5t-77 -75t-50 -113.5t-18.5 -141z" />
<glyph unicode="&#xf9;" horiz-adv-x="1056" d="M340 850q-2 -20 -6 -70.5t-7 -115.5l-7 -140q-3 -73 -3 -141q0 -49 2.5 -94t6.5 -72q10 -53 49 -88t108 -35q43 0 81 14.5t69 37t52.5 51t33.5 59.5q8 16 9 32.5t1 33.5v136q0 64 -1 114.5t-3 83t-4 44.5q-4 12 -21 27q-14 10 -41.5 23.5t-76.5 23.5v45q78 6 131 13.5 t88 13.5q39 8 63 16l29 -12q-4 -18 -6 -65.5t-4 -109t-3 -130t-1 -131.5q0 -104 3 -162.5t19 -75.5q14 -14 39 -27.5t72 -23.5v-39q-59 -16 -107.5 -33.5t-81.5 -34.5q-39 -20 -67 -38l-29 12v141l-16 6q-174 -162 -312 -162q-80 0 -147.5 48.5t-83.5 134.5q-6 29 -8 62.5 t-2 68.5q0 27 1 69.5t3 90t3 95.5t1 87q0 37 -2 59.5t-13.5 35.5t-35 21.5t-66.5 18.5v45q72 10 121 19l82 16q37 8 61 14zM516 981l-262 291q25 31 58.5 47t64.5 24q37 8 72 11l145 -353z" />
<glyph unicode="&#xfa;" horiz-adv-x="1056" d="M340 850q-2 -20 -6 -70.5t-7 -115.5l-7 -140q-3 -73 -3 -141q0 -49 2.5 -94t6.5 -72q10 -53 49 -88t108 -35q43 0 81 14.5t69 37t52.5 51t33.5 59.5q8 16 9 32.5t1 33.5v136q0 64 -1 114.5t-3 83t-4 44.5q-4 12 -21 27q-14 10 -41.5 23.5t-76.5 23.5v45q78 6 131 13.5 t88 13.5q39 8 63 16l29 -12q-4 -18 -6 -65.5t-4 -109t-3 -130t-1 -131.5q0 -104 3 -162.5t19 -75.5q14 -14 39 -27.5t72 -23.5v-39q-59 -16 -107.5 -33.5t-81.5 -34.5q-39 -20 -67 -38l-29 12v141l-16 6q-174 -162 -312 -162q-80 0 -147.5 48.5t-83.5 134.5q-6 29 -8 62.5 t-2 68.5q0 27 1 69.5t3 90t3 95.5t1 87q0 37 -2 59.5t-13.5 35.5t-35 21.5t-66.5 18.5v45q72 10 121 19l82 16q37 8 61 14zM598 1356q31 0 61 -8q25 -6 51.5 -21.5t42.5 -42.5l-260 -297l-51 14z" />
<glyph unicode="&#xfb;" horiz-adv-x="1056" d="M340 850q-2 -20 -6 -70.5t-7 -115.5l-7 -140q-3 -73 -3 -141q0 -49 2.5 -94t6.5 -72q10 -53 49 -88t108 -35q43 0 81 14.5t69 37t52.5 51t33.5 59.5q8 16 9 32.5t1 33.5v136q0 64 -1 114.5t-3 83t-4 44.5q-4 12 -21 27q-14 10 -41.5 23.5t-76.5 23.5v45q78 6 131 13.5 t88 13.5q39 8 63 16l29 -12q-4 -18 -6 -65.5t-4 -109t-3 -130t-1 -131.5q0 -104 3 -162.5t19 -75.5q14 -14 39 -27.5t72 -23.5v-39q-59 -16 -107.5 -33.5t-81.5 -34.5q-39 -20 -67 -38l-29 12v141l-16 6q-174 -162 -312 -162q-80 0 -147.5 48.5t-83.5 134.5q-6 29 -8 62.5 t-2 68.5q0 27 1 69.5t3 90t3 95.5t1 87q0 37 -2 59.5t-13.5 35.5t-35 21.5t-66.5 18.5v45q72 10 121 19l82 16q37 8 61 14zM493 1188l-204 -201l-31 17l248 374h30l240 -377l-41 -24z" />
<glyph unicode="&#xfc;" horiz-adv-x="1056" d="M340 850q-2 -20 -6 -70.5t-7 -115.5l-7 -140q-3 -73 -3 -141q0 -49 2.5 -94t6.5 -72q10 -53 49 -88t108 -35q43 0 81 14.5t69 37t52.5 51t33.5 59.5q8 16 9 32.5t1 33.5v136q0 64 -1 114.5t-3 83t-4 44.5q-4 12 -21 27q-14 10 -41.5 23.5t-76.5 23.5v45q78 6 131 13.5 t88 13.5q39 8 63 16l29 -12q-4 -18 -6 -65.5t-4 -109t-3 -130t-1 -131.5q0 -104 3 -162.5t19 -75.5q14 -14 39 -27.5t72 -23.5v-39q-59 -16 -107.5 -33.5t-81.5 -34.5q-39 -20 -67 -38l-29 12v141l-16 6q-174 -162 -312 -162q-80 0 -147.5 48.5t-83.5 134.5q-6 29 -8 62.5 t-2 68.5q0 27 1 69.5t3 90t3 95.5t1 87q0 37 -2 59.5t-13.5 35.5t-35 21.5t-66.5 18.5v45q72 10 121 19l82 16q37 8 61 14zM315 1260q43 0 73 -30t30 -73q0 -41 -30 -70.5t-73 -29.5q-45 0 -74.5 29.5t-29.5 70.5q0 43 29.5 73t74.5 30zM690 1260q43 0 73 -30t30 -73 q0 -41 -30 -70.5t-73 -29.5q-45 0 -74.5 29.5t-29.5 70.5q0 43 29.5 73t74.5 30z" />
<glyph unicode="&#xfd;" horiz-adv-x="976" d="M126 1370q31 0 61 -8q25 -6 51.5 -21.5t42.5 -42.5l-260 -297l-51 14zM430 -23l-106 275l-82 201q-35 84 -60.5 138t-44.5 87q-16 31 -29.5 49t-30 29.5t-39.5 19.5l-54 19l12 59q39 -6 78 -9t69 -5q37 -2 70 -2t70 2q31 2 70.5 3t80.5 5l2 -53q-39 -6 -60.5 -15.5 t-32.5 -19.5t-13 -18.5t-2 -14.5q0 -8 4 -35.5t22.5 -89t54 -165t101.5 -263.5h14q25 55 50 118l48 126l42 116l30 91q4 14 8.5 33.5t4.5 39.5q0 18 -5.5 32.5t-19.5 25t-41 18.5t-70 19l4 55q37 -4 74 -5t68 -3q37 -2 69 -2q29 0 62 2q29 2 65.5 4t77.5 8l6 -57 q-37 -8 -61.5 -16.5t-41.5 -22t-31.5 -34t-33.5 -52.5q-29 -55 -67 -140l-82 -179l-86 -193l-80 -184l-64 -146l-36 -84q-41 -84 -83 -135t-79 -78t-66.5 -35t-42.5 -8q-39 0 -67.5 21.5t-28.5 66.5q0 10 4 23q4 10 10.5 22t20.5 25q86 0 139 28.5t76 51.5q12 12 25.5 28.5 t29 45t34.5 71.5t44 106z" />
<glyph unicode="&#xff;" horiz-adv-x="976" d="M430 -23l-106 275l-82 201q-35 84 -60.5 138t-44.5 87q-16 31 -29.5 49t-30 29.5t-38.5 19.5l-55 19l12 59q39 -6 78 -9t69 -5q37 -2 70 -2t70 2q31 2 70.5 3t80.5 5l2 -53q-39 -6 -60.5 -15.5t-32.5 -19.5t-13 -18.5t-2 -14.5q0 -8 4 -35.5t22.5 -89t54 -165 t101.5 -263.5h14q25 55 50 119l48 125l42 116l30 91q4 14 8.5 33.5t4.5 39.5q0 18 -5.5 32.5t-19.5 25t-41 18.5t-70 19l4 55q37 -4 74 -5t68 -3q37 -2 69 -2q29 0 62 2q29 2 65.5 4t77.5 8l6 -57q-37 -8 -61.5 -16.5t-41.5 -22t-31.5 -34t-33.5 -52.5q-29 -55 -67 -140 l-82 -179l-86 -194l-80 -183l-63 -146l-37 -84q-41 -84 -83 -135t-79 -78t-66.5 -35t-42.5 -8q-39 0 -67.5 21.5t-28.5 66.5q0 10 4 23q4 10 10.5 22t20.5 25q86 0 139 28.5t76 51.5q12 12 25.5 28.5t29 45t34.5 71.5t44 106zM307 1260q43 0 73 -30t30 -73q0 -41 -30 -70.5 t-73 -29.5q-45 0 -74.5 29.5t-29.5 70.5q0 43 29.5 73t74.5 30zM705 1260q43 0 72.5 -30t29.5 -73q0 -41 -29.5 -70.5t-72.5 -29.5q-45 0 -75 29.5t-30 70.5q0 43 30 73t75 30z" />
<glyph unicode="&#x131;" horiz-adv-x="546" d="M379 874l-7 -286q-3 -121 -3 -205q0 -117 3 -185.5t15 -84.5q18 -25 55 -38.5t86 -23.5l-6 -57q-49 6 -110.5 10t-114.5 4q-55 0 -119.5 -4t-116.5 -10l-6 55q53 10 90 24.5t54 37.5q16 23 18 79t2 148q0 49 -1 99t-3 92t-4 72t-4 38q-4 14 -21 31q-14 12 -40.5 27.5 t-71.5 27.5v43q156 53 214 85t58 30z" />
<glyph unicode="&#x152;" horiz-adv-x="2125" d="M1114 680q0 190 -4 324.5t-14 175.5q-10 35 -32 55t-48 31q-29 10 -68 15t-96 5q-162 0 -269.5 -46t-171 -124t-90 -181.5t-26.5 -217.5q0 -139 35 -257t107.5 -202t184 -131t265.5 -47q23 0 55.5 2t73.5 8q51 8 67.5 21.5t20.5 58.5q4 68 7 183.5t3 244.5v82zM1356 1352 q121 0 217 2t170 2q117 0 250 -6l35 -320l-56 -6q-25 92 -68.5 158.5t-119.5 74.5q-41 4 -99.5 5.5t-117.5 1.5q-43 0 -85 -1t-77 -2t-59.5 -2.5t-32.5 -3.5q-4 -14 -6 -54t-4.5 -96t-3.5 -127t-1 -144v-91h28q28 0 69 1t91 2.5t95 3.5t79 5t46 7q18 6 32.5 13t27 21.5 t23.5 38t26 62.5l49 -6q-10 -55 -15.5 -107.5t-5.5 -103.5q0 -45 4 -91t13 -95l-54 -7q-6 45 -21.5 77t-35.5 51.5t-43 29.5t-47 14q-47 6 -119 7.5t-137 1.5h-105v-159q0 -79 3 -146l4 -121q2 -54 6 -84q4 -35 29.5 -43.5t60.5 -12.5q47 -6 89 -9t103 -3q66 0 120 4t73 12 q63 29 118.5 93.5t86.5 150.5l61 -10v2q-18 -98 -34 -160l-27 -104q-14 -47 -25 -74q-51 -4 -107.5 -6t-127.5 -2q-84 0 -201 4t-232 4q-90 0 -180 -7t-209 -7q-86 0 -162.5 5t-136.5 17q-135 27 -236.5 94.5t-170 157.5t-103 196.5t-34.5 213.5q0 174 59 305t162.5 218 t240 130t289.5 43q43 0 106.5 -3t136.5 -6l150 -6q76 -3 146 -3z" />
<glyph unicode="&#x153;" horiz-adv-x="1513" d="M1442 164q-59 -72 -119.5 -111t-112.5 -55q-59 -23 -116 -23q-82 0 -156 43t-119 123h-14q-53 -78 -128 -121t-167 -43q-86 0 -164 33t-138.5 92.5t-95 142.5t-34.5 183q0 98 33.5 181t94 143.5t142.5 93.5t180 33t175 -44t124 -124h15q51 72 124.5 117.5t163.5 45.5 q61 0 111.5 -28.5t86.5 -67.5t58.5 -82t30.5 -69l35 -74l-16 -39q-29 -6 -65 -8t-68 -4q-37 -2 -78 -2h-80q-78 0 -225 6q-12 -6 -13 -6l-2 -2q0 -186 68.5 -294t195.5 -108q41 2 84 17q37 12 80 37.5t84 72.5zM1245 580q25 6 25 30q0 25 -13.5 56.5t-37 61.5t-56.5 50.5 t-73 20.5q-55 0 -99 -37q-66 -57 -82 -195zM498 805q-53 0 -98.5 -24.5t-77 -69.5t-50 -106.5t-18.5 -137.5q0 -92 22.5 -169t59.5 -131t86 -85t104 -31q98 0 150 88q29 47 44 117t15 156q0 184 -64 288.5t-173 104.5z" />
<glyph unicode="&#x178;" horiz-adv-x="1460" d="M1251 1346q39 0 76 2q33 2 71 4t72 8l7 -57q-41 -6 -73 -24.5t-56 -37.5q-29 -23 -52 -49q-35 -43 -94 -127l-125 -179l-128 -191l-105 -160q0 -176 2 -284t12 -126q14 -23 60.5 -41t117.5 -25l-6 -61q-68 4 -121 5t-90 3q-43 2 -76 2t-73 -2q-35 -2 -85 -3t-112 -5 l-6 55q78 4 117 27.5t53 44.5q6 8 9 40t5 81t2 111v130l-56 88l-80 123l-92 141l-94 143l-85 125l-64 91q-23 27 -49 49q-25 18 -58.5 34.5t-74.5 21.5l8 57q63 -6 116.5 -8t94.5 -4q47 -2 84 -2t84 2q41 2 94.5 4t118.5 8l4 -57q-74 -10 -120 -31t-46 -45q0 -57 88 -205 q39 -68 102 -165l156 -236h17q131 199 201.5 317.5t101.5 179.5l26 59q11 25 11 44q0 27 -40 47t-126 35l6 57q53 -6 102.5 -8t85.5 -4q43 -2 82 -2zM567 1690q41 0 71 -30t30 -71t-30 -70.5t-71 -29.5t-70.5 29.5t-29.5 70.5t29.5 71t70.5 30zM1022 1690q41 0 70.5 -30 t29.5 -71t-29.5 -70.5t-70.5 -29.5t-70.5 29.5t-29.5 70.5t29.5 71t70.5 30z" />
<glyph unicode="&#x2c6;" d="M489 1188l-204 -201l-31 17l248 374h30l240 -377l-41 -24z" />
<glyph unicode="&#x2da;" horiz-adv-x="843" d="M397 1364q84 0 142.5 -53.5t58.5 -130.5q0 -37 -15.5 -71t-43 -58.5t-64.5 -39t-78 -14.5q-43 0 -79.5 14.5t-64.5 39t-43 58.5t-15 71q0 78 58 131t144 53zM408 1061q43 4 72.5 36.5t29.5 80.5q0 55 -35 87.5t-78 32.5q-53 0 -82.5 -33.5t-29.5 -80.5q0 -59 36 -91 t87 -32z" />
<glyph unicode="&#x2dc;" d="M147 1081q68 94 130.5 150.5t103.5 56.5q29 0 68.5 -10t80.5 -22.5t79 -22.5t65 -10q102 0 162 92l36 -39q-61 -104 -123.5 -149.5t-103.5 -45.5q-35 0 -69 11l-68 21l-70 21q-35 11 -71 11q-106 0 -177 -103z" />
<glyph unicode="&#x2000;" horiz-adv-x="949" />
<glyph unicode="&#x2001;" horiz-adv-x="1898" />
<glyph unicode="&#x2002;" horiz-adv-x="949" />
<glyph unicode="&#x2003;" horiz-adv-x="1898" />
<glyph unicode="&#x2004;" horiz-adv-x="632" />
<glyph unicode="&#x2005;" horiz-adv-x="474" />
<glyph unicode="&#x2006;" horiz-adv-x="316" />
<glyph unicode="&#x2007;" horiz-adv-x="316" />
<glyph unicode="&#x2008;" horiz-adv-x="237" />
<glyph unicode="&#x2009;" horiz-adv-x="379" />
<glyph unicode="&#x200a;" horiz-adv-x="105" />
<glyph unicode="&#x2010;" horiz-adv-x="659" d="M569 477l-456 -39l-15 17l15 135l456 18v-131z" />
<glyph unicode="&#x2011;" horiz-adv-x="659" d="M569 477l-456 -39l-15 17l15 135l456 18v-131z" />
<glyph unicode="&#x2012;" horiz-adv-x="659" d="M569 477l-456 -39l-15 17l15 135l456 18v-131z" />
<glyph unicode="&#x2013;" horiz-adv-x="1331" d="M1227 571l-13 -118q-86 4 -202.5 5t-249.5 1q-166 0 -340 -3t-324 -10l-10 29l39 98z" />
<glyph unicode="&#x2014;" horiz-adv-x="1626" d="M1507 571l-12 -118q-43 2 -112.5 3t-149.5 2t-161 1h-146q-84 0 -192 -1l-220 -2q-113 -1 -217 -4t-178 -6l-10 29l38 98z" />
<glyph unicode="&#x2018;" horiz-adv-x="409" d="M195 889q-41 0 -70 22q-68 55 -68 152q0 59 27 123.5t80 120.5q37 39 80 69.5t86 46.5l41 -47q-59 -29 -105.5 -85t-46.5 -134q0 -41 26.5 -78t73.5 -51q0 -57 -38.5 -98t-85.5 -41z" />
<glyph unicode="&#x2019;" horiz-adv-x="409" d="M254 1421q31 0 54.5 -16.5t40 -41t25.5 -54t9 -56.5q0 -61 -26.5 -118.5t-68.5 -105.5t-95.5 -86t-106.5 -58l-41 47q29 14 60.5 37.5t57 53.5t42 61.5t16.5 62.5q0 41 -24.5 81t-71.5 54q0 57 41 98t88 41z" />
<glyph unicode="&#x201a;" horiz-adv-x="409" d="M254 264q31 0 54.5 -16.5t40 -41t25.5 -54t9 -56.5q0 -61 -26.5 -118.5t-68.5 -105.5t-95.5 -86t-106.5 -58l-41 47q29 14 60.5 37.5t57 53.5t42 61.5t16.5 62.5q0 41 -24.5 81t-71.5 54q0 57 41 98t88 41z" />
<glyph unicode="&#x201c;" horiz-adv-x="737" d="M324 1073q4 -16 4 -24q0 -45 -33 -84t-80 -39q-27 0 -53.5 12t-48 33.5t-34.5 53.5t-13 71q4 59 28 118q23 51 66 109.5t129 110.5l35 -43q-61 -43 -91 -92.5t-30 -96.5t31 -83t90 -46zM666 1073q2 -6 2 -22q0 -45 -32 -85t-79 -40q-27 0 -54.5 12t-49 33.5t-34.5 53.5 t-13 71q4 59 28 118q23 51 66 109.5t129 110.5l35 -43q-61 -43 -91 -92.5t-30 -94.5q0 -49 32 -85t91 -46z" />
<glyph unicode="&#x201d;" horiz-adv-x="735" d="M57 1284q-2 8 -2 23q0 45 32 85t79 40q27 0 54.5 -12.5t49 -34t34.5 -53.5t13 -70q-4 -59 -28 -119q-23 -51 -67 -109.5t-128 -109.5l-35 43q61 43 91 92t30 96t-32 83t-91 46zM414 1284q-2 8 -2 25q0 45 31.5 84t78.5 39q27 0 53.5 -12.5t48 -34t35 -53.5t13.5 -70 q-4 -59 -29 -119q-23 -51 -67 -109.5t-127 -109.5l-35 43q63 43 92 93t29 95q0 47 -31 83t-90 46z" />
<glyph unicode="&#x201e;" horiz-adv-x="735" d="M59 123q-2 8 -2 23q0 45 32 85t79 40q27 0 54.5 -12.5t49 -34t34.5 -53.5t13 -70q-4 -59 -28 -119q-23 -51 -67 -109.5t-128 -109.5l-35 43q61 43 91 92t30 96t-32 83t-91 46zM416 123q-2 8 -2 25q0 45 31.5 84t78.5 39q27 0 53.5 -12.5t48 -34t35 -53.5t13.5 -70 q-4 -59 -29 -119q-23 -51 -67 -109.5t-127 -109.5l-35 43q63 43 92 93t29 95q0 47 -31 83t-90 46z" />
<glyph unicode="&#x2022;" horiz-adv-x="614" d="M303 344q-37 0 -70.5 16.5t-59.5 44t-40 63.5t-14 75t14 74.5t40 61.5t59.5 41t70.5 15q39 0 73 -15t59.5 -41t41 -61.5t15.5 -74.5t-15.5 -75t-41 -63.5t-59.5 -44t-73 -16.5z" />
<glyph unicode="&#x2026;" horiz-adv-x="1396" d="M240 -8q-43 0 -73 29.5t-30 72.5q0 41 30 71t73 30q41 0 70.5 -30t29.5 -71q0 -43 -29.5 -72.5t-70.5 -29.5zM688 -8q-41 0 -70.5 29.5t-29.5 72.5q0 41 29.5 71t70.5 30q43 0 73 -30t30 -71q0 -43 -30 -72.5t-73 -29.5zM1153 -8q-41 0 -71.5 29.5t-30.5 72.5 q0 41 30.5 71t71.5 30q43 0 72.5 -30t29.5 -71q0 -43 -29.5 -72.5t-72.5 -29.5z" />
<glyph unicode="&#x202f;" horiz-adv-x="379" />
<glyph unicode="&#x2039;" horiz-adv-x="512" d="M436 106q-29 31 -84 84l-128 120l-208 186v30q121 98 201 169l129 118q57 53 90 90l41 -39l-266 -332l266 -387z" />
<glyph unicode="&#x203a;" horiz-adv-x="512" d="M66 903q29 -31 84 -84l126 -117q80 -71 209 -176v-30q-123 -104 -201 -177l-128 -120q-57 -55 -90 -93l-41 39l266 332l-266 387z" />
<glyph unicode="&#x2044;" horiz-adv-x="1740" d="M1372 1466l103 -20v-21l-533 -683l-559 -765l-111 29z" />
<glyph unicode="&#x205f;" horiz-adv-x="474" />
<glyph unicode="&#x20ac;" horiz-adv-x="1126" d="M711 1206q-51 0 -113.5 -27.5t-114.5 -88.5q-66 -80 -94.5 -191t-28.5 -240q0 -125 30 -248.5t91 -220.5q37 -59 92.5 -98t126.5 -39q66 0 109 33t53 80q6 27 6 49.5t2 39.5t12.5 27.5t39.5 10.5q41 0 66.5 -38t25.5 -83q0 -20 -15.5 -54t-52.5 -67t-97.5 -56.5 t-152.5 -23.5q-127 0 -225 53.5t-165.5 143.5t-103.5 212t-36 261q0 137 45 254t123 203t179 135t216 49q78 0 146.5 -17.5t113.5 -43.5q18 -12 30.5 -26.5t12.5 -29.5q0 -39 -8 -71.5t-21.5 -57t-29 -39t-29.5 -14.5q-27 0 -36 35t-25.5 77t-53 76.5t-118.5 34.5zM786 721 q-152 6 -315 6q-121 0 -245 -3t-222 -11l-6 24l47 80q59 -2 151 -2h189h135q68 0 129.5 1t115.5 2t93 3l2 -30zM766 473q-152 6 -309 6q-117 0 -236 -3t-217 -11l-6 24l47 80q51 -2 119 -2h145h145q76 0 147 1t132.5 2t104.5 3l2 -30z" />
<glyph unicode="&#x2122;" horiz-adv-x="1822" d="M672 1151q-10 47 -21.5 74.5t-30 41t-47 17.5t-73.5 4q-2 -29 -3 -71.5t-1 -92.5q0 -41 1 -80.5t2 -71.5t3 -53.5t4 -27.5q4 -14 16 -23q10 -8 29.5 -15t52.5 -7l-4 -51q-41 2 -70.5 4t-52.5 2h-43h-41q-20 0 -51 -2t-72 -4l-2 47q25 2 43.5 10t28.5 18q12 10 22 23 q6 8 8.5 60.5t2.5 125.5q0 59 -1 116.5t-3 92.5q-49 0 -79 -6t-47.5 -21.5t-29.5 -42t-27 -67.5l-43 8l29 203h49q45 -8 104.5 -11t92.5 -3q57 0 98 1t73 2t57.5 4t53.5 7l15 -4v-205zM1630 883q6 -10 17 -19q10 -8 25.5 -14t41.5 -10l-4 -47q-29 2 -52.5 4t-41.5 2h-41h-39 q-20 0 -49 -2t-66 -4l-4 49q18 2 30.5 8t20.5 14t15 19q6 8 6 88q0 55 -2 123.5t-4 126.5h-15l-215 -441l-45 -4l-207 461h-14q-4 -53 -6 -129t-2 -135q0 -82 6 -90q4 -12 14 -21q8 -8 22.5 -14t37.5 -6l-4 -49l-44 4q-22 2 -38 2h-37h-41q-18 0 -41 -2l-45 -4l-4 47 q14 0 29.5 6t27.5 14t20 16l7 7q4 6 8 40.5t7 82t5 100.5t2 96q0 51 -4 68q-8 10 -18 18q-10 6 -23.5 12.5t-34.5 8.5l5 51q63 -6 108 -6h45h17h31q20 0 55 2q12 -31 34 -81l45 -105l46 -105l36 -84h19l46 95l49 104l45 100q20 47 34 76q41 -2 66 -2h38h25h39q37 0 78 6 l4 -51q-23 -2 -39.5 -8.5t-26.5 -12.5q-12 -8 -18 -18q-2 -10 -2 -31v-51q0 -43 1 -94.5t4 -95.5t7 -76.5t8 -38.5z" />
<glyph unicode="&#xe000;" horiz-adv-x="850" d="M0 850h850v-850h-850v850z" />
<glyph unicode="&#xfb01;" horiz-adv-x="1103" d="M1081 -4q-47 4 -100 7t-109 3q-51 0 -102 -3t-98 -7l-6 55q74 16 98 33.5t31 48.5q4 33 7 99.5t3 142.5q0 45 -1 89t-2 81t-3 62.5t-4 35.5q-4 23 -10.5 37t-18.5 24.5t-32.5 15.5t-51.5 9q-29 4 -80 5t-104 1h-56q-28 0 -51 -2q-2 -51 -2 -101v-100q0 -72 1 -136 t2 -117.5t3 -91t6 -56.5q4 -18 23 -35q14 -14 43 -27.5t78 -17.5l-6 -55q-123 12 -232 12q-102 0 -207 -12l-6 55q41 12 65.5 20.5t38 17.5t19.5 19.5t8 24.5q4 31 7.5 82t4.5 115l2 133q1 69 1 137v68q0 32 -2 63h-181l-8 53l189 74q2 53 9 97t15 79q8 39 21 72 q29 80 82 143.5t118.5 108.5t137 69.5t137.5 24.5q37 0 76.5 -7t72.5 -19.5t53.5 -29t20.5 -36.5t-9 -43t-23.5 -42.5t-32 -32.5t-35.5 -15q-66 61 -114 87.5t-108 26.5q-92 0 -150 -55t-93 -184q-14 -55 -19.5 -128t-5.5 -138q43 -6 100.5 -8.5t114.5 -2.5q68 0 124 2t79 7 q6 0 22.5 6t36 14t38 16.5t24.5 14.5l31 -13q-4 -168 -7.5 -287.5t-3.5 -205.5q0 -119 2 -175.5t6 -76.5q4 -29 30 -46.5t99 -27.5z" />
<glyph unicode="&#xfb02;" horiz-adv-x="1142" d="M524 -4q-102 12 -215 12q-55 0 -107 -3t-102 -11l-6 55q82 20 105.5 38.5t27.5 53.5q2 27 4 74l4 101q3 55 3 110v100q0 76 -1 133.5t-6 71.5h-174l-8 53l184 74q6 106 37 211q25 82 74 145.5t110.5 106.5t130 64.5t134.5 21.5q55 0 102 -10q31 10 73 33.5t62 39.5l29 -6 q-4 -129 -6 -234.5t-2 -182.5q-2 -90 0 -160v-434q0 -109 2 -201t10 -129q4 -18 25.5 -40t99.5 -34l-6 -55q-117 12 -213 12t-201 -12l-6 53q70 16 93.5 32.5t27.5 39.5q6 23 8 65.5t4 95t2 109.5v111v360v102q0 60 -2 115.5t-6 98.5t-10 55q-8 20 -30.5 34.5t-49.5 23.5 t-53.5 13.5t-44.5 4.5q-84 0 -132.5 -44t-73 -104.5t-30.5 -124t-6 -102.5q0 -29 1 -53.5t3 -34.5h268l-12 -115h-254v-180v-128q0 -61 1 -114t2 -94t3 -66q2 -35 29 -61.5t104 -34.5z" />
<glyph unicode="&#xfb03;" horiz-adv-x="1926" d="M1759 874l-7 -286q-3 -121 -3 -205q0 -117 3 -185.5t15 -84.5q18 -25 55 -38.5t86 -23.5l-6 -57q-49 6 -110.5 10t-114.5 4q-55 0 -119.5 -4t-116.5 -10l-6 55q53 10 90 24.5t54 37.5q16 23 18 79t2 148q0 49 -1 99t-3 92t-4 72t-4 38q-4 14 -21 31q-14 12 -40.5 27.5 t-71.5 27.5v43q156 53 214 85t58 30zM1554 1212q0 49 33 83t80 34q51 0 85 -33.5t34 -83.5q0 -47 -34 -79.5t-85 -32.5q-47 0 -80 32.5t-33 79.5zM1360 1452q53 0 96 -14.5t43 -32.5q0 -23 -8 -45q-6 -18 -19.5 -40t-36.5 -40q-10 6 -31.5 17.5t-48 21.5t-53 18.5t-47.5 8.5 q-47 0 -89 -36t-62 -134q-10 -41 -16.5 -130.5t-6.5 -201.5h268l-12 -115h-254v-180v-139q0 -68 1 -124.5t3 -96t4 -58.5q4 -20 25 -37q16 -14 51 -26.5t94 -16.5l-6 -55q-129 12 -237 12q-61 0 -117.5 -4t-108.5 -10l-6 55q41 12 66.5 21.5t40 18.5t19.5 19.5t7 24.5 q2 16 4.5 58t3.5 97q1 54 2 116q1 61 1 120q0 76 -1 133.5t-6 71.5h-174l-10 55l189 74q0 66 8 129.5t26 124.5q25 82 68 145.5t96 106.5t114 65.5t120 22.5zM670 1452q53 0 96 -14.5t43 -32.5q0 -23 -8 -45q-6 -18 -19.5 -40t-36.5 -40q-10 6 -31.5 17.5t-48 21.5t-53 18.5 t-47.5 8.5q-47 0 -89 -36t-62 -134q-10 -41 -16.5 -130.5t-6.5 -201.5h268l-12 -115h-254v-180v-139q0 -68 1 -124.5t3 -96t4 -58.5q4 -20 25 -37q16 -14 51 -26.5t94 -16.5l-6 -55q-129 12 -237 12q-61 0 -117.5 -4t-108.5 -10l-6 55q41 12 66.5 21.5t40 18.5t19.5 19.5 t7 24.5q2 16 4.5 58t3.5 97q1 54 2 116q1 61 1 120q0 76 -1 133.5t-6 71.5h-174l-10 55l189 74q0 66 8 129.5t26 124.5q25 82 68 145.5t96 106.5t114 65.5t120 22.5z" />
<glyph unicode="&#xfb04;" horiz-adv-x="1889" d="M1728 1444q-4 -35 -5 -104q-1 -70 -2 -164q-1 -93 -1 -202v-218q0 -176 1 -298t3 -200t6 -116t10 -44q16 -18 41 -28.5t84 -20.5l-10 -57q-45 6 -106.5 11t-108.5 5t-112.5 -4t-108.5 -10l-6 55q43 8 78.5 20.5t54.5 36.5q6 8 10 59.5t6 135.5t3 197.5t1 249.5 q0 215 -5 342t-15 143q-12 18 -36 37.5t-83 36.5v41q43 10 91 27.5t89 34.5t68 30l27 12zM1360 1452q53 0 96 -14.5t43 -32.5q0 -23 -8 -45q-6 -18 -19.5 -40t-36.5 -40q-10 6 -31.5 17.5t-48 21.5t-53 18.5t-47.5 8.5q-47 0 -89 -36t-62 -134q-10 -41 -16.5 -130.5 t-6.5 -201.5h268l-12 -115h-254v-180v-139q0 -68 1 -124.5t3 -96t4 -58.5q4 -20 25 -37q16 -14 51 -26.5t94 -16.5l-6 -55q-129 12 -237 12q-61 0 -117.5 -4t-108.5 -10l-6 55q41 12 66.5 21.5t40 18.5t19.5 19.5t7 24.5q2 16 4.5 58t3.5 97q1 54 2 116q1 61 1 120 q0 76 -1 133.5t-6 71.5h-174l-10 55l189 74q0 66 8 129.5t26 124.5q25 82 68 145.5t96 106.5t114 65.5t120 22.5zM670 1452q53 0 96 -14.5t43 -32.5q0 -23 -8 -45q-6 -18 -19.5 -40t-36.5 -40q-10 6 -31.5 17.5t-48 21.5t-53 18.5t-47.5 8.5q-47 0 -89 -36t-62 -134 q-10 -41 -16.5 -130.5t-6.5 -201.5h268l-12 -115h-254v-180v-139q0 -68 1 -124.5t3 -96t4 -58.5q4 -20 25 -37q16 -14 51 -26.5t94 -16.5l-6 -55q-129 12 -237 12q-61 0 -117.5 -4t-108.5 -10l-6 55q41 12 66.5 21.5t40 18.5t19.5 19.5t7 24.5q2 16 4.5 58t3.5 97 q1 54 2 116q1 61 1 120q0 76 -1 133.5t-6 71.5h-174l-10 55l189 74q0 66 8 129.5t26 124.5q25 82 68 145.5t96 106.5t114 65.5t120 22.5z" />
</font>
</defs>
</svg>
